<svg width="489" height="579" viewBox="0 0 489 579" fill="none" xmlns="http://www.w3.org/2000/svg">
<path d="M244.489 488.976C109.462 488.976 0.000579834 379.515 0.000579834 244.488C0.000579834 109.461 109.462 0 244.489 0C379.516 0 488.977 109.461 488.977 244.488C488.977 379.515 379.516 488.976 244.489 488.976Z" fill="#12423C" fill-opacity="0.2"/>
<path d="M286.839 321.001C204.997 321.001 138.652 254.656 138.652 172.815C138.652 90.9734 204.997 24.6279 286.839 24.6279C368.68 24.6279 435.025 90.9734 435.025 172.815C435.025 254.656 368.68 321.001 286.839 321.001Z" fill="#124223" fill-opacity="0.3"/>
<path d="M265.35 321.591C265.646 321.591 265.935 321.59 266.231 321.588C305.97 321.359 343.241 305.669 371.179 277.407C399.117 249.146 414.377 211.697 414.148 171.958C413.919 132.219 398.228 94.9481 369.967 67.0104C341.916 39.2807 304.807 24.0391 265.399 24.0391C265.103 24.0391 264.814 24.0399 264.518 24.0415C224.779 24.2702 187.508 39.9604 159.57 68.2219C131.632 96.4834 116.372 133.933 116.601 173.671C116.83 213.41 132.52 250.681 160.781 278.619C188.832 306.349 225.942 321.591 265.35 321.591ZM265.388 25.2171C346.385 25.2171 412.502 90.8639 412.97 171.965C413.196 211.389 398.057 248.542 370.341 276.579C342.624 304.617 305.648 320.183 266.224 320.41C226.798 320.644 189.648 305.497 161.61 277.781C133.572 250.065 118.006 213.088 117.779 173.664C117.311 92.2803 183.14 25.6882 264.525 25.2196C264.808 25.2179 265.105 25.2171 265.388 25.2171Z" fill="white"/>
<path d="M265.116 101.521C306.27 101.521 346.722 94.5919 382.098 81.4826C382.403 81.3695 382.559 81.0305 382.445 80.7253C382.332 80.4202 381.993 80.2647 381.688 80.3777C346.442 93.439 306.132 100.343 265.116 100.343C224.414 100.343 184.373 93.5384 149.321 80.6649C149.016 80.5527 148.676 80.7096 148.565 81.015C148.453 81.3204 148.609 81.6589 148.915 81.7711C184.095 94.6913 224.277 101.521 265.116 101.521Z" fill="white"/>
<path d="M383.249 263.236C383.487 263.236 383.711 263.09 383.8 262.854C383.914 262.549 383.761 262.21 383.456 262.095C347.742 248.654 306.82 241.549 265.115 241.549C223.634 241.549 182.904 248.582 147.328 261.887C147.024 262.001 146.869 262.34 146.983 262.645C147.097 262.949 147.436 263.104 147.741 262.99C183.186 249.734 223.773 242.727 265.115 242.727C306.68 242.727 347.459 249.806 383.042 263.198C383.109 263.224 383.18 263.236 383.249 263.236Z" fill="white"/>
<path d="M265.375 321.59C286.156 321.59 305.662 306.063 320.3 277.869C334.874 249.798 342.9 212.489 342.9 172.814C342.9 133.139 334.874 95.8296 320.3 67.7587C305.662 39.5651 286.156 24.0381 265.375 24.0381C244.594 24.0381 225.088 39.5651 210.45 67.7587C195.876 95.8299 187.85 133.139 187.85 172.814C187.85 212.489 195.876 249.798 210.45 277.869C225.088 306.063 244.594 321.59 265.375 321.59ZM265.375 25.2167C307.473 25.2167 341.722 91.4286 341.722 172.814C341.722 254.2 307.473 320.412 265.375 320.412C223.277 320.412 189.028 254.2 189.028 172.814C189.028 91.4286 223.277 25.2167 265.375 25.2167Z" fill="white"/>
<path d="M265.374 321.393C265.699 321.393 265.963 321.129 265.963 320.803V24.9427C265.963 24.6172 265.699 24.3535 265.374 24.3535C265.048 24.3535 264.785 24.6172 264.785 24.9427V320.803C264.785 321.129 265.048 321.393 265.374 321.393Z" fill="white"/>
<path d="M117.155 173.66C117.157 173.66 117.158 173.66 117.16 173.66L413.654 171.348C413.979 171.346 414.241 171.08 414.238 170.755C414.236 170.431 413.972 170.17 413.649 170.17C413.648 170.17 413.646 170.17 413.645 170.17L117.151 172.481C116.826 172.484 116.564 172.749 116.566 173.075C116.569 173.399 116.832 173.66 117.155 173.66Z" fill="white"/>
<path d="M8.62082 394.977H359.266C359.592 394.977 359.855 394.713 359.855 394.388V128.614C359.855 128.288 359.592 128.024 359.266 128.024H284.199C283.873 128.024 283.61 128.288 283.61 128.614C283.61 128.939 283.873 129.203 284.199 129.203H358.677V393.799H9.21001V129.203H171.975C172.301 129.203 172.565 128.939 172.565 128.614C172.565 128.288 172.301 128.024 171.975 128.024H8.62082C8.2951 128.024 8.03169 128.288 8.03169 128.614V394.388C8.03169 394.713 8.2951 394.977 8.62082 394.977Z" fill="#363E44"/>
<path d="M19.623 362.074L19.623 139.615L348.266 139.615L348.266 362.074L19.623 362.074Z" fill="white"/>
<path d="M177.525 378.483C176.687 374.935 178.884 371.381 182.432 370.543C185.979 369.705 189.534 371.902 190.372 375.45C191.21 378.997 189.013 382.552 185.465 383.39C181.918 384.228 178.363 382.031 177.525 378.483Z" fill="white"/>
<path d="M147.032 399.656H157.414C157.414 407.444 163.727 413.756 171.514 413.756H196.372C204.16 413.756 210.472 407.444 210.472 399.656H220.853L231.234 454.824V459.438H136.652V454.824L147.032 399.656Z" fill="#E6D0BE"/>
<path d="M136.652 465.794H231.235C231.561 465.794 231.824 465.53 231.824 465.204C231.824 464.879 231.561 464.615 231.235 464.615H136.652C136.327 464.615 136.063 464.879 136.063 465.204C136.063 465.53 136.327 465.794 136.652 465.794Z" fill="#E6D0BE"/>
<path d="M290.414 217.738H307.966C308.291 217.738 308.555 217.474 308.555 217.148C308.555 216.823 308.291 216.559 307.966 216.559H290.801L278.83 207.762H224.988L212.418 196.895H156.754L136.271 179.185C136.025 178.972 135.653 178.998 135.439 179.245C135.227 179.491 135.253 179.863 135.5 180.076L156.316 198.073H211.98L224.549 208.94H278.444L290.414 217.738Z" fill="#D87355"/>
<path d="M277.673 235.493H326.938C327.264 235.493 327.527 235.229 327.527 234.903C327.527 234.578 327.264 234.314 326.938 234.314H278.112L249.55 209.62H238.298L228.633 201.264H185.351L171.142 213.548H151.527C151.201 213.548 150.938 213.812 150.938 214.138C150.938 214.463 151.201 214.727 151.527 214.727H171.581L185.79 202.442H228.195L237.86 210.798H249.111L277.673 235.493Z" fill="#E76F51"/>
<path d="M170.934 216.135C169.625 216.135 168.563 215.217 168.563 214.085C168.563 212.953 169.625 212.035 170.934 212.035C172.243 212.035 173.305 212.953 173.305 214.085C173.305 215.217 172.243 216.135 170.934 216.135Z" fill="#E76F51"/>
<path d="M185.754 203.695C184.445 203.695 183.384 202.777 183.384 201.645C183.384 200.513 184.445 199.596 185.754 199.596C187.064 199.596 188.125 200.513 188.125 201.645C188.125 202.777 187.064 203.695 185.754 203.695Z" fill="#E76F51"/>
<path d="M228.584 203.695C227.275 203.695 226.214 202.777 226.214 201.645C226.214 200.513 227.275 199.596 228.584 199.596C229.894 199.596 230.955 200.513 230.955 201.645C230.955 202.777 229.894 203.695 228.584 203.695Z" fill="#E76F51"/>
<path d="M237.532 212.14C236.222 212.14 235.161 211.223 235.161 210.091C235.161 208.959 236.222 208.041 237.532 208.041C238.841 208.041 239.902 208.959 239.902 210.091C239.902 211.223 238.841 212.14 237.532 212.14Z" fill="#E76F51"/>
<path d="M249.002 212.285C247.693 212.285 246.632 211.367 246.632 210.235C246.632 209.103 247.693 208.186 249.002 208.186C250.312 208.186 251.373 209.103 251.373 210.235C251.373 211.367 250.312 212.285 249.002 212.285Z" fill="#E76F51"/>
<path d="M277.694 236.64C276.385 236.64 275.323 235.723 275.323 234.591C275.323 233.459 276.385 232.541 277.694 232.541C279.003 232.541 280.064 233.459 280.064 234.591C280.064 235.723 279.003 236.64 277.694 236.64Z" fill="#E76F51"/>
<path d="M276.093 202.248L276.863 201.357L251.88 179.757H177.691L166.649 170.209L165.877 171.1L177.253 180.935H251.442L276.093 202.248Z" fill="#D3BBA3"/>
<path d="M297.896 221.1H327.236V219.921H298.335L276.863 201.357L276.092 202.249L297.896 221.1Z" fill="#D3BBA3"/>
<path d="M298.627 222.439C297.318 222.439 296.257 221.522 296.257 220.39C296.257 219.258 297.318 218.34 298.627 218.34C299.937 218.34 300.998 219.258 300.998 220.39C300.998 221.522 299.937 222.439 298.627 222.439Z" fill="#D3BBA3"/>
<path d="M177.336 182.527C176.027 182.527 174.966 181.609 174.966 180.477C174.966 179.345 176.027 178.428 177.336 178.428C178.646 178.428 179.707 179.345 179.707 180.477C179.707 181.609 178.646 182.527 177.336 182.527Z" fill="#D3BBA3"/>
<path d="M63.7486 248.812H203.262V347.903H63.7486V248.812Z" fill="#F2E6DC"/>
<path d="M63.7486 248.812H203.262V257.606H63.7486V248.812Z" fill="#E6D0BE"/>
<path d="M63.749 348.492H203.262C203.588 348.492 203.852 348.228 203.852 347.903V248.812C203.852 248.486 203.588 248.223 203.262 248.223H63.749C63.4233 248.223 63.1598 248.486 63.1598 248.812V347.903C63.1598 348.228 63.4233 348.492 63.749 348.492ZM202.673 347.314H64.3382V249.401H202.673V347.314Z" fill="#E6D0BE"/>
<path d="M197.414 255.27C196.31 255.27 195.414 254.374 195.414 253.27C195.414 252.165 196.31 251.27 197.414 251.27C198.519 251.27 199.414 252.165 199.414 253.27C199.414 254.374 198.519 255.27 197.414 255.27Z" fill="white"/>
<path d="M190.953 255.27C189.849 255.27 188.953 254.374 188.953 253.27C188.953 252.165 189.849 251.27 190.953 251.27C192.058 251.27 192.953 252.165 192.953 253.27C192.953 254.374 192.058 255.27 190.953 255.27Z" fill="white"/>
<path d="M184.49 255.27C183.386 255.27 182.49 254.374 182.49 253.27C182.49 252.165 183.386 251.27 184.49 251.27C185.595 251.27 186.49 252.165 186.49 253.27C186.49 254.374 185.595 255.27 184.49 255.27Z" fill="white"/>
<path d="M70.1473 329.19H195.925C196.25 329.19 196.514 328.926 196.514 328.601C196.514 328.275 196.25 328.012 195.925 328.012H70.1473C69.8216 328.012 69.5581 328.275 69.5581 328.601C69.5581 328.926 69.8216 329.19 70.1473 329.19Z" fill="#E6D0BE"/>
<path d="M70.1473 315.792H195.925C196.25 315.792 196.514 315.528 196.514 315.202C196.514 314.877 196.25 314.613 195.925 314.613H70.1473C69.8216 314.613 69.5581 314.877 69.5581 315.202C69.5581 315.528 69.8216 315.792 70.1473 315.792Z" fill="#E6D0BE"/>
<path d="M70.1473 302.391H195.925C196.25 302.391 196.514 302.128 196.514 301.802C196.514 301.477 196.25 301.213 195.925 301.213H70.1473C69.8216 301.213 69.5581 301.477 69.5581 301.802C69.5581 302.128 69.8216 302.391 70.1473 302.391Z" fill="#E6D0BE"/>
<path d="M70.1473 288.991H195.925C196.25 288.991 196.514 288.727 196.514 288.402C196.514 288.076 196.25 287.812 195.925 287.812H70.1473C69.8216 287.812 69.5581 288.076 69.5581 288.402C69.5581 288.727 69.8216 288.991 70.1473 288.991Z" fill="#E6D0BE"/>
<path d="M70.1473 275.592H195.925C196.25 275.592 196.514 275.329 196.514 275.003C196.514 274.678 196.25 274.414 195.925 274.414H70.1473C69.8216 274.414 69.5581 274.678 69.5581 275.003C69.5581 275.328 69.8216 275.592 70.1473 275.592Z" fill="#E6D0BE"/>
<path d="M91.1101 342.591C91.4358 342.591 91.6992 342.327 91.6992 342.001V261.603C91.6992 261.277 91.4358 261.014 91.1101 261.014C90.7843 261.014 90.5209 261.277 90.5209 261.603V342.001C90.5209 342.327 90.7843 342.591 91.1101 342.591Z" fill="#E6D0BE"/>
<path d="M112.073 342.591C112.399 342.591 112.662 342.327 112.662 342.001V261.603C112.662 261.277 112.399 261.014 112.073 261.014C111.747 261.014 111.484 261.277 111.484 261.603V342.001C111.484 342.327 111.747 342.591 112.073 342.591Z" fill="#E6D0BE"/>
<path d="M133.036 342.591C133.362 342.591 133.625 342.327 133.625 342.001V261.603C133.625 261.277 133.362 261.014 133.036 261.014C132.71 261.014 132.447 261.277 132.447 261.603V342.001C132.447 342.327 132.71 342.591 133.036 342.591Z" fill="#E6D0BE"/>
<path d="M153.999 342.591C154.324 342.591 154.588 342.327 154.588 342.001V261.603C154.588 261.277 154.324 261.014 153.999 261.014C153.673 261.014 153.41 261.277 153.41 261.603V342.001C153.41 342.327 153.673 342.591 153.999 342.591Z" fill="#E6D0BE"/>
<path d="M174.962 342.591C175.287 342.591 175.551 342.327 175.551 342.001V261.603C175.551 261.277 175.287 261.014 174.962 261.014C174.636 261.014 174.372 261.277 174.372 261.603V342.001C174.372 342.327 174.636 342.591 174.962 342.591Z" fill="#E6D0BE"/>
<path d="M72.5396 235.834L106.898 239.348L99.2941 247.682L137.64 280.132L151.379 263.152L198.855 311.717L155.942 282.254L142.328 300.034L86.6884 261.498L79.1798 269.727L72.5396 235.834Z" fill="#D87355"/>
<path d="M277.848 278.584H324.66V318.673H277.848V278.584Z" fill="#D3BBA3"/>
<path d="M211.564 230.574H258.377V270.663H211.564V230.574Z" fill="white"/>
<path d="M210.976 271.251H258.967V229.984H210.976V271.251ZM257.789 270.073H212.155V231.163H257.789V270.073Z" fill="#8B865C"/>
<path d="M230.68 277.9H272.572V279.079H230.68V277.9Z" fill="#D3BBA3"/>
<path d="M239.577 286.486H272.572V287.665H239.577V286.486Z" fill="#D3BBA3"/>
<path d="M234.016 294.264H272.572V295.442H234.016V294.264Z" fill="#D3BBA3"/>
<path d="M246.048 302.445H272.572V303.624H246.048V302.445Z" fill="#D3BBA3"/>
<path d="M240.484 242.676C239.75 242.309 238.988 242.053 238.218 241.903L238.509 237.734C239.811 237.935 241.104 238.338 242.344 238.958C245.355 240.464 247.53 242.986 248.66 245.902L244.653 247.082C243.852 245.234 242.423 243.646 240.484 242.676Z" fill="#E76F51"/>
<path d="M244.882 253.582C245.395 252.136 245.51 250.622 245.27 249.178L249.277 247.998C249.779 250.429 249.593 253.016 248.619 255.451L244.882 253.582Z" fill="#E76F51"/>
<path d="M224.406 245.783L228.143 247.652C226.666 251.813 228.493 256.534 232.541 258.558C236.589 260.583 241.462 259.213 243.906 255.535L247.643 257.404C244.157 263.129 236.782 265.327 230.682 262.277C224.581 259.226 221.916 252.006 224.406 245.783Z" fill="#D87355"/>
<path d="M236.038 241.753C233.302 241.904 230.702 243.317 229.12 245.699L225.383 243.83C227.764 239.917 231.963 237.652 236.33 237.584L236.038 241.753Z" fill="#8B865C"/>
<path d="M35.3522 171.553H129.023V184.95H35.3522V171.553Z" fill="#F2E6DC"/>
<path d="M34.567 189.932H128.238V203.329H34.567V189.932Z" fill="#F2E6DC"/>
<path d="M34.567 208.311H128.238V221.708H34.567V208.311Z" fill="#F2E6DC"/>
<path d="M184.086 129.848C184.479 104.666 205.003 84.3701 230.278 84.3701C231.016 84.3701 231.749 84.3915 232.479 84.4257V129.848H184.086Z" fill="#2A9D8F"/>
<path d="M237.038 134.406V106.177C252.264 106.891 264.391 119.459 264.391 134.862C264.391 150.724 251.532 163.583 235.67 163.583C219.809 163.583 206.95 150.724 206.95 134.862C206.95 134.709 206.959 134.559 206.962 134.406H237.038Z" fill="#E76F51"/>
<path d="M25.1138 409.078H133.856C134.182 409.078 134.445 408.815 134.445 408.489V380.507C134.445 380.182 134.182 379.918 133.856 379.918H25.1138C24.7881 379.918 24.5246 380.182 24.5246 380.507V408.489C24.5246 408.815 24.7883 409.078 25.1138 409.078ZM133.267 407.9H25.703V381.096H133.267V407.9Z" fill="#D3BBA3"/>
<path d="M38.5557 371.299C43.1932 369.894 43.7423 363.04 47.6103 363.138C57.1883 363.38 61.537 393.275 68.8011 392.881C74.7976 392.555 75.7793 371.968 82.7236 371.3C90.1357 370.586 95.3621 393.43 103.367 392.881C110.397 392.398 110.116 374.527 122.571 368.545C124.663 367.539 126.856 366.996 129.055 366.78V402.704H29.9139V368.881C33.6555 371.452 36.4402 371.941 38.5557 371.299Z" fill="#E76F51"/>
<path d="M304.181 199.57C315.867 199.57 323.356 187.137 317.891 176.807L304.481 151.457L290.606 176.556C284.891 186.893 292.368 199.57 304.181 199.57Z" fill="#12423C"/>
<path d="M300.932 200.159C306.629 200.159 311.785 197.246 314.724 192.365C317.663 187.485 317.827 181.566 315.163 176.53L301.753 151.181C301.652 150.99 301.454 150.869 301.238 150.867C301.04 150.874 300.821 150.982 300.717 151.171L286.842 176.27C284.056 181.309 284.139 187.279 287.064 192.238C289.99 197.198 295.174 200.159 300.932 200.159ZM301.221 152.695L314.122 177.081C316.591 181.748 316.439 187.235 313.715 191.758C310.991 196.281 306.212 198.981 300.932 198.981C295.595 198.981 290.791 196.236 288.08 191.64C285.368 187.043 285.291 181.51 287.873 176.84L301.221 152.695Z" fill="#363E44"/>
<path d="M77.6872 182.831C87.087 182.831 94.707 175.211 94.707 165.811V152.281H60.6673V165.811C60.6673 175.211 68.2874 182.831 77.6872 182.831Z" fill="#363E44"/>
<path d="M31.6335 85.5145C31.6335 59.4742 53.246 38.4819 79.5115 39.4962C102.925 40.4004 122.174 59.1501 123.646 82.5347C124.786 100.632 115.461 116.65 101.146 125.143L100.32 139.56C99.6338 151.558 89.7041 160.936 77.6863 160.936C65.6687 160.936 55.739 151.558 55.052 139.56L54.2269 125.143C40.7034 117.119 31.6335 102.379 31.6335 85.5145Z" fill="#E76F51"/>
<path d="M77.93 167.235C87.9842 167.235 95.2309 162.472 95.3416 162.398C95.6114 162.216 95.6828 161.85 95.5008 161.58C95.3197 161.31 94.9536 161.239 94.6832 161.42C94.5199 161.53 78.1561 172.253 60.6823 160.705C60.4113 160.526 60.0461 160.6 59.866 160.872C59.6864 161.143 59.7612 161.509 60.0322 161.688C66.3597 165.869 72.5473 167.235 77.93 167.235Z" fill="#F2E6DC"/>
<path d="M77.93 174.358C87.9842 174.358 95.2309 169.595 95.3416 169.521C95.6114 169.339 95.6828 168.973 95.5008 168.703C95.3197 168.433 94.9536 168.362 94.6832 168.543C94.5199 168.653 78.1561 179.376 60.6823 167.828C60.4113 167.649 60.0461 167.723 59.866 167.995C59.6864 168.267 59.7612 168.632 60.0322 168.811C66.3597 172.992 72.5473 174.358 77.93 174.358Z" fill="#F2E6DC"/>
<path d="M90.2969 94.4523L76.3103 58.998H56.0327L74.0618 86.9712H56.0327L90.2969 122.425L79.2612 94.4523H90.2969Z" fill="white"/>
<path d="M381.169 234.783C375.196 235.553 370.159 239.61 368.134 245.28L352.96 287.746L319.588 267.309C317.562 265.806 316.021 263.739 315.158 261.368L313.613 257.124C312.554 254.212 310.638 251.7 308.16 249.842C301.836 245.103 298.165 240.234 298.165 240.234C296.253 242.351 296.045 245.535 297.737 247.831C299.545 250.284 301.723 252.401 301.723 252.401L298.132 252.652C295.541 252.832 292.957 252.201 290.743 250.843L281.637 245.258C280.49 244.555 279.019 245.375 279.002 246.719C278.946 251.266 280.28 256.146 281.632 259.896C283.096 263.956 286.294 267.151 290.325 268.695C295.16 270.544 299.865 272.151 302.55 273.046C304.089 273.557 305.526 274.309 306.828 275.276L309.519 277.28L345.719 312.396C353.55 318.823 365.326 316.308 369.846 307.24L381.659 283.543L388.582 233.826L381.169 234.783Z" fill="#FFA8A7"/>
<path d="M380.908 234.611C373.949 235.327 368.014 239.962 365.636 246.541L354.6 276.714L351.539 284.564L341.916 278.959L328.381 297.253L343.577 312.599C351.887 320.991 365.993 318.684 371.197 308.08L379.238 291.693L385.788 280.169L388.584 233.822L380.908 234.611Z" fill="#E76F51"/>
<path opacity="0.2" d="M380.908 234.611C373.949 235.327 368.014 239.962 365.636 246.541L354.6 276.714L351.539 284.564L341.916 278.959L328.381 297.253L343.577 312.599C351.887 320.991 365.993 318.684 371.197 308.08L379.238 291.693L385.788 280.169L388.584 233.822L380.908 234.611Z" fill="white"/>
<path opacity="0.21" d="M351.539 284.567L361.691 291.44C360.104 282.18 353.401 279.795 353.401 279.795L351.539 284.567Z" fill="black"/>
<path d="M333.792 276.006L335.742 277.2C334.548 286.611 324.493 291.802 324.493 291.802L322.883 290.242C322.037 292.429 322.471 294.904 324.011 296.672L324.88 297.671C326.98 300.082 330.498 300.773 333.285 299.205C338.347 296.358 342.945 290.436 344.79 284.942C345.854 281.771 344.506 278.295 341.561 276.705L340.18 275.96C338.618 275.117 336.771 274.969 335.096 275.554L333.792 276.006Z" fill="#E76F51"/>
<path opacity="0.4" d="M333.792 276.006L335.742 277.2C334.548 286.611 324.493 291.802 324.493 291.802L322.883 290.242C322.037 292.429 322.471 294.904 324.011 296.672L324.88 297.671C326.98 300.082 330.498 300.773 333.285 299.205C338.347 296.358 342.945 290.436 344.79 284.942C345.854 281.771 344.506 278.295 341.561 276.705L340.18 275.96C338.618 275.117 336.771 274.969 335.096 275.554L333.792 276.006Z" fill="white"/>
<path d="M355.748 557.278C358.783 560.462 363.378 561.813 367.776 561.701C372.174 561.589 376.43 560.164 380.499 558.491C384.569 556.819 389.676 552.137 394.073 552.224C398.136 552.305 402.934 551.781 406.941 551.344C407.332 542.464 405.112 533.918 405.112 533.918L384.575 533.375C379.032 540.968 368.249 547.287 360.092 549.657C357.472 550.418 355.535 552.546 355.023 555.058C355.033 555.102 355.03 555.144 355.039 555.189C355.327 556.5 355.748 557.278 355.748 557.278Z" fill="#455A64"/>
<path d="M394.073 552.226C389.675 552.137 384.567 556.821 380.499 558.493C376.429 560.165 372.173 561.59 367.776 561.702C363.378 561.814 358.783 560.466 355.748 557.28C355.748 557.28 355.328 556.504 355.039 555.189C355.029 555.146 355.032 555.102 355.023 555.058C354.844 555.937 354.833 556.863 355.039 557.795C355.328 559.109 355.748 559.887 355.748 559.887C358.783 563.071 363.378 564.422 367.776 564.308C372.173 564.196 376.429 562.771 380.499 561.099C384.568 559.427 389.675 554.744 394.073 554.831C398.597 554.922 402.503 554.554 406.738 554.099C406.84 553.182 406.899 552.262 406.939 551.344C402.933 551.782 398.136 552.307 394.073 552.226Z" fill="#263238"/>
<path d="M452.048 559.203C452.031 561.3 451.883 563.387 451.432 565.431C450.64 569.009 448.798 572.5 445.737 574.514C443.098 576.25 439.841 576.731 436.688 576.922C433.899 577.092 431.025 577.055 428.411 576.068C426.424 575.32 424.602 573.929 423.566 572.111C423.574 572.147 423.576 572.182 423.585 572.218C424.209 574.944 426.545 577.036 429.162 578.022C431.777 579.008 434.65 579.046 437.439 578.876C440.591 578.685 443.85 578.204 446.488 576.468C449.549 574.455 451.391 570.963 452.183 567.385C452.636 565.341 452.783 563.253 452.801 561.156C452.824 558.26 454.026 555.524 456.14 553.542C456.655 553.06 457.147 552.56 457.596 552.042C458.247 551.296 458.561 550.314 458.486 549.326C458.457 548.939 458.416 548.559 458.366 548.188C457.614 549.07 455.837 551.17 455.389 551.588C453.275 553.57 452.071 556.306 452.048 559.203Z" fill="#263238"/>
<path d="M436.338 537.502C437.131 541.728 436.361 546.145 434.738 550.129C433.118 554.113 430.677 557.711 428.054 561.12C426.794 562.758 425.48 564.375 424.556 566.223C423.649 568.038 423.145 570.129 423.563 572.111C424.601 573.929 426.421 575.318 428.407 576.068C431.022 577.054 433.895 577.092 436.685 576.922C439.838 576.732 443.095 576.25 445.733 574.514C448.795 572.5 450.637 569.009 451.428 565.431C451.881 563.387 452.027 561.299 452.044 559.202C452.068 556.306 453.27 553.57 455.384 551.588C455.832 551.168 457.609 549.068 458.362 548.187C457.686 543.029 455.288 539.376 455.288 539.376L436.338 537.502Z" fill="#455A64"/>
<path d="M375.674 334.672L377.385 451.804L382.91 533.79C396.903 542.637 407.036 535.398 407.036 535.398C412.344 496.555 413.067 472.671 410.172 456.507L412.826 393.297L420.787 458.92L434.179 539.359C448.531 548.666 458.664 539.359 458.664 539.359C458.664 509.583 461.318 476.289 453.116 454.818C458.905 388.472 449.255 335.877 449.255 335.877L375.674 334.672Z" fill="#263238"/>
<path opacity="0.3" d="M409.899 369.159L412.828 393.295L411.586 422.901L406.194 374.236C393.709 369.35 392.08 362.475 392.08 362.475C400.222 368.447 409.899 369.159 409.899 369.159Z" fill="black"/>
<path d="M402.277 232.377L388.585 233.825C377.366 243.717 371.576 264.466 373.989 287.384C376.401 310.304 375.678 334.671 375.678 334.671C406.076 356.866 444.436 340.702 449.262 335.876L447.005 307.775C446.751 304.611 447.289 301.439 448.543 298.522C451.413 291.855 456.534 278.732 457.223 268.565C458.189 254.331 451.675 242.389 451.675 242.389L431.771 233.704L402.277 232.377Z" fill="#EBEBEB"/>
<path d="M398.472 252.34C387.015 278.698 387.195 305.838 387.195 305.838L392.833 317.961L401.67 306.379C400.404 280.143 402.731 253.122 402.731 253.122L398.472 252.34Z" fill="#455A64"/>
<path d="M397.989 242.387C397.568 247.694 398.468 252.339 398.468 252.339C399.979 253.364 402.728 253.123 402.728 253.123C406.371 250.289 409.568 244.86 409.568 244.86L402.728 242.387H397.989Z" fill="#455A64"/>
<path d="M402.73 242.388C408.628 244.559 413.87 255.053 413.87 255.053C429.353 241.904 431.765 233.701 431.765 233.701C427.785 228.031 424.264 225.777 424.264 225.777L402.73 242.388Z" fill="#FAFAFA"/>
<path d="M402.731 242.387C398.232 242.507 394.252 248.781 394.252 248.781C393.527 237.803 402.731 229.359 402.731 229.359V242.387Z" fill="#FAFAFA"/>
<path d="M431.776 181.515C428.775 177.72 423.972 177.314 423.972 177.314L383.218 181.152C378.521 191.26 382.273 197.94 382.273 197.94C381.638 213.356 381.112 223.154 387.79 226.399C391.427 228.167 396.967 228.923 402.674 228.493C407.445 228.134 412.331 226.952 416.324 224.813L416.541 224.696C419.521 223.1 421.638 220.245 422.382 216.91C423.052 213.903 423.555 210.864 423.783 207.79C423.913 206.049 423.983 204.295 424.353 202.59C424.723 200.885 425.423 199.208 426.639 197.974C427.856 196.741 429.651 196.016 431.334 196.381C431.631 196.447 431.902 196.577 432.176 196.702C433.336 189.856 433.677 183.919 431.776 181.515Z" fill="#263238"/>
<path d="M416.853 182.695C415.958 185.494 416.504 188.557 417.388 191.358C418.273 194.16 419.494 196.871 419.978 199.774C420.455 202.64 420.166 205.682 418.858 208.268C417.55 210.853 415.163 212.925 412.362 213.529C407.986 214.473 403.706 211.88 399.315 211.016C395.238 210.215 390.72 211.083 387.049 213.218C385.665 214.022 383.938 213.113 383.843 211.497C383.322 202.624 383.33 188.723 384.622 182.191L416.853 182.695Z" fill="#FFA8A7"/>
<path d="M421.008 222.327L421.009 222.322L420.992 222.332L421.008 222.327Z" fill="#FFA8A7"/>
<path d="M424.563 212.23C424.563 212.23 424.482 215.83 424.389 220.127C426.053 218.742 427.179 217.056 428.186 214.153C426.776 213.974 425.353 213.28 424.563 212.23Z" fill="#37474F"/>
<path d="M398.103 198.428L390.672 207.564L397.49 210.009L398.103 198.428Z" fill="#F28F8F"/>
<path d="M403.726 214.545C401.813 215.142 399.9 215.74 397.986 216.337C398.574 217.69 400.449 218.533 401.854 218.143C403.258 217.751 403.901 216.013 403.726 214.545Z" fill="#F28F8F"/>
<path opacity="0.3" d="M403.726 214.545C401.813 215.142 399.9 215.74 397.986 216.337C398.574 217.69 400.449 218.533 401.854 218.143C403.258 217.751 403.901 216.013 403.726 214.545Z" fill="black"/>
<path d="M399.975 218.025C400.598 218.241 401.266 218.303 401.855 218.14C402.958 217.833 403.584 216.695 403.72 215.511C402.963 215.396 402.165 215.526 401.504 215.922C400.74 216.376 400.196 217.158 399.975 218.025Z" fill="#F28F8F"/>
<path d="M408.211 200.43C408.15 201.574 407.189 202.45 406.063 202.389C404.937 202.327 404.073 201.351 404.134 200.209C404.195 199.066 405.156 198.19 406.282 198.251C407.408 198.312 408.272 199.289 408.211 200.43Z" fill="#263238"/>
<path d="M391.133 198.826C391.072 199.968 390.111 200.846 388.985 200.783C387.858 200.723 386.995 199.746 387.056 198.604C387.116 197.461 388.078 196.585 389.204 196.646C390.33 196.708 391.194 197.683 391.133 198.826Z" fill="#263238"/>
<path d="M389.583 190.485C388.021 191.46 386.458 192.435 384.896 193.409C384.507 192.297 385.011 190.908 385.951 190.211C386.89 189.514 388.656 189.772 389.583 190.485Z" fill="#263238"/>
<path d="M407.053 191.188C408.503 192.326 409.954 193.467 411.404 194.605C411.908 193.541 411.553 192.105 410.693 191.311C409.833 190.516 408.05 190.579 407.053 191.188Z" fill="#263238"/>
<path d="M434.995 199.697C434.442 198.397 433.432 197.275 432.174 196.703C431.9 196.579 431.629 196.448 431.332 196.383C429.65 196.015 427.855 196.742 426.637 197.975C425.419 199.209 424.721 200.886 424.351 202.591C423.98 204.296 423.91 206.05 423.781 207.791C423.548 210.941 423.025 214.054 422.33 217.132C421.594 220.395 419.44 223.146 416.523 224.705L416.322 224.812C412.329 226.951 407.441 228.134 402.672 228.493L402.694 232.603V242.389L421.956 230.99C423.341 230.17 424.206 228.686 424.239 227.06C424.285 224.837 424.338 222.387 424.386 220.127C424.481 215.829 424.561 212.231 424.561 212.231C425.351 213.279 426.774 213.973 428.184 214.155C428.843 214.239 429.5 214.222 430.086 214.057C431.926 213.541 433.424 212.092 434.322 210.383C435.219 208.673 435.573 206.716 435.677 204.781C435.773 203.056 435.671 201.28 434.995 199.697Z" fill="#FFA8A7"/>
<path opacity="0.2" d="M419.073 224.532C420.203 223.062 421.025 221.332 421.45 219.521C420.388 221.71 418.692 223.546 416.527 224.705C416.458 224.742 416.391 224.776 416.326 224.812C412.333 226.951 407.445 228.133 402.676 228.493L402.694 232.038C405.438 231.744 408.167 231.261 410.76 230.319C413.966 229.154 416.981 227.257 419.073 224.532Z" fill="black"/>
<path d="M426.511 178.469C421.721 182.73 414.108 184.676 407.749 185.485C401.39 186.294 394.9 185.517 388.706 183.867C386.119 183.178 383.378 182.196 381.892 179.969C380.142 177.346 380.061 173.726 381.31 170.831C382.56 167.936 385.315 165.741 388.415 165.17C394.443 164.061 400.223 168.747 406.343 168.389C409 168.233 411.493 167.135 414.028 166.325C416.562 165.514 419.369 164.995 421.841 165.978C423.962 166.822 425.573 168.729 426.287 170.896C427.001 173.066 427.219 176.299 426.511 178.469Z" fill="#263238"/>
<path d="M363.527 335.304L349.543 278.152C349.101 276.366 347.951 274.838 346.358 273.919L311.46 253.819C311.244 253.693 311.019 253.65 310.799 253.647L310.801 253.634C308.94 253.424 307.85 255.225 307.635 255.857L307.643 255.859C307.52 256.12 307.47 256.423 307.551 256.748L321.536 313.899C321.978 315.685 323.127 317.212 324.72 318.132L359.618 338.232C359.922 338.406 360.239 338.437 360.533 338.382L360.53 338.395C361.703 338.295 363.014 337.188 363.442 336.184C363.459 336.149 363.478 336.113 363.492 336.075C363.496 336.063 363.504 336.051 363.509 336.04H363.501C363.571 335.814 363.593 335.565 363.527 335.304Z" fill="#455A64"/>
<path opacity="0.3" d="M361.604 336.735L347.619 279.585C347.177 277.799 346.028 276.271 344.435 275.352L309.537 255.252C308.795 254.824 307.953 255.191 307.639 255.859C307.516 256.12 307.466 256.423 307.547 256.749L321.532 313.899C321.974 315.685 323.123 317.213 324.716 318.132L359.614 338.232C359.918 338.406 360.235 338.437 360.529 338.383C361.24 338.249 361.806 337.553 361.604 336.735Z" fill="#455A64"/>
<path d="M431.768 233.703C426.827 244.805 411.562 252.843 409.573 278.009C407.583 303.176 413.143 352.897 417.377 365.869C433.737 372.072 457.318 361.773 457.318 361.773C452.911 345.285 448.4 300.005 450.374 276.883C452.348 253.761 446.412 240.055 446.412 240.055L431.768 233.703Z" fill="#E76F51"/>
<path d="M427.622 260.683C429.116 259.546 429.4 257.42 428.25 255.932L424.388 250.939L432.153 249.46C434.077 249.093 435.289 247.174 434.793 245.28L431.766 233.703C426.825 244.805 411.56 252.843 409.571 278.009C409.365 280.612 409.244 283.421 409.189 286.364C412.719 279.304 419.769 266.658 427.622 260.683Z" fill="#E76F51"/>
<path opacity="0.2" d="M427.622 260.683C429.116 259.546 429.4 257.42 428.25 255.932L424.388 250.939L432.153 249.46C434.077 249.093 435.289 247.174 434.793 245.28L431.766 233.703C426.825 244.805 411.56 252.843 409.571 278.009C409.365 280.612 409.244 283.421 409.189 286.364C412.719 279.304 419.769 266.658 427.622 260.683Z" fill="white"/>
<path d="M399.973 232.467C397.88 234.813 396.506 236.6 394.964 239.07C387.955 250.305 383.974 262.029 380.854 305.792C379.136 325.573 384.624 355.125 384.624 355.125C380.818 354.702 371.593 343.781 371.593 343.781C373.958 321.434 367.115 281.816 371.593 261.09C376.072 240.365 388.585 233.823 388.585 233.823L399.973 232.467Z" fill="#E76F51"/>
<path d="M399.975 232.467L387.023 240.155C386.031 240.744 385.907 242.132 386.779 242.888L388.587 244.453L382.702 247.427C381.016 248.279 379.93 249.99 379.908 251.881C379.804 261.542 381.817 272.982 383.236 279.792C386.023 256.547 389.61 247.657 394.968 239.07C396.508 236.602 397.881 234.814 399.975 232.467Z" fill="#E76F51"/>
<path opacity="0.2" d="M399.975 232.467L387.023 240.155C386.031 240.744 385.907 242.132 386.779 242.888L388.587 244.453L382.702 247.427C381.016 248.279 379.93 249.99 379.908 251.881C379.804 261.542 381.817 272.982 383.236 279.792C386.023 256.547 389.61 247.657 394.968 239.07C396.508 236.602 397.881 234.814 399.975 232.467Z" fill="white"/>
<path d="M446.412 240.055C438.576 248.016 429.51 274.246 425.688 286.114L417.252 309.757C405.102 310.381 403.86 312.044 393.87 313.802C390.689 314.362 383.431 315.908 378.629 316.456C377.705 316.476 376.812 316.468 375.981 316.4C371.924 315.849 363.72 309.39 352.333 308.094C351.252 310.473 352.302 313.278 354.681 314.359L362.608 317.963C355.343 319.428 343.121 309.073 339.4 310.708C335.681 312.343 340.921 316.118 340.921 316.118C339.568 320.853 343.927 323.817 343.927 323.817C343.964 328.406 348.149 332.276 358.731 334.776C364.311 335.904 370.334 333.706 375.496 333.706C376.152 333.706 377.621 333.685 379.665 333.651L426.224 334.672C431.732 334.672 436.764 331.571 439.238 326.649C443.214 318.738 448.893 307.32 450.379 303.719C470.671 255.189 468.988 244.871 446.412 240.055Z" fill="#FFA8A7"/>
<path d="M383.073 323.377H376.893V315.979L383.073 315.217V323.377Z" fill="#37474F"/>
<path d="M383.073 334.586H376.893V327.19L383.073 326.426V334.586Z" fill="#37474F"/>
<path d="M386.355 327.137C386.355 324.422 383.502 322.223 379.983 322.223C376.464 322.223 373.611 324.422 373.611 327.137V328.736H373.986C374.85 330.66 377.194 332.052 379.983 332.052C382.772 332.052 385.116 330.662 385.98 328.736H386.355V327.137Z" fill="#263238"/>
<path d="M386.355 328.736C386.355 331.451 383.502 333.65 379.983 333.65C376.464 333.65 373.611 331.449 373.611 328.736C373.611 326.022 376.464 323.822 379.983 323.822C383.502 323.821 386.355 326.022 386.355 328.736Z" fill="#455A64"/>
<path d="M379.983 331.663C377.564 331.663 375.601 330.232 375.383 328.41C375.371 328.519 375.34 328.626 375.34 328.738C375.34 330.716 377.418 332.319 379.982 332.319C382.545 332.319 384.624 330.716 384.624 328.738C384.624 328.626 384.594 328.521 384.58 328.41C384.365 330.232 382.402 331.663 379.983 331.663Z" fill="#263238"/>
<path d="M379.983 331.662C382.402 331.662 384.365 330.231 384.583 328.409C384.365 326.587 382.402 325.156 379.983 325.156C377.564 325.156 375.601 326.587 375.383 328.409C375.601 330.231 377.564 331.662 379.983 331.662Z" fill="#37474F"/>
<path d="M446.412 240.055C429.176 257.893 421.449 292.15 421.449 292.15C417.946 302.65 416.677 308.042 416.677 308.042C416.677 308.042 408.746 309.099 402.189 310.684V335.113L424.213 335.79C431.724 336.02 438.659 331.8 441.896 325.019C446.009 316.404 451.284 305.293 453.073 301.253C453.073 301.253 461.529 283.585 464.542 268.719C468.685 246.097 460.174 242.74 446.412 240.055Z" fill="#E76F51"/>
<path opacity="0.2" d="M446.412 240.055C429.176 257.893 421.449 292.15 421.449 292.15C417.946 302.65 416.677 308.042 416.677 308.042C416.677 308.042 408.746 309.099 402.189 310.684V335.113L424.213 335.79C431.724 336.02 438.659 331.8 441.896 325.019C446.009 316.404 451.284 305.293 453.073 301.253C453.073 301.253 461.529 283.585 464.542 268.719C468.685 246.097 460.174 242.74 446.412 240.055Z" fill="white"/>
<path d="M393.871 313.804L396.374 313.331C400.89 322.353 397.437 334.04 397.437 334.04L395.601 334C396.001 336.013 397.738 337.483 399.79 337.543L404.998 337.697C407.028 337.758 408.828 336.42 409.385 334.468C411.488 327.102 410.048 318.867 408.543 313.426C407.59 309.974 404.043 307.925 400.559 308.754L398.737 309.188C396.405 309.745 394.549 311.504 393.871 313.804Z" fill="#E76F51"/>
<path opacity="0.4" d="M393.871 313.804L396.374 313.331C400.89 322.353 397.437 334.04 397.437 334.04L395.601 334C396.001 336.013 397.738 337.483 399.79 337.543L404.998 337.697C407.028 337.758 408.828 336.42 409.385 334.468C411.488 327.102 410.048 318.867 408.543 313.426C407.59 309.974 404.043 307.925 400.559 308.754L398.737 309.188C396.405 309.745 394.549 311.504 393.871 313.804Z" fill="white"/>
<path opacity="0.21" d="M432.61 310.155C429.676 304.852 424.997 301.43 418.509 301.43C417.207 305.802 416.678 308.039 416.678 308.039C426.548 307.335 432.61 310.155 432.61 310.155Z" fill="black"/>
</svg>
