<svg width="421" height="362" viewBox="0 0 421 362" fill="none" xmlns="http://www.w3.org/2000/svg">
<g clip-path="url(#clip0_795_2)">
<path d="M206.419 337.68H206.309C203.309 337.68 200.279 337.6 197.289 337.43C196.459 337.39 195.829 336.68 195.869 335.85C195.909 335.02 196.629 334.4 197.449 334.43C200.389 334.59 203.369 334.67 206.309 334.67H206.419C207.249 334.67 207.919 335.34 207.919 336.17C207.919 337 207.249 337.67 206.419 337.67V337.68ZM215.469 337.42C214.679 337.42 214.019 336.8 213.969 336C213.919 335.17 214.559 334.46 215.379 334.42C218.359 334.25 221.359 334 224.319 333.67C225.139 333.57 225.889 334.17 225.979 334.99C226.069 335.81 225.479 336.56 224.659 336.65C221.649 336.99 218.589 337.24 215.559 337.41C215.529 337.41 215.499 337.41 215.479 337.41L215.469 337.42ZM188.349 336.69C188.289 336.69 188.239 336.69 188.179 336.69C185.169 336.36 182.119 335.93 179.129 335.43C178.309 335.29 177.759 334.52 177.899 333.7C178.039 332.88 178.819 332.34 179.629 332.47C182.569 332.96 185.549 333.38 188.509 333.71C189.329 333.8 189.929 334.54 189.839 335.37C189.759 336.14 189.099 336.7 188.349 336.7V336.69ZM233.449 335.41C232.729 335.41 232.099 334.89 231.969 334.16C231.829 333.34 232.379 332.57 233.199 332.43C236.139 331.93 239.099 331.35 241.999 330.68C242.799 330.5 243.609 331 243.799 331.81C243.979 332.62 243.479 333.42 242.669 333.61C239.719 334.28 236.699 334.88 233.709 335.39C233.629 335.4 233.539 335.41 233.459 335.41H233.449ZM170.509 333.69C170.399 333.69 170.289 333.68 170.179 333.65C167.219 332.98 164.239 332.22 161.329 331.38C160.529 331.15 160.069 330.32 160.299 329.53C160.529 328.74 161.359 328.27 162.149 328.5C165.009 329.32 167.929 330.07 170.839 330.73C171.649 330.91 172.149 331.72 171.969 332.52C171.809 333.22 171.189 333.69 170.509 333.69ZM251.099 331.38C250.449 331.38 249.849 330.95 249.659 330.3C249.429 329.5 249.889 328.67 250.689 328.44C253.549 327.62 256.419 326.7 259.229 325.71C260.009 325.44 260.869 325.85 261.139 326.63C261.409 327.41 260.999 328.27 260.219 328.54C257.359 329.54 254.429 330.48 251.519 331.32C251.379 331.36 251.239 331.38 251.099 331.38ZM153.109 328.71C152.949 328.71 152.779 328.68 152.619 328.63C149.749 327.63 146.869 326.53 144.069 325.37C143.299 325.05 142.939 324.18 143.259 323.41C143.579 322.65 144.449 322.28 145.219 322.6C147.969 323.74 150.799 324.81 153.619 325.8C154.399 326.07 154.819 326.93 154.539 327.71C154.319 328.33 153.739 328.72 153.119 328.72L153.109 328.71ZM268.159 325.41C267.569 325.41 267.009 325.06 266.769 324.49C266.449 323.73 266.809 322.85 267.579 322.53C270.329 321.39 273.069 320.16 275.749 318.87C276.499 318.51 277.389 318.82 277.749 319.57C278.109 320.32 277.799 321.21 277.049 321.57C274.319 322.89 271.519 324.14 268.729 325.3C268.539 325.38 268.349 325.41 268.159 325.41ZM136.359 321.77C136.139 321.77 135.919 321.72 135.709 321.62C132.969 320.3 130.239 318.89 127.579 317.42C126.849 317.02 126.589 316.11 126.989 315.38C127.389 314.65 128.309 314.39 129.029 314.79C131.639 316.23 134.319 317.62 137.009 318.91C137.759 319.27 138.069 320.17 137.709 320.91C137.449 321.45 136.919 321.76 136.359 321.76V321.77ZM284.429 317.55C283.899 317.55 283.389 317.27 283.119 316.78C282.719 316.06 282.979 315.14 283.709 314.74C286.309 313.3 288.899 311.77 291.419 310.18C292.119 309.74 293.049 309.95 293.489 310.65C293.929 311.35 293.719 312.28 293.019 312.72C290.449 314.34 287.809 315.9 285.159 317.36C284.929 317.49 284.679 317.55 284.429 317.55ZM120.499 313C120.229 313 119.949 312.93 119.699 312.77C117.129 311.15 114.569 309.44 112.099 307.69C111.429 307.21 111.269 306.27 111.749 305.6C112.229 304.93 113.169 304.77 113.839 305.25C116.259 306.97 118.769 308.65 121.299 310.24C121.999 310.68 122.209 311.61 121.769 312.31C121.479 312.76 120.999 313.01 120.499 313.01V313ZM299.729 307.92C299.259 307.92 298.799 307.7 298.509 307.29C298.029 306.62 298.189 305.68 298.859 305.2C301.279 303.48 303.689 301.66 306.019 299.8C306.669 299.28 307.609 299.39 308.129 300.04C308.649 300.69 308.539 301.63 307.889 302.15C305.519 304.04 303.069 305.89 300.599 307.65C300.339 307.84 300.029 307.93 299.729 307.93V307.92ZM105.729 302.52C105.399 302.52 105.069 302.41 104.799 302.19C102.429 300.3 100.079 298.31 97.8187 296.29C97.1987 295.74 97.1487 294.79 97.6987 294.17C98.2487 293.55 99.1987 293.5 99.8187 294.05C102.039 296.03 104.339 297.98 106.679 299.84C107.329 300.36 107.429 301.3 106.919 301.95C106.619 302.32 106.189 302.51 105.749 302.51L105.729 302.52ZM313.869 296.63C313.459 296.63 313.049 296.46 312.749 296.13C312.199 295.51 312.249 294.56 312.869 294.01C315.079 292.03 317.279 289.96 319.389 287.85C319.979 287.26 320.929 287.26 321.509 287.85C322.089 288.44 322.099 289.39 321.509 289.97C319.359 292.12 317.129 294.23 314.869 296.25C314.579 296.51 314.229 296.63 313.869 296.63ZM92.2287 290.46C91.8487 290.46 91.4587 290.31 91.1687 290.02C89.0287 287.88 86.9187 285.65 84.8887 283.39C84.3387 282.77 84.3887 281.82 85.0087 281.27C85.6287 280.72 86.5787 280.77 87.1287 281.39C89.1187 283.61 91.1887 285.8 93.2987 287.9C93.8887 288.49 93.8887 289.44 93.2987 290.02C93.0087 290.31 92.6187 290.46 92.2387 290.46H92.2287ZM326.669 283.83C326.309 283.83 325.959 283.7 325.669 283.45C325.049 282.9 324.999 281.95 325.549 281.33C327.539 279.1 329.489 276.8 331.339 274.48C331.859 273.83 332.799 273.73 333.449 274.24C334.099 274.76 334.199 275.7 333.689 276.35C331.799 278.71 329.819 281.06 327.789 283.33C327.489 283.66 327.079 283.83 326.669 283.83ZM80.1587 276.98C79.7187 276.98 79.2787 276.79 78.9887 276.42C77.0987 274.06 75.2487 271.6 73.4887 269.13C73.0087 268.46 73.1687 267.52 73.8387 267.04C74.5087 266.56 75.4487 266.72 75.9287 267.39C77.6587 269.82 79.4687 272.22 81.3287 274.55C81.8487 275.2 81.7387 276.14 81.0887 276.66C80.8087 276.88 80.4787 276.99 80.1487 276.99L80.1587 276.98ZM337.959 269.68C337.659 269.68 337.359 269.59 337.089 269.4C336.409 268.92 336.259 267.98 336.739 267.31C338.459 264.89 340.139 262.38 341.729 259.85C342.169 259.15 343.099 258.94 343.799 259.38C344.499 259.82 344.709 260.75 344.269 261.45C342.649 264.02 340.939 266.58 339.179 269.05C338.889 269.46 338.429 269.68 337.959 269.68ZM69.6787 262.24C69.1787 262.24 68.6987 261.99 68.4087 261.54C66.7887 258.97 65.2287 256.33 63.7587 253.69C63.3587 252.97 63.6187 252.05 64.3387 251.65C65.0587 251.25 65.9787 251.51 66.3787 252.23C67.8187 254.82 69.3487 257.42 70.9387 259.94C71.3787 260.64 71.1687 261.57 70.4687 262.01C70.2187 262.17 69.9487 262.24 69.6687 262.24H69.6787ZM347.619 254.35C347.369 254.35 347.119 254.29 346.889 254.16C346.169 253.76 345.899 252.85 346.299 252.12C347.739 249.51 349.129 246.83 350.429 244.15C350.789 243.4 351.689 243.09 352.429 243.45C353.179 243.81 353.489 244.71 353.129 245.45C351.809 248.19 350.399 250.92 348.919 253.57C348.649 254.07 348.129 254.34 347.609 254.34L347.619 254.35ZM60.9087 246.44C60.3487 246.44 59.8187 246.13 59.5587 245.59C58.2387 242.87 56.9887 240.07 55.8187 237.27C55.4987 236.51 55.8587 235.63 56.6287 235.31C57.3987 234.99 58.2687 235.35 58.5887 236.12C59.7287 238.87 60.9687 241.61 62.2587 244.29C62.6187 245.04 62.3087 245.93 61.5587 246.29C61.3487 246.39 61.1287 246.44 60.9087 246.44ZM355.489 238.03C355.299 238.03 355.099 237.99 354.919 237.92C354.159 237.6 353.789 236.72 354.109 235.96C355.249 233.21 356.329 230.39 357.319 227.57C357.589 226.79 358.449 226.37 359.229 226.65C360.009 226.92 360.419 227.78 360.149 228.56C359.149 231.43 358.049 234.31 356.879 237.11C356.639 237.69 356.079 238.04 355.489 238.04V238.03ZM53.9687 229.76C53.3487 229.76 52.7687 229.37 52.5587 228.76C51.5587 225.9 50.6187 222.97 49.7787 220.06C49.5487 219.26 50.0087 218.43 50.8087 218.2C51.5987 217.97 52.4387 218.43 52.6687 219.22C53.4987 222.08 54.4087 224.95 55.3987 227.76C55.6687 228.54 55.2587 229.4 54.4787 229.67C54.3187 229.73 54.1487 229.76 53.9787 229.76H53.9687ZM361.469 220.93C361.329 220.93 361.189 220.91 361.049 220.87C360.249 220.64 359.789 219.81 360.019 219.01C360.839 216.16 361.589 213.24 362.249 210.33C362.429 209.52 363.239 209.01 364.039 209.2C364.849 209.38 365.349 210.19 365.169 210.99C364.499 213.95 363.729 216.93 362.889 219.84C362.699 220.5 362.099 220.92 361.449 220.92L361.469 220.93ZM48.9487 212.38C48.2687 212.38 47.6487 211.91 47.4887 211.21C46.8087 208.26 46.2087 205.24 45.7087 202.25C45.5687 201.43 46.1187 200.66 46.9387 200.52C47.7487 200.39 48.5287 200.93 48.6687 201.75C49.1687 204.69 49.7587 207.65 50.4187 210.54C50.5987 211.35 50.0987 212.15 49.2887 212.34C49.1787 212.37 49.0687 212.38 48.9587 212.38H48.9487ZM365.479 203.29C365.399 203.29 365.309 203.29 365.229 203.27C364.409 203.13 363.859 202.36 363.999 201.54C364.499 198.6 364.909 195.62 365.239 192.66C365.329 191.84 366.069 191.24 366.899 191.34C367.719 191.43 368.319 192.17 368.229 193C367.889 196.01 367.469 199.06 366.959 202.05C366.839 202.78 366.199 203.3 365.479 203.3V203.29ZM45.9087 194.54C45.1587 194.54 44.5087 193.97 44.4187 193.21C44.0787 190.2 43.8187 187.14 43.6487 184.11C43.5987 183.28 44.2387 182.57 45.0587 182.53C45.9187 182.49 46.5987 183.12 46.6387 183.94C46.8087 186.92 47.0587 189.92 47.3887 192.88C47.4787 193.7 46.8887 194.45 46.0687 194.54C46.0087 194.54 45.9587 194.54 45.8987 194.54H45.9087ZM367.489 185.3C367.489 185.3 367.429 185.3 367.409 185.3C366.579 185.25 365.949 184.55 365.999 183.72C366.159 180.75 366.249 177.74 366.249 174.76V174.34C366.249 173.51 366.919 172.84 367.749 172.84C368.579 172.84 369.249 173.51 369.249 174.34V174.75C369.249 177.8 369.169 180.87 368.999 183.89C368.959 184.69 368.289 185.31 367.499 185.31L367.489 185.3ZM44.8887 176.47C44.0587 176.47 43.3887 175.8 43.3887 174.97V174.76C43.3887 171.79 43.4687 168.79 43.6287 165.84C43.6687 165.01 44.3987 164.37 45.2087 164.42C46.0387 164.46 46.6687 165.17 46.6287 166C46.4687 168.9 46.3887 171.84 46.3887 174.75V174.96C46.3887 175.79 45.7187 176.46 44.8887 176.46V176.47ZM367.459 166.78C366.669 166.78 366.009 166.16 365.959 165.37C365.789 162.39 365.529 159.39 365.189 156.43C365.099 155.61 365.689 154.86 366.509 154.77C367.339 154.67 368.079 155.27 368.169 156.09C368.509 159.1 368.779 162.16 368.949 165.19C368.999 166.02 368.369 166.73 367.539 166.77C367.509 166.77 367.479 166.77 367.449 166.77L367.459 166.78ZM45.8687 158.4C45.8187 158.4 45.7587 158.4 45.6987 158.4C44.8787 158.31 44.2787 157.57 44.3687 156.74C44.6987 153.73 45.1187 150.68 45.6187 147.69C45.7587 146.87 46.5287 146.32 47.3487 146.46C48.1687 146.6 48.7187 147.37 48.5787 148.19C48.0887 151.13 47.6687 154.11 47.3487 157.07C47.2687 157.84 46.6187 158.41 45.8587 158.41L45.8687 158.4ZM365.409 148.8C364.689 148.8 364.059 148.28 363.929 147.55C363.429 144.61 362.829 141.65 362.169 138.76C361.979 137.95 362.489 137.15 363.299 136.96C364.099 136.78 364.909 137.28 365.099 138.09C365.779 141.04 366.379 144.06 366.899 147.05C367.039 147.87 366.489 148.64 365.669 148.78C365.589 148.79 365.499 148.8 365.419 148.8H365.409ZM48.8487 140.55C48.7387 140.55 48.6287 140.54 48.5187 140.51C47.7087 140.33 47.1987 139.52 47.3887 138.72C48.0587 135.76 48.8187 132.78 49.6487 129.87C49.8787 129.07 50.7087 128.61 51.5087 128.84C52.3087 129.07 52.7687 129.9 52.5387 130.69C51.7187 133.55 50.9687 136.47 50.3187 139.38C50.1587 140.08 49.5387 140.55 48.8587 140.55H48.8487ZM361.349 131.17C360.699 131.17 360.099 130.74 359.909 130.09C359.079 127.24 358.159 124.37 357.169 121.55C356.889 120.77 357.299 119.91 358.089 119.64C358.869 119.36 359.729 119.77 359.999 120.56C361.009 123.43 361.949 126.35 362.789 129.26C363.019 130.06 362.559 130.89 361.769 131.12C361.629 131.16 361.489 131.18 361.349 131.18V131.17ZM53.8287 123.15C53.6687 123.15 53.4987 123.12 53.3387 123.07C52.5587 122.8 52.1387 121.94 52.4187 121.16C53.4187 118.29 54.5187 115.41 55.6687 112.6C55.9887 111.84 56.8687 111.47 57.6287 111.79C58.3987 112.11 58.7587 112.98 58.4387 113.75C57.2987 116.5 56.2287 119.33 55.2487 122.15C55.0287 122.77 54.4487 123.16 53.8287 123.16V123.15ZM355.339 114.12C354.749 114.12 354.189 113.77 353.949 113.2C352.809 110.46 351.569 107.72 350.269 105.04C349.909 104.29 350.219 103.4 350.959 103.04C351.709 102.68 352.599 102.99 352.959 103.73C354.289 106.46 355.549 109.26 356.709 112.05C357.029 112.81 356.669 113.69 355.899 114.01C355.709 114.09 355.519 114.13 355.319 114.13L355.339 114.12ZM60.7487 106.39C60.5287 106.39 60.3087 106.34 60.0987 106.24C59.3487 105.88 59.0387 104.98 59.3987 104.24C60.7087 101.51 62.1187 98.7701 63.5887 96.1101C63.9887 95.3801 64.8987 95.1201 65.6287 95.5201C66.3487 95.9201 66.6187 96.8301 66.2187 97.5601C64.7787 100.17 63.3887 102.86 62.0987 105.54C61.8387 106.08 61.3087 106.39 60.7487 106.39ZM347.459 97.8601C346.929 97.8601 346.419 97.5801 346.149 97.0901C344.699 94.4901 343.159 91.9001 341.569 89.3901C341.129 88.6901 341.339 87.7601 342.039 87.3201C342.739 86.8801 343.669 87.0901 344.109 87.7901C345.729 90.3501 347.299 92.9901 348.769 95.6401C349.169 96.3601 348.909 97.2801 348.189 97.6801C347.959 97.8101 347.709 97.8701 347.459 97.8701V97.8601ZM69.5087 90.5301C69.2387 90.5301 68.9587 90.4601 68.7087 90.3001C68.0087 89.8601 67.7987 88.9301 68.2387 88.2301C69.8487 85.6601 71.5587 83.1101 73.3187 80.6301C73.7987 79.9601 74.7387 79.7901 75.4087 80.2701C76.0887 80.7501 76.2487 81.6801 75.7687 82.3601C74.0387 84.8001 72.3687 87.3101 70.7887 89.8201C70.4987 90.2701 70.0187 90.5201 69.5187 90.5201L69.5087 90.5301ZM337.789 82.5801C337.319 82.5801 336.859 82.3601 336.569 81.9501C334.849 79.5301 333.029 77.1301 331.159 74.8001C330.639 74.1501 330.749 73.2101 331.389 72.6901C332.039 72.1701 332.979 72.2801 333.499 72.9201C335.399 75.2901 337.259 77.7401 339.009 80.2001C339.489 80.8701 339.339 81.8101 338.659 82.2901C338.399 82.4801 338.089 82.5701 337.789 82.5701V82.5801ZM79.9787 75.7601C79.6487 75.7601 79.3187 75.6501 79.0487 75.4301C78.3987 74.9101 78.2987 73.9701 78.8087 73.3201C80.6987 70.9401 82.6787 68.5901 84.6987 66.3301C85.2487 65.7101 86.1987 65.6601 86.8187 66.2101C87.4387 66.7601 87.4887 67.7101 86.9387 68.3301C84.9587 70.5501 83.0187 72.8601 81.1587 75.1901C80.8587 75.5601 80.4287 75.7601 79.9887 75.7601H79.9787ZM326.479 68.4601C326.069 68.4601 325.659 68.2901 325.359 67.9601C323.369 65.7401 321.289 63.5501 319.189 61.4601C318.599 60.8801 318.599 59.9301 319.189 59.3401C319.769 58.7501 320.719 58.7501 321.309 59.3401C323.449 61.4801 325.569 63.7001 327.599 65.9601C328.149 66.5801 328.099 67.5301 327.489 68.0801C327.199 68.3401 326.849 68.4601 326.489 68.4601H326.479ZM92.0287 62.2501C91.6487 62.2501 91.2587 62.1001 90.9687 61.8101C90.3787 61.2201 90.3787 60.2801 90.9687 59.6901C93.1087 57.5401 95.3387 55.4301 97.5987 53.4001C98.2187 52.8501 99.1587 52.9001 99.7187 53.5201C100.269 54.1401 100.219 55.0801 99.5987 55.6401C97.3887 57.6301 95.1887 59.7001 93.0887 61.8101C92.7987 62.1001 92.4087 62.2501 92.0287 62.2501ZM313.649 55.6901C313.299 55.6901 312.939 55.5601 312.649 55.3101C310.419 53.3301 308.109 51.3801 305.789 49.5301C305.139 49.0101 305.029 48.0701 305.549 47.4201C306.069 46.7701 307.009 46.6601 307.659 47.1801C310.029 49.0701 312.379 51.0501 314.649 53.0701C315.269 53.6201 315.319 54.5701 314.769 55.1901C314.469 55.5201 314.059 55.6901 313.649 55.6901ZM105.509 50.1701C105.069 50.1701 104.629 49.9801 104.339 49.6101C103.819 48.9601 103.929 48.0201 104.569 47.5001C106.939 45.6101 109.389 43.7501 111.859 41.9901C112.529 41.5101 113.469 41.6701 113.949 42.3401C114.429 43.0101 114.269 43.9501 113.599 44.4301C111.179 46.1601 108.769 47.9801 106.449 49.8401C106.169 50.0601 105.839 50.1701 105.509 50.1701ZM299.479 44.4201C299.179 44.4201 298.879 44.3301 298.609 44.1401C296.179 42.4201 293.669 40.7401 291.139 39.1601C290.439 38.7201 290.229 37.7901 290.669 37.0901C291.109 36.3901 292.039 36.1801 292.739 36.6201C295.309 38.2301 297.869 39.9401 300.349 41.6901C301.029 42.1701 301.189 43.1001 300.709 43.7801C300.419 44.1901 299.949 44.4101 299.479 44.4101V44.4201ZM120.239 39.6701C119.739 39.6701 119.259 39.4201 118.969 38.9701C118.529 38.2701 118.739 37.3401 119.439 36.9001C121.999 35.2801 124.639 33.7201 127.289 32.2401C128.009 31.8401 128.929 32.1001 129.329 32.8201C129.729 33.5401 129.469 34.4601 128.749 34.8601C126.149 36.3001 123.559 37.8401 121.039 39.4301C120.789 39.5901 120.509 39.6601 120.239 39.6601V39.6701ZM284.129 34.8001C283.879 34.8001 283.639 34.7401 283.409 34.6101C280.799 33.1701 278.109 31.7901 275.429 30.5001C274.679 30.1401 274.369 29.2501 274.729 28.5001C275.089 27.7501 275.979 27.4401 276.729 27.8001C279.469 29.1101 282.199 30.5201 284.859 31.9901C285.589 32.3901 285.849 33.3001 285.449 34.0301C285.179 34.5301 284.659 34.8101 284.139 34.8101L284.129 34.8001ZM136.029 30.8901C135.469 30.8901 134.939 30.5801 134.679 30.0401C134.319 29.2901 134.629 28.4001 135.379 28.0401C138.099 26.7201 140.899 25.4601 143.699 24.3001C144.459 23.9801 145.339 24.3401 145.659 25.1101C145.979 25.8701 145.619 26.7501 144.849 27.0701C142.109 28.2101 139.359 29.4501 136.689 30.7501C136.479 30.8501 136.259 30.9001 136.039 30.9001L136.029 30.8901ZM267.799 26.9501C267.609 26.9501 267.419 26.9101 267.229 26.8401C264.469 25.7001 261.649 24.6301 258.829 23.6501C258.049 23.3801 257.629 22.5201 257.909 21.7401C258.179 20.9601 259.029 20.5401 259.819 20.8201C262.689 21.8201 265.569 22.9101 268.379 24.0701C269.149 24.3901 269.509 25.2601 269.189 26.0301C268.949 26.6101 268.389 26.9601 267.799 26.9601V26.9501ZM152.709 23.9501C152.089 23.9501 151.509 23.5601 151.299 22.9501C151.019 22.1701 151.439 21.3101 152.219 21.0401C155.079 20.0301 158.009 19.0901 160.919 18.2501C161.709 18.0201 162.549 18.4801 162.779 19.2701C163.009 20.0701 162.549 20.9001 161.759 21.1301C158.899 21.9601 156.029 22.8801 153.219 23.8701C153.059 23.9301 152.889 23.9601 152.719 23.9601L152.709 23.9501ZM250.689 21.0101C250.549 21.0101 250.409 20.9901 250.279 20.9501C247.419 20.1301 244.499 19.3901 241.589 18.7301C240.779 18.5501 240.269 17.7501 240.459 16.9401C240.639 16.1301 241.449 15.6201 242.249 15.8101C245.209 16.4801 248.189 17.2401 251.099 18.0701C251.899 18.3001 252.359 19.1301 252.129 19.9201C251.939 20.5801 251.339 21.0101 250.689 21.0101ZM170.089 18.9101C169.409 18.9101 168.789 18.4401 168.629 17.7401C168.439 16.9301 168.949 16.1301 169.759 15.9401C172.709 15.2601 175.729 14.6601 178.719 14.1501C179.529 14.0101 180.309 14.5601 180.449 15.3801C180.589 16.2001 180.039 16.9701 179.219 17.1101C176.279 17.6101 173.319 18.2001 170.429 18.8701C170.319 18.9001 170.199 18.9101 170.089 18.9101ZM233.029 17.0301C232.949 17.0301 232.859 17.0301 232.779 17.0101C229.849 16.5201 226.859 16.1101 223.899 15.7901C223.079 15.7001 222.479 14.9601 222.569 14.1401C222.659 13.3201 223.399 12.7201 224.219 12.8101C227.239 13.1401 230.279 13.5601 233.269 14.0601C234.089 14.2001 234.639 14.9701 234.499 15.7901C234.379 16.5201 233.739 17.0401 233.019 17.0401L233.029 17.0301ZM187.929 15.8701C187.179 15.8701 186.529 15.3001 186.439 14.5401C186.349 13.7201 186.939 12.9701 187.759 12.8801C190.769 12.5401 193.829 12.2801 196.859 12.1001C197.709 12.0601 198.399 12.6901 198.439 13.5101C198.489 14.3401 197.859 15.0501 197.029 15.0901C194.059 15.2601 191.049 15.5201 188.089 15.8501C188.029 15.8501 187.979 15.8501 187.919 15.8501L187.929 15.8701ZM215.039 15.0601C215.039 15.0601 214.989 15.0601 214.959 15.0601C212.089 14.9101 209.179 14.8301 206.309 14.8301H205.989C205.159 14.8301 204.489 14.1601 204.489 13.3301C204.489 12.5001 205.159 11.8301 205.989 11.8301H206.309C209.239 11.8301 212.199 11.9101 215.119 12.0601C215.949 12.1001 216.579 12.8101 216.539 13.6401C216.499 14.4401 215.829 15.0601 215.039 15.0601Z" fill="#64748B"/>
<mask id="mask0_795_2" style="mask-type:luminance" maskUnits="userSpaceOnUse" x="32" y="14" width="349" height="348">
<path d="M329.286 310.925C397.147 243.063 397.147 133.038 329.286 65.1768C261.424 -2.68457 151.399 -2.68456 83.538 65.1768C15.6766 133.038 15.6766 243.063 83.538 310.925C151.399 378.786 261.424 378.786 329.286 310.925Z" fill="white"/>
</mask>
<g mask="url(#mask0_795_2)">
<path d="M257.679 263.629L207.309 253.529L155.149 263.629C130.699 263.629 110.869 283.449 110.869 307.909V368.999H301.949V307.909C301.949 283.459 282.129 263.629 257.669 263.629H257.679Z" fill="#264653"/>
<path d="M227.629 253.21C227.629 253.21 252.349 260.1 264.339 271.06C264.339 271.06 250.369 286.05 247.829 299.01L227.509 301.3L244.019 307.14C244.019 307.14 213.789 343.47 209.209 369H203.239C198.669 343.47 168.429 307.14 168.429 307.14L184.939 301.3L164.619 299.01C162.079 286.05 148.109 271.06 148.109 271.06C160.099 260.1 185.839 252.58 185.839 252.58" fill="#516B75"/>
<path d="M153.569 197.169H144.019C140.329 197.169 137.159 193.869 136.459 189.299L132.699 164.659C131.789 158.669 135.429 153.109 140.259 153.109H153.569V197.169Z" fill="#E0BB86"/>
<path d="M259.258 198.889H268.808C272.498 198.889 275.668 195.459 276.368 190.709L280.128 165.109C281.038 158.889 277.398 153.109 272.568 153.109H259.258V198.889Z" fill="#E0BB86"/>
<path d="M271.739 209.979H258.529V150.379H271.739C280.229 150.379 287.109 158.349 287.109 168.189V192.179C287.109 202.009 280.229 209.989 271.739 209.989V209.979Z" fill="#E76F51"/>
<g opacity="0.4">
<path d="M271.739 203.599H258.529V209.979H271.739C280.229 209.979 287.109 202.009 287.109 192.169V185.789C287.109 195.619 280.229 203.599 271.739 203.599Z" fill="#B1573C"/>
</g>
<path d="M228.519 271.439L206.419 285.919L184.309 271.439V235.619H228.519V271.439Z" fill="#E0BB86"/>
<path d="M158.08 200.489H151.48C148.6 200.489 146.27 198.159 146.27 195.279V150.949H158.08V200.489Z" fill="#E76F51"/>
<path d="M206.419 253.53C176.739 253.53 152.689 227.6 152.689 195.61V127.4C152.689 116.88 160.599 108.35 170.359 108.35H242.469C252.229 108.35 260.139 116.88 260.139 127.4V195.61C260.139 227.6 236.079 253.53 206.409 253.53H206.419Z" fill="#FEDBA3"/>
<path d="M259.84 92.0592C237.91 76.3292 207.64 73.2292 182.13 79.7092C171.69 82.3592 161.84 86.8792 153.39 93.8092C153.29 92.2992 153.39 90.5592 152.97 89.1292C151.88 90.0292 148.76 93.0892 148.76 94.6892C147.61 97.3092 147.34 99.7592 147.22 102.609C142.18 100.249 138.21 104.979 136.16 108.999C137.67 106.099 142.19 106.879 144.6 107.919C135.18 107.829 135.3 122.359 135.59 128.719C135.74 131.949 136.52 134.959 136.52 138.299C136.52 144.029 136.9 149.829 135.67 155.329C137.05 153.759 137.46 153.279 139.68 153.289C141.05 153.289 142.28 153.229 143.56 153.629C146.75 154.609 147.41 157.979 147.86 161.099C149 169.119 148.72 177.749 152.79 185.089C152.89 183.069 152.8 181.019 152.8 178.989C152.8 172.609 152.81 166.119 153.4 159.769C153.55 158.169 153.73 155.989 154.42 154.589C155.39 152.629 157.2 152.259 159.05 151.199C160.28 150.489 162.21 149.569 163.16 148.539C167.93 143.379 163.22 136.279 163.71 130.289C165.61 136.409 167.78 143.149 171.88 148.009C178.17 155.459 187.52 160.259 197.07 160.919C191.57 158.029 187.19 152.949 185.05 146.979C186.16 150.059 191.36 152.609 193.99 154.159C198.07 156.549 202.47 158.359 207.02 159.549C212.86 161.079 218.95 161.609 224.96 161.069C231.13 160.519 236.87 158.819 243.12 158.819C244.83 158.819 246.46 158.579 247.95 159.249C248.95 159.699 249.62 160.539 250.64 161.039C248.73 159.079 247.38 156.129 244.81 155.039C246.2 155.819 248.7 155.699 250.31 156.149C251.96 156.609 254.91 157.289 256.23 158.409C258.82 160.589 259.05 164.329 258.82 167.499C258.53 171.399 259.54 175.329 259.88 179.209C260.09 181.559 260.18 183.389 260.96 185.559C261.26 186.389 261.51 187.349 261.99 188.099C262.42 188.769 263.03 189.189 263.21 189.969C263.19 187.019 263.08 184.209 263.08 181.259C263.08 175.979 262.8 170.459 263.77 165.179C264.26 162.519 265.08 159.909 266.35 157.539C267.67 155.089 269.93 153.809 272.36 152.679C274.59 151.649 276.77 151.559 279.14 151.119C277.27 151.459 278.75 139.899 278.81 138.749C279.06 133.869 279.01 128.969 278.18 124.149C277.19 118.379 275.54 112.659 272.98 107.409C269.81 100.919 265.25 95.9392 259.85 92.0692L259.84 92.0592Z" fill="#505050"/>
<path d="M202.509 241.899C201.249 241.899 200.219 240.879 200.219 239.609C200.219 238.339 201.239 237.319 202.509 237.319C231.179 237.319 247.979 230.489 257.019 224.759C262.259 221.439 265.379 215.689 265.379 209.359V206.829C265.379 205.569 266.399 204.539 267.669 204.539C268.939 204.539 269.959 205.559 269.959 206.829V209.359C269.959 217.259 266.039 224.459 259.469 228.619C249.909 234.669 232.269 241.889 202.509 241.889V241.899Z" fill="#E76F51"/>
<path d="M214.929 233H198.849C197.844 233 197.029 233.815 197.029 234.82V243.94C197.029 244.945 197.844 245.76 198.849 245.76H214.929C215.934 245.76 216.749 244.945 216.749 243.94V234.82C216.749 233.815 215.934 233 214.929 233Z" fill="#EF8278"/>
<path d="M232.66 279.439L206.42 359.719L180.17 279.439L206.42 275.629L232.66 279.439Z" fill="#C7C5C8"/>
<path d="M211.048 295.759H200.448L197.398 275.629H214.098L211.048 295.759Z" fill="#DD6D68"/>
<path d="M194.279 322.59L205.899 358.14L206.529 359.38L217.579 325.58L211.059 295.76H200.449L194.279 322.59Z" fill="#E76F51"/>
<path d="M187.269 301.148L179.289 279.569V258.229L206.419 275.629L187.269 301.148Z" fill="#DDDEE0"/>
<path d="M225.56 301.148L233.55 279.569V258.229L206.42 275.629L225.56 301.148Z" fill="#DDDEE0"/>
</g>
<path d="M318.89 225.611C309.7 217.991 304.1 207.931 304.1 196.901C304.1 173.091 330.14 153.791 362.25 153.791C394.36 153.791 420.4 173.091 420.4 196.901C420.4 220.711 394.36 240.011 362.25 240.011C353.75 240.011 345.69 238.651 338.41 236.221C332.43 241.431 322.6 247.421 307.98 249.021C305.84 249.261 304.48 246.791 305.86 245.141C309.73 240.501 315.65 232.801 318.88 225.611H318.89Z" fill="#242424"/>
<path d="M318.04 224.869C318.34 224.279 318.62 223.689 318.89 223.099C310.06 215.779 304.57 206.199 304.14 195.689C304.13 196.089 304.1 196.489 304.1 196.889C304.1 207.569 309.36 217.339 318.04 224.869Z" fill="#4D4D4D"/>
<path d="M362.25 237.51C353.75 237.51 345.69 236.15 338.41 233.72C332.43 238.93 322.6 244.92 307.98 246.52C306.96 246.63 306.13 246.13 305.67 245.4C304.63 247.04 305.94 249.24 307.98 249.02C322.6 247.41 332.43 241.43 338.41 236.22C345.69 238.65 353.75 240.01 362.25 240.01C394.37 240.01 420.4 220.71 420.4 196.9C420.4 196.48 420.37 196.07 420.36 195.65C419.47 218.88 393.8 237.51 362.25 237.51Z" fill="#4D4D4D"/>
<path d="M368.67 183.182C370.87 183.612 372.89 184.682 374.47 186.272C376.05 187.852 377.13 189.872 377.56 192.072" stroke="#64748B" stroke-width="3" stroke-miterlimit="10"/>
<path d="M368.67 174.182C373.23 174.692 377.49 176.732 380.74 179.982C383.99 183.232 386.04 187.482 386.55 192.042" stroke="#64748B" stroke-width="3" stroke-miterlimit="10"/>
<path d="M360.07 200.872C357.37 198.172 355.23 195.112 353.67 191.852C353.54 191.572 353.47 191.432 353.42 191.252C353.24 190.622 353.37 189.842 353.75 189.312C353.86 189.162 353.99 189.032 354.24 188.772C355.03 187.982 355.42 187.592 355.68 187.192C356.65 185.702 356.65 183.782 355.68 182.282C355.42 181.882 355.03 181.492 354.24 180.702L353.8 180.262C352.6 179.062 352.01 178.472 351.36 178.142C350.08 177.492 348.58 177.492 347.3 178.142C346.66 178.462 346.06 179.062 344.86 180.262L344.51 180.612C343.32 181.802 342.72 182.402 342.27 183.212C341.77 184.112 341.4 185.502 341.41 186.542C341.41 187.472 341.59 188.102 341.95 189.372C343.89 196.192 347.54 202.632 352.91 208.012C358.28 213.382 364.72 217.042 371.55 218.972C372.82 219.332 373.45 219.512 374.38 219.512C375.41 219.512 376.81 219.152 377.71 218.652C378.52 218.192 379.12 217.602 380.31 216.412L380.66 216.062C381.86 214.862 382.45 214.272 382.78 213.622C383.43 212.342 383.43 210.842 382.78 209.562C382.46 208.922 381.86 208.322 380.66 207.122L380.22 206.682C379.43 205.892 379.04 205.502 378.64 205.242C377.15 204.272 375.23 204.272 373.73 205.242C373.33 205.502 372.94 205.892 372.15 206.682C371.89 206.942 371.76 207.072 371.61 207.172C371.08 207.552 370.3 207.682 369.67 207.502C369.49 207.452 369.35 207.382 369.07 207.252C365.81 205.682 362.75 203.552 360.05 200.852L360.07 200.872Z" stroke="#64748B" stroke-width="3" stroke-miterlimit="10"/>
<path d="M101.52 212.25C110.71 204.63 116.31 194.57 116.31 183.54C116.31 159.73 90.27 140.43 58.16 140.43C26.05 140.43 0 159.73 0 183.54C0 207.35 26.04 226.65 58.15 226.65C66.65 226.65 74.71 225.29 81.99 222.86C87.97 228.07 97.8 234.06 112.42 235.66C114.56 235.9 115.92 233.43 114.54 231.78C110.67 227.14 104.75 219.44 101.52 212.25Z" fill="#242424"/>
<path d="M112.43 233.029C97.81 231.419 87.98 225.439 82 220.229C74.72 222.659 66.66 224.019 58.16 224.019C26.63 224.019 0.99 205.419 0.04 182.219C0.02 182.659 0 183.089 0 183.539C0 207.349 26.04 226.649 58.15 226.649C66.65 226.649 74.71 225.289 81.99 222.859C87.97 228.069 97.8 234.059 112.42 235.659C114.48 235.889 115.8 233.629 114.68 231.979C114.22 232.669 113.4 233.139 112.42 233.029H112.43Z" fill="#4D4D4D"/>
<path d="M101.52 209.62C101.8 210.24 102.1 210.86 102.41 211.48C111.06 203.95 116.3 194.21 116.3 183.54C116.3 183.12 116.27 182.7 116.26 182.27C115.82 192.76 110.33 202.31 101.52 209.62Z" fill="#4D4D4D"/>
<path d="M43.2891 173.249V171.779C43.2891 165.339 48.5091 160.109 54.9591 160.109H59.7591C66.1791 160.109 71.6991 165.139 71.8091 171.559C71.9191 177.979 66.6591 183.449 60.1391 183.449C58.3291 183.449 56.8691 184.919 56.8691 186.719V195.339" stroke="#64748B" stroke-width="3" stroke-miterlimit="10"/>
<path d="M56.8682 208.949C58.9172 208.949 60.5782 207.288 60.5782 205.239C60.5782 203.19 58.9172 201.529 56.8682 201.529C54.8192 201.529 53.1582 203.19 53.1582 205.239C53.1582 207.288 54.8192 208.949 56.8682 208.949Z" stroke="#64748B" stroke-width="3" stroke-miterlimit="10"/>
<path d="M138.32 61.61C146.2 55.07 151 46.44 151 36.98C151 16.56 128.67 0 101.12 0C73.5702 0 51.2402 16.56 51.2402 36.98C51.2402 57.4 73.5702 73.96 101.12 73.96C108.41 73.96 115.33 72.79 121.57 70.71C126.7 75.18 135.13 80.31 147.67 81.69C149.51 81.89 150.67 79.78 149.49 78.36C146.17 74.38 141.09 67.78 138.32 61.61Z" fill="#242424"/>
<path d="M149.47 78.3302C149.06 78.8202 148.43 79.1402 147.68 79.0502C135.14 77.6702 126.71 72.5402 121.58 68.0702C115.34 70.1502 108.42 71.3202 101.13 71.3202C74.18 71.3202 52.23 55.4702 51.29 35.6602C51.27 36.1002 51.25 36.5302 51.25 36.9802C51.25 57.4002 73.58 73.9602 101.13 73.9602C108.42 73.9602 115.34 72.7902 121.58 70.7102C126.71 75.1802 135.14 80.3102 147.68 81.6902C149.52 81.8902 150.68 79.7802 149.5 78.3602C149.5 78.3602 149.49 78.3402 149.48 78.3302H149.47Z" fill="#4D4D4D"/>
<path d="M138.32 58.9692C138.6 59.5792 138.9 60.1992 139.22 60.8192C146.56 54.3792 151.01 46.0592 151.01 36.9692C151.01 36.5392 150.99 36.1192 150.97 35.6992C150.53 44.6192 145.83 52.7392 138.33 58.9592L138.32 58.9692Z" fill="#4D4D4D"/>
<path d="M91 41.4303L99.85 53.9703L105.78 50.8403L95.6 24.5703" stroke="#64748B" stroke-width="3" stroke-miterlimit="10"/>
<path d="M114.119 32.0817C117.199 30.8817 118.739 27.4117 117.539 24.3317C116.339 21.2517 112.869 19.7117 109.789 20.9117" stroke="#64748B" stroke-width="3" stroke-miterlimit="10"/>
<path d="M95.9995 24.4208L90.0195 26.7408C86.0495 28.2808 84.0895 32.7408 85.6195 36.7108C87.1495 40.6808 91.6194 42.6408 95.5894 41.1108L101.569 38.7908C104.389 37.7008 108.419 37.8708 111.649 38.2908C113.529 38.5308 114.469 38.6608 114.949 38.4008C115.399 38.1608 115.669 37.8108 115.799 37.3208C115.939 36.7908 115.609 35.9508 114.969 34.2908L108.939 18.7308C108.289 17.0608 107.969 16.2308 107.509 15.9308C107.079 15.6508 106.649 15.5808 106.149 15.7008C105.619 15.8308 105.009 16.5608 103.779 18.0108C101.679 20.4908 98.8195 23.3408 95.9995 24.4308V24.4208Z" stroke="#64748B" stroke-width="3" stroke-miterlimit="10"/>
<path d="M286.78 66.9401C278.9 60.4001 274.1 51.7701 274.1 42.3101C274.1 21.8901 296.43 5.33008 323.98 5.33008C351.53 5.33008 373.86 21.8901 373.86 42.3101C373.86 62.7301 351.53 79.2901 323.98 79.2901C316.69 79.2901 309.77 78.1201 303.53 76.0401C298.4 80.5101 289.97 85.6401 277.43 87.0201C275.59 87.2201 274.43 85.1101 275.61 83.6901C278.93 79.7101 284.01 73.1101 286.78 66.9401Z" fill="#242424"/>
<path d="M285.88 66.1608C286.2 65.5408 286.5 64.9208 286.78 64.3108C279.28 58.0908 274.58 49.9708 274.14 41.0508C274.12 41.4708 274.1 41.8908 274.1 42.3208C274.1 51.4108 278.54 59.7308 285.89 66.1708L285.88 66.1608Z" fill="#4D4D4D"/>
<path d="M323.98 76.6502C316.69 76.6502 309.77 75.4802 303.53 73.4002C298.4 77.8702 289.97 83.0102 277.43 84.3802C276.67 84.4602 276.05 84.1502 275.64 83.6602C275.64 83.6602 275.63 83.6802 275.62 83.6902C274.43 85.1102 275.6 87.2202 277.44 87.0202C289.98 85.6402 298.41 80.5102 303.54 76.0402C309.78 78.1202 316.7 79.2902 323.99 79.2902C351.54 79.2902 373.87 62.7302 373.87 42.3102C373.87 41.8702 373.85 41.4302 373.83 40.9902C372.89 60.8002 350.95 76.6502 323.99 76.6502H323.98Z" fill="#4D4D4D"/>
<path d="M349.319 44.1211L326.999 45.2311C326.609 45.2511 326.229 45.1911 325.879 45.0511C325.529 44.9111 325.219 44.6911 324.949 44.4011L309.689 28.1211" stroke="#64748B" stroke-width="3" stroke-miterlimit="10"/>
<path d="M313.209 22.4808C312.059 22.9608 311.1 23.8808 310.6 25.1208L303.019 43.9008C302.019 46.3808 303.25 49.2308 305.78 50.2508L337.29 62.9408C339.59 63.8708 342.21 62.7708 343.14 60.4708C345.84 53.7808 350.85 41.3708 350.85 41.3708C351.85 38.8808 350.62 36.0408 348.09 35.0208L316.989 22.4708C315.719 21.9608 314.369 22.0008 313.209 22.4908V22.4808Z" stroke="#64748B" stroke-width="3" stroke-miterlimit="10"/>
<path d="M179.289 258.23L184.309 255.43V261.45L179.289 258.23Z" fill="#333333"/>
<path d="M233.559 258.23L228.529 255.43V261.45L233.559 258.23Z" fill="#333333"/>
</g>
<defs>
<clipPath id="clip0_795_2">
<rect width="420.41" height="361.83" fill="white"/>
</clipPath>
</defs>
</svg>
