 <!-- DSAR -->
          <svg *ngIf="solution === 'Data Protection / DSAR'" xmlns="http://www.w3.org/2000/svg" width="20" height="22" viewBox="0 0 30 36" fill="none" class="zoom-static">
            <path d="M13.1998 21.8397C12.8498 21.8397 12.5198 21.6997 12.2698 21.4597L8.00977 17.1997L9.85977 15.3497L13.1898 18.6797L20.6898 11.1797L22.5398 13.0297L14.1198 21.4597C13.8698 21.7097 13.5398 21.8397 13.1898 21.8397H13.1998Z" fill="#E76F51"/>
            <path d="M14.8605 35.7699C14.6505 35.7699 14.4305 35.7499 14.2505 35.7099C13.7805 35.6099 13.4705 35.4299 13.0505 35.1799C9.19048 32.9299 0.230469 26.7599 0.230469 18.0299V10.0599C0.230469 8.61991 0.230472 7.8199 0.530472 7.0199C0.790472 6.3199 1.23048 5.68991 1.80048 5.18991C2.45048 4.61991 3.19047 4.33991 4.54047 3.83991L13.4705 0.4899C13.8605 0.3399 14.1205 0.249922 14.4405 0.199922C14.7305 0.159922 15.0105 0.159922 15.2905 0.199922C15.6205 0.249922 15.8905 0.3499 16.2705 0.4899L25.2005 3.83991C26.5505 4.34991 27.2905 4.61991 27.9405 5.18991C28.5105 5.68991 28.9505 6.32991 29.2105 7.02991C29.5105 7.81991 29.5105 8.61991 29.5105 10.0599V18.0299C29.5105 26.7599 20.5505 32.9299 16.6905 35.1799C16.2805 35.4199 15.9605 35.5999 15.5005 35.7099C15.3005 35.7499 15.0805 35.7699 14.8605 35.7699ZM14.9105 2.7999C14.7105 2.8199 14.6005 2.86992 14.3905 2.94992L5.46048 6.2999C4.40048 6.6999 3.81047 6.91991 3.54047 7.15991C3.30047 7.37991 3.11048 7.64992 2.99048 7.94992C2.86048 8.29992 2.86047 8.91991 2.86047 10.0599V18.0299C2.86047 25.6099 11.6705 31.3399 14.3805 32.9199C14.6305 33.0599 14.7605 33.1399 14.8105 33.1499C14.8305 33.1499 14.9305 33.1499 14.9705 33.1499C15.0105 33.1499 15.1505 33.0599 15.3905 32.9199C18.0905 31.3399 26.9005 25.6099 26.9005 18.0299V10.0599C26.9005 8.92991 26.9005 8.2999 26.7705 7.9599C26.6505 7.6499 26.4605 7.37991 26.2205 7.15991C25.9405 6.91991 25.3605 6.6999 24.3005 6.2999L15.3705 2.94992C15.1605 2.86992 15.0505 2.8199 14.9405 2.7999H14.9105Z" fill="#E76F51"/>
            </svg>