<svg width="312" height="380" viewBox="0 0 312 380" fill="none" xmlns="http://www.w3.org/2000/svg">
<path d="M118.517 130.283C118.517 131.813 117.277 133.053 115.747 133.053C114.217 133.053 112.977 131.813 112.977 130.283C112.977 128.753 114.217 127.513 115.747 127.513C117.277 127.513 118.517 128.753 118.517 130.283Z" fill="#55D9CC"/>
<path d="M148.831 133.053C148.831 134.583 147.591 135.823 146.061 135.823C144.531 135.823 143.291 134.583 143.291 133.053C143.291 131.523 144.531 130.283 146.061 130.283C147.591 130.283 148.831 131.523 148.831 133.053Z" fill="#55D9CC"/>
<path d="M177.446 123.227C177.446 124.757 176.206 125.997 174.676 125.997C173.146 125.997 171.906 124.757 171.906 123.227C171.906 121.697 173.146 120.457 174.676 120.457C176.206 120.457 177.446 121.697 177.446 123.227Z" fill="#55D9CC"/>
<path d="M116.73 129.692L112.359 125.732L108.4 130.103L112.77 134.062L116.73 129.692Z" fill="#F1375A"/>
<path d="M138.943 126.914L135.965 121.824L130.875 124.802L133.853 129.892L138.943 126.914Z" fill="#F1375A"/>
<path d="M139.316 134.551L136.338 129.461L131.248 132.439L134.226 137.529L139.316 134.551Z" fill="#F1375A"/>
<path d="M142.453 120.259L139.475 115.169L134.385 118.147L137.363 123.237L142.453 120.259Z" fill="#F1375A"/>
<path d="M151.704 128.209L155.859 132.394L160.044 128.239L155.889 124.054L151.704 128.209Z" fill="#F1375A"/>
<path d="M154.652 119.193L158.807 123.378L162.991 119.223L158.836 115.038L154.652 119.193Z" fill="#F1375A"/>
<path d="M156.339 136.516L160.494 140.701L164.679 136.546L160.524 132.361L156.339 136.516Z" fill="#F1375A"/>
<path d="M143.763 123.888L147.918 128.072L152.102 123.917L147.947 119.733L143.763 123.888Z" fill="#F1375A"/>
<path d="M200.496 117.625L199.148 111.885L193.408 113.232L194.755 118.973L200.496 117.625Z" fill="#F1375A"/>
<path d="M167.611 112.393L167.424 118.287L173.318 118.474L173.505 112.58L167.611 112.393Z" fill="#F1375A"/>
<path d="M200.448 135.032L196.078 131.073L192.119 135.444L196.489 139.403L200.448 135.032Z" fill="#F1375A"/>
<path d="M193.564 122.879L190.586 117.789L185.496 120.767L188.474 125.857L193.564 122.879Z" fill="#F1375A"/>
<path d="M184.056 124.646L183.811 118.754L177.919 119L178.165 124.892L184.056 124.646Z" fill="#F1375A"/>
<path d="M114.62 123.854C114.62 125.384 113.38 126.624 111.85 126.624C110.32 126.624 109.08 125.384 109.08 123.854C109.08 122.324 110.32 121.084 111.85 121.084C113.38 121.083 114.62 122.324 114.62 123.854Z" fill="#55D9CC"/>
<path d="M135.56 115.281C135.56 116.811 134.32 118.051 132.79 118.051C131.26 118.051 130.02 116.811 130.02 115.281C130.02 113.751 131.26 112.511 132.79 112.511C134.32 112.511 135.56 113.751 135.56 115.281Z" fill="#55D9CC"/>
<path d="M150.085 119.804C150.085 121.334 148.845 122.574 147.315 122.574C145.785 122.574 144.545 121.334 144.545 119.804C144.545 118.274 145.785 117.034 147.315 117.034C148.845 117.034 150.085 118.274 150.085 119.804Z" fill="#55D9CC"/>
<path d="M144.544 125.997C144.544 127.527 143.304 128.767 141.774 128.767C140.244 128.767 139.004 127.527 139.004 125.997C139.004 124.467 140.244 123.227 141.774 123.227C143.304 123.227 144.544 124.467 144.544 125.997Z" fill="#55D9CC"/>
<path d="M162.261 118.376C162.261 119.906 161.021 121.146 159.491 121.146C157.961 121.146 156.721 119.906 156.721 118.376C156.721 116.846 157.961 115.606 159.491 115.606C161.02 115.605 162.261 116.846 162.261 118.376Z" fill="#55D9CC"/>
<path d="M187.27 125.24C187.27 126.77 186.03 128.01 184.5 128.01C182.97 128.01 181.73 126.77 181.73 125.24C181.73 123.71 182.97 122.47 184.5 122.47C186.03 122.47 187.27 123.71 187.27 125.24Z" fill="#55D9CC"/>
<path d="M161.929 129.395C161.929 130.925 160.689 132.165 159.159 132.165C157.629 132.165 156.389 130.925 156.389 129.395C156.389 127.865 157.629 126.625 159.159 126.625C160.689 126.625 161.929 127.865 161.929 129.395Z" fill="#55D9CC"/>
<path d="M196.753 133.053C196.753 134.583 195.513 135.823 193.983 135.823C192.453 135.823 191.213 134.583 191.213 133.053C191.213 131.523 192.453 130.283 193.983 130.283C195.513 130.283 196.753 131.523 196.753 133.053Z" fill="#55D9CC"/>
<path d="M186.513 134.149C186.513 135.679 185.273 136.919 183.743 136.919C182.213 136.919 180.973 135.679 180.973 134.149C180.973 132.619 182.213 131.379 183.743 131.379C185.273 131.379 186.513 132.619 186.513 134.149Z" fill="#55D9CC"/>
<path d="M163.56 120.763L157.961 123.413L162.321 126.832L163.56 120.763Z" fill="#F5A404"/>
<path d="M162.938 130.133L168.418 133.022L168.536 127.483L162.938 130.133Z" fill="#F5A404"/>
<path d="M130.92 119.444L136.089 116.031L131.291 113.261L130.92 119.444Z" fill="#F5A404"/>
<path d="M120.119 120.976L114.52 123.626L118.88 127.045L120.119 120.976Z" fill="#F5A404"/>
<path d="M120.393 133.077L125.873 135.966L125.992 130.426L120.393 133.077Z" fill="#F5A404"/>
<path d="M139.312 133.89L144.482 130.476L139.684 127.706L139.312 133.89Z" fill="#F5A404"/>
<path d="M131.876 132.943L133.116 126.873L127.764 128.309L131.876 132.943Z" fill="#F5A404"/>
<path d="M148.283 121.848L144.664 126.875L150.133 127.76L148.283 121.848Z" fill="#F5A404"/>
<path d="M178.006 127.301L183.175 123.888L178.377 121.118L178.006 127.301Z" fill="#F5A404"/>
<path d="M186.976 115.261L183.357 120.288L188.826 121.173L186.976 115.261Z" fill="#F5A404"/>
<path d="M175.574 71.2438L181.054 74.1328L181.173 68.5928L175.574 71.2438Z" fill="#F5A404"/>
<path d="M123.348 64.5328L128.828 67.4228L128.947 61.8828L123.348 64.5328Z" fill="#F5A404"/>
<path d="M61.5272 65.3018L57.9082 70.3298L63.3782 71.2138L61.5272 65.3018Z" fill="#F5A404"/>
<path d="M75.7546 46.3063L76.9946 40.2373L71.6426 41.6733L75.7546 46.3063Z" fill="#F5A404"/>
<path d="M64.1296 89.7617L62.7576 83.7207L58.4746 87.2347L64.1296 89.7617Z" fill="#F5A404"/>
<path d="M92.1543 66.9316L94.3643 72.7186L98.1103 68.6357L92.1543 66.9316Z" fill="#F5A404"/>
<path d="M176.148 37.5807L181.628 40.4697L181.747 34.9307L176.148 37.5807Z" fill="#F5A404"/>
<path d="M145.087 40.3893L146.327 34.3193L140.975 35.7563L145.087 40.3893Z" fill="#F5A404"/>
<path d="M241.701 81.2994L247.181 84.1894L247.3 78.6494L241.701 81.2994Z" fill="#F5A404"/>
<path d="M284.309 37.6162L280.689 42.6432L286.159 43.5282L284.309 37.6162Z" fill="#F5A404"/>
<path d="M245.883 31.7975L251.363 34.6865L251.482 29.1465L245.883 31.7975Z" fill="#F5A404"/>
<path d="M22.0723 51.8834L27.5523 54.7724L27.6713 49.2324L22.0723 51.8834Z" fill="#F5A404"/>
<path d="M35.577 19.9619L31.957 24.9889L37.427 25.8739L35.577 19.9619Z" fill="#F5A404"/>
<path d="M56.7363 27.8402L61.9063 24.4272L57.1073 21.6572L56.7363 27.8402Z" fill="#F5A404"/>
<path d="M140.526 105.332C140.526 106.862 139.286 108.102 137.756 108.102C136.226 108.102 134.986 106.862 134.986 105.332C134.986 103.802 136.226 102.562 137.756 102.562C139.286 102.562 140.526 103.802 140.526 105.332Z" fill="#55D9CC"/>
<path d="M127.548 87.2339C127.548 88.7639 126.308 90.0039 124.778 90.0039C123.248 90.0039 122.008 88.7639 122.008 87.2339C122.008 85.7039 123.248 84.4639 124.778 84.4639C126.308 84.4629 127.548 85.7029 127.548 87.2339Z" fill="#55D9CC"/>
<path d="M103.026 50.7973C103.026 52.3273 101.786 53.5673 100.256 53.5673C98.7263 53.5673 97.4863 52.3273 97.4863 50.7973C97.4863 49.2673 98.7263 48.0273 100.256 48.0273C101.786 48.0273 103.026 49.2673 103.026 50.7973Z" fill="#55D9CC"/>
<path d="M157.862 90.0034C157.862 91.5334 156.622 92.7734 155.092 92.7734C153.562 92.7734 152.322 91.5334 152.322 90.0034C152.322 88.4734 153.562 87.2334 155.092 87.2334C156.622 87.2334 157.862 88.4734 157.862 90.0034Z" fill="#55D9CC"/>
<path d="M47.6611 88.3169C47.6611 89.8469 46.4211 91.0869 44.8911 91.0869C43.3611 91.0869 42.1211 89.8469 42.1211 88.3169C42.1211 86.7869 43.3611 85.5469 44.8911 85.5469C46.4211 85.5469 47.6611 86.7869 47.6611 88.3169Z" fill="#55D9CC"/>
<path d="M57.4869 51.5401C58.8549 50.8561 60.5199 51.4101 61.2039 52.7791C61.8879 54.1471 61.3339 55.8121 59.9649 56.4961C58.5969 57.1801 56.9319 56.6261 56.2479 55.2571C55.5639 53.8891 56.1189 52.2251 57.4869 51.5401Z" fill="#55D9CC"/>
<path d="M79.4762 90.4994C78.7112 91.8244 77.0172 92.2784 75.6922 91.5134C74.3672 90.7484 73.9133 89.0544 74.6783 87.7294C75.4433 86.4044 77.1372 85.9504 78.4622 86.7154C79.7872 87.4804 80.2412 89.1744 79.4762 90.4994Z" fill="#55D9CC"/>
<path d="M110.417 79.5259C110.417 81.0559 109.177 82.2959 107.647 82.2959C106.117 82.2959 104.877 81.0559 104.877 79.5259C104.877 77.9959 106.117 76.7559 107.647 76.7559C109.176 76.7549 110.417 77.9959 110.417 79.5259Z" fill="#55D9CC"/>
<path d="M123.651 57.7358C123.651 59.2658 122.411 60.5058 120.881 60.5058C119.351 60.5058 118.111 59.2658 118.111 57.7358C118.111 56.2058 119.351 54.9658 120.881 54.9658C122.411 54.9658 123.651 56.2058 123.651 57.7358Z" fill="#55D9CC"/>
<path d="M89.04 97.2788C89.04 98.8088 87.8 100.049 86.27 100.049C84.74 100.049 83.5 98.8088 83.5 97.2788C83.5 95.7488 84.74 94.5088 86.27 94.5088C87.799 94.5088 89.04 95.7488 89.04 97.2788Z" fill="#55D9CC"/>
<path d="M274.919 32.5307C274.919 34.0607 273.679 35.3007 272.149 35.3007C270.619 35.3007 269.379 34.0607 269.379 32.5307C269.379 31.0007 270.619 29.7607 272.149 29.7607C273.679 29.7607 274.919 31.0007 274.919 32.5307Z" fill="#55D9CC"/>
<path d="M247.378 10.3751C248.746 9.69108 250.411 10.2451 251.095 11.6141C251.779 12.9821 251.224 14.6471 249.856 15.3311C248.488 16.0151 246.823 15.4611 246.139 14.0921C245.454 12.7231 246.009 11.0591 247.378 10.3751Z" fill="#55D9CC"/>
<path d="M264.454 14.3442C264.454 15.8742 263.214 17.1142 261.684 17.1142C260.154 17.1142 258.914 15.8742 258.914 14.3442C258.914 12.8142 260.154 11.5742 261.684 11.5742C263.213 11.5742 264.454 12.8142 264.454 14.3442Z" fill="#55D9CC"/>
<path d="M241.841 42.6587C241.841 44.1887 240.601 45.4287 239.071 45.4287C237.541 45.4287 236.301 44.1887 236.301 42.6587C236.301 41.1287 237.541 39.8887 239.071 39.8887C240.601 39.8877 241.841 41.1287 241.841 42.6587Z" fill="#55D9CC"/>
<path d="M186.478 80.1763C186.478 81.7063 185.238 82.9462 183.708 82.9462C182.178 82.9462 180.938 81.7063 180.938 80.1763C180.938 78.6463 182.178 77.4062 183.708 77.4062C185.238 77.4062 186.478 78.6463 186.478 80.1763Z" fill="#55D9CC"/>
<path d="M201.215 36.1388C202.583 35.4548 204.248 36.0088 204.932 37.3778C205.616 38.7458 205.062 40.4108 203.693 41.0948C202.325 41.7788 200.66 41.2247 199.976 39.8557C199.292 38.4867 199.847 36.8228 201.215 36.1388Z" fill="#55D9CC"/>
<path d="M157.563 46.2696C158.931 45.5856 160.596 46.1396 161.28 47.5086C161.964 48.8766 161.41 50.5416 160.041 51.2256C158.673 51.9096 157.008 51.3556 156.324 49.9866C155.64 48.6186 156.195 46.9546 157.563 46.2696Z" fill="#55D9CC"/>
<path d="M175.592 58.0401C176.96 57.3561 178.625 57.9101 179.309 59.2791C179.993 60.6471 179.439 62.3121 178.07 62.9961C176.702 63.6801 175.038 63.1261 174.353 61.7571C173.669 60.3891 174.224 58.7241 175.592 58.0401Z" fill="#55D9CC"/>
<path d="M56.4635 29.6602C57.8315 28.9762 59.4965 29.5302 60.1805 30.8992C60.8645 32.2672 60.3105 33.9322 58.9415 34.6162C57.5735 35.3002 55.9085 34.7462 55.2245 33.3772C54.5405 32.0082 55.0955 30.3442 56.4635 29.6602Z" fill="#55D9CC"/>
<path d="M203.987 66.1378C205.355 65.4538 207.02 66.0078 207.704 67.3768C208.388 68.7448 207.833 70.4098 206.465 71.0938C205.097 71.7778 203.432 71.2238 202.748 69.8548C202.064 68.4858 202.619 66.8218 203.987 66.1378Z" fill="#55D9CC"/>
<path d="M174.665 23.0723C176.033 22.3883 177.698 22.9423 178.382 24.3113C179.066 25.6793 178.512 27.3443 177.143 28.0283C175.775 28.7123 174.11 28.1584 173.426 26.7894C172.742 25.4204 173.297 23.7563 174.665 23.0723Z" fill="#55D9CC"/>
<path d="M227.854 89.1382C227.854 90.6682 226.614 91.9082 225.084 91.9082C223.554 91.9082 222.314 90.6682 222.314 89.1382C222.314 87.6082 223.554 86.3682 225.084 86.3682C226.614 86.3682 227.854 87.6082 227.854 89.1382Z" fill="#55D9CC"/>
<path d="M25.3659 47.8028C26.7339 47.1188 28.3988 47.6728 29.0828 49.0418C29.7668 50.4098 29.2129 52.0748 27.8439 52.7588C26.4759 53.4428 24.8109 52.8888 24.1269 51.5198C23.4429 50.1508 23.9979 48.4868 25.3659 47.8028Z" fill="#55D9CC"/>
<path d="M279.112 72.6206C279.112 74.1506 277.872 75.3906 276.342 75.3906C274.812 75.3906 273.572 74.1506 273.572 72.6206C273.572 71.0906 274.812 69.8506 276.342 69.8506C277.871 69.8496 279.112 71.0906 279.112 72.6206Z" fill="#55D9CC"/>
<path d="M297.026 24.3116C298.394 23.6276 300.059 24.1816 300.743 25.5506C301.427 26.9186 300.873 28.5836 299.504 29.2676C298.136 29.9516 296.471 29.3976 295.787 28.0286C295.103 26.6596 295.657 24.9956 297.026 24.3116Z" fill="#55D9CC"/>
<circle cx="155.777" cy="270.13" r="0.94305" fill="#F1375A"/>
<path d="M155.777 273.695V296.87" stroke="#F1375A" stroke-width="1.8861" stroke-miterlimit="10" stroke-linecap="round"/>
<circle cx="155.777" cy="298.654" r="0.94305" fill="#F1375A"/>
<path d="M151.987 298.653H36.4004" stroke="#F1375A" stroke-width="1.8861" stroke-miterlimit="10" stroke-linecap="round"/>
<circle cx="34.5056" cy="298.654" r="0.94305" fill="#F1375A"/>
<path d="M34.5059 302.604V316.434" stroke="#F1375A" stroke-width="1.8861" stroke-miterlimit="10" stroke-linecap="round"/>
<circle cx="34.5056" cy="318.41" r="0.94305" fill="#F1375A"/>
<circle cx="155.777" cy="298.654" r="0.94305" fill="#F1375A"/>
<path d="M159.566 298.654H275.153" stroke="#F1375A" stroke-width="1.8861" stroke-miterlimit="10" stroke-linecap="round"/>
<circle cx="277.049" cy="298.654" r="0.94305" fill="#F1375A"/>
<path d="M277.049 302.605V316.434" stroke="#F1375A" stroke-width="1.8861" stroke-miterlimit="10" stroke-linecap="round"/>
<circle cx="277.049" cy="318.41" r="0.94305" fill="#F1375A"/>
<circle cx="155.777" cy="298.654" r="0.94305" fill="#F1375A"/>
<path d="M155.777 302.605V316.434" stroke="#F1375A" stroke-width="1.8861" stroke-miterlimit="10" stroke-linecap="round"/>
<circle cx="155.777" cy="318.41" r="0.94305" fill="#F1375A"/>
<path d="M91.1133 150.943H220.439C223.616 150.943 226.191 153.519 226.191 156.695V178.027L226.184 178.323C226.03 181.362 223.517 183.779 220.439 183.779H91.1133C87.9366 183.779 85.3613 181.204 85.3613 178.027V156.695C85.3614 153.519 87.9366 150.943 91.1133 150.943Z" stroke="#2A9D8F" stroke-width="2"/>
<path d="M218.482 184.779H93.0703V192.617H218.482V184.779Z" fill="#525252"/>
<path d="M91.1133 193.618H220.439C223.616 193.618 226.191 196.193 226.191 199.37V220.702L226.184 220.998C226.03 224.037 223.517 226.454 220.439 226.454H91.1133C87.9366 226.454 85.3613 223.879 85.3613 220.702V199.37C85.3613 196.193 87.9366 193.618 91.1133 193.618Z" stroke="#2A9D8F" stroke-width="2"/>
<path d="M218.482 227.454H93.0703V235.292H218.482V227.454Z" fill="#525252"/>
<path d="M91.1133 236.293H220.439C223.616 236.293 226.191 238.868 226.191 242.045V263.377L226.184 263.673C226.03 266.712 223.517 269.129 220.439 269.129H91.1133C87.9366 269.129 85.3613 266.554 85.3613 263.377V242.045C85.3614 238.868 87.9366 236.293 91.1133 236.293Z" stroke="#2A9D8F" stroke-width="2"/>
<path d="M196.156 149.943H115.398L108.668 136.642H202.886L196.156 149.943Z" fill="#3AA2C0"/>
<path d="M207.596 136.641H103.957C102.099 136.641 100.592 135.134 100.592 133.276C100.592 131.418 102.099 129.911 103.957 129.911H207.596C209.454 129.911 210.961 131.418 210.961 133.276C210.961 135.134 209.455 136.641 207.596 136.641Z" fill="#F1375A"/>
<path d="M211.516 159.522C212.959 159.522 214.129 158.352 214.129 156.909V149.942H208.904V156.909C208.903 158.352 210.073 159.522 211.516 159.522Z" fill="#55D9CC"/>
<path d="M202.805 159.522C204.248 159.522 205.418 158.352 205.418 156.909V149.942H200.193V156.909C200.193 158.352 201.362 159.522 202.805 159.522Z" fill="#55D9CC"/>
<path d="M194.096 159.522C195.539 159.522 196.709 158.352 196.709 156.909V149.942H191.484V156.909C191.483 158.352 192.653 159.522 194.096 159.522Z" fill="#55D9CC"/>
<path d="M211.516 202.197C212.959 202.197 214.129 201.027 214.129 199.584V192.617H208.904V199.584C208.903 201.027 210.073 202.197 211.516 202.197Z" fill="#F5A404"/>
<path d="M202.805 202.197C204.248 202.197 205.418 201.027 205.418 199.584V192.617H200.193V199.584C200.193 201.027 201.362 202.197 202.805 202.197Z" fill="#F5A404"/>
<path d="M194.096 202.197C195.539 202.197 196.709 201.027 196.709 199.584V192.617H191.484V199.584C191.483 201.027 192.653 202.197 194.096 202.197Z" fill="#F5A404"/>
<path d="M211.516 244.872C212.959 244.872 214.129 243.702 214.129 242.259V235.292H208.904V242.259C208.903 243.703 210.073 244.872 211.516 244.872Z" fill="#F1375A"/>
<path d="M202.805 244.872C204.248 244.872 205.418 243.702 205.418 242.259V235.292H200.193V242.259C200.193 243.703 201.362 244.872 202.805 244.872Z" fill="#F1375A"/>
<path d="M194.096 244.872C195.539 244.872 196.709 243.702 196.709 242.259V235.292H191.484V242.259C191.483 243.703 192.653 244.872 194.096 244.872Z" fill="#F1375A"/>
<path d="M160.131 154.297H93.9414V180.425H160.131V154.297Z" fill="white"/>
<path d="M160.131 196.972H93.9414V223.1H160.131V196.972Z" fill="white"/>
<path d="M160.131 239.647H93.9414V265.775H160.131V239.647Z" fill="white"/>
<path d="M101.781 157.78H96.5547V163.006H101.781V157.78Z" fill="#F1375A"/>
<path d="M108.747 157.78H103.521V163.006H108.747V157.78Z" fill="#F1375A"/>
<path d="M115.713 157.78H110.488V163.006H115.713V157.78Z" fill="#F1375A"/>
<path d="M122.68 157.78H117.455V163.006H122.68V157.78Z" fill="#F1375A"/>
<path d="M129.649 157.78H124.424V163.006H129.649V157.78Z" fill="#F1375A"/>
<path d="M136.617 157.78H131.391V163.006H136.617V157.78Z" fill="#F1375A"/>
<path d="M143.582 157.78H138.357V163.006H143.582V157.78Z" fill="#F1375A"/>
<path d="M150.551 157.78H145.326V163.006H150.551V157.78Z" fill="#F1375A"/>
<path d="M157.518 157.78H152.293V163.006H157.518V157.78Z" fill="#F1375A"/>
<path d="M101.781 164.748H96.5547V169.974H101.781V164.748Z" fill="#F1375A"/>
<path d="M108.747 164.748H103.521V169.974H108.747V164.748Z" fill="#F1375A"/>
<path d="M115.713 164.748H110.488V169.974H115.713V164.748Z" fill="#F1375A"/>
<path d="M122.68 164.748H117.455V169.974H122.68V164.748Z" fill="#F1375A"/>
<path d="M129.649 164.748H124.424V169.974H129.649V164.748Z" fill="#F1375A"/>
<path d="M136.617 164.748H131.391V169.974H136.617V164.748Z" fill="#F1375A"/>
<path d="M143.582 164.748H138.357V169.974H143.582V164.748Z" fill="#F1375A"/>
<path d="M150.551 164.748H145.326V169.974H150.551V164.748Z" fill="#F1375A"/>
<path d="M157.518 164.748H152.293V169.974H157.518V164.748Z" fill="#F1375A"/>
<path d="M101.781 171.715H96.5547V176.941H101.781V171.715Z" fill="#F1375A"/>
<path d="M108.747 171.715H103.521V176.941H108.747V171.715Z" fill="#F1375A"/>
<path d="M115.713 171.715H110.488V176.941H115.713V171.715Z" fill="#F1375A"/>
<path d="M122.68 171.715H117.455V176.941H122.68V171.715Z" fill="#F1375A"/>
<path d="M129.649 171.715H124.424V176.941H129.649V171.715Z" fill="#F1375A"/>
<path d="M101.781 202.197C101.781 203.64 100.611 204.81 99.1677 204.81C97.7247 204.81 96.5547 203.64 96.5547 202.197C96.5547 200.754 97.7247 199.584 99.1677 199.584C100.611 199.584 101.781 200.754 101.781 202.197Z" fill="#55D9CC"/>
<path d="M108.747 202.197C108.747 203.64 107.577 204.81 106.134 204.81C104.691 204.81 103.521 203.64 103.521 202.197C103.521 200.754 104.691 199.584 106.134 199.584C107.577 199.584 108.747 200.754 108.747 202.197Z" fill="#55D9CC"/>
<path d="M115.714 202.197C115.714 203.64 114.544 204.81 113.101 204.81C111.658 204.81 110.488 203.64 110.488 202.197C110.488 200.754 111.658 199.584 113.101 199.584C114.545 199.584 115.714 200.754 115.714 202.197Z" fill="#55D9CC"/>
<path d="M122.683 202.197C122.683 203.64 121.513 204.81 120.07 204.81C118.627 204.81 117.457 203.64 117.457 202.197C117.457 200.754 118.627 199.584 120.07 199.584C121.513 199.584 122.683 200.754 122.683 202.197Z" fill="#55D9CC"/>
<path d="M129.65 202.197C129.65 203.64 128.48 204.81 127.037 204.81C125.594 204.81 124.424 203.64 124.424 202.197C124.424 200.754 125.594 199.584 127.037 199.584C128.48 199.584 129.65 200.754 129.65 202.197Z" fill="#55D9CC"/>
<path d="M136.617 202.197C136.617 203.64 135.447 204.81 134.004 204.81C132.561 204.81 131.391 203.64 131.391 202.197C131.391 200.754 132.561 199.584 134.004 199.584C135.448 199.584 136.617 200.754 136.617 202.197Z" fill="#55D9CC"/>
<path d="M143.585 202.197C143.585 203.64 142.415 204.81 140.972 204.81C139.529 204.81 138.359 203.64 138.359 202.197C138.359 200.754 139.529 199.584 140.972 199.584C142.415 199.584 143.585 200.754 143.585 202.197Z" fill="#55D9CC"/>
<path d="M150.552 202.197C150.552 203.64 149.382 204.81 147.939 204.81C146.496 204.81 145.326 203.64 145.326 202.197C145.326 200.754 146.496 199.584 147.939 199.584C149.382 199.584 150.552 200.754 150.552 202.197Z" fill="#55D9CC"/>
<path d="M157.519 202.197C157.519 203.64 156.349 204.81 154.906 204.81C153.463 204.81 152.293 203.64 152.293 202.197C152.293 200.754 153.463 199.584 154.906 199.584C156.35 199.584 157.519 200.754 157.519 202.197Z" fill="#55D9CC"/>
<path d="M101.781 210.036C101.781 211.479 100.611 212.649 99.1677 212.649C97.7247 212.649 96.5547 211.479 96.5547 210.036C96.5547 208.593 97.7247 207.423 99.1677 207.423C100.611 207.423 101.781 208.593 101.781 210.036Z" fill="#55D9CC"/>
<path d="M108.747 210.036C108.747 211.479 107.577 212.649 106.134 212.649C104.691 212.649 103.521 211.479 103.521 210.036C103.521 208.593 104.691 207.423 106.134 207.423C107.577 207.423 108.747 208.593 108.747 210.036Z" fill="#55D9CC"/>
<path d="M115.714 210.036C115.714 211.479 114.544 212.649 113.101 212.649C111.658 212.649 110.488 211.479 110.488 210.036C110.488 208.593 111.658 207.423 113.101 207.423C114.545 207.423 115.714 208.593 115.714 210.036Z" fill="#55D9CC"/>
<path d="M122.683 210.036C122.683 211.479 121.513 212.649 120.07 212.649C118.627 212.649 117.457 211.479 117.457 210.036C117.457 208.593 118.627 207.423 120.07 207.423C121.513 207.423 122.683 208.593 122.683 210.036Z" fill="#55D9CC"/>
<path d="M129.65 210.036C129.65 211.479 128.48 212.649 127.037 212.649C125.594 212.649 124.424 211.479 124.424 210.036C124.424 208.593 125.594 207.423 127.037 207.423C128.48 207.423 129.65 208.593 129.65 210.036Z" fill="#55D9CC"/>
<path d="M136.617 210.036C136.617 211.479 135.447 212.649 134.004 212.649C132.561 212.649 131.391 211.479 131.391 210.036C131.391 208.593 132.561 207.423 134.004 207.423C135.448 207.423 136.617 208.593 136.617 210.036Z" fill="#55D9CC"/>
<path d="M143.585 210.036C143.585 211.479 142.415 212.649 140.972 212.649C139.529 212.649 138.359 211.479 138.359 210.036C138.359 208.593 139.529 207.423 140.972 207.423C142.415 207.423 143.585 208.593 143.585 210.036Z" fill="#55D9CC"/>
<path d="M150.552 210.036C150.552 211.479 149.382 212.649 147.939 212.649C146.496 212.649 145.326 211.479 145.326 210.036C145.326 208.593 146.496 207.423 147.939 207.423C149.382 207.423 150.552 208.593 150.552 210.036Z" fill="#55D9CC"/>
<path d="M157.519 210.036C157.519 211.479 156.349 212.649 154.906 212.649C153.463 212.649 152.293 211.479 152.293 210.036C152.293 208.593 153.463 207.423 154.906 207.423C156.35 207.423 157.519 208.593 157.519 210.036Z" fill="#55D9CC"/>
<path d="M101.781 217.874C101.781 219.317 100.611 220.487 99.1677 220.487C97.7247 220.487 96.5547 219.317 96.5547 217.874C96.5547 216.431 97.7247 215.261 99.1677 215.261C100.611 215.261 101.781 216.431 101.781 217.874Z" fill="#55D9CC"/>
<path d="M108.747 217.874C108.747 219.317 107.577 220.487 106.134 220.487C104.691 220.487 103.521 219.317 103.521 217.874C103.521 216.431 104.691 215.261 106.134 215.261C107.577 215.261 108.747 216.431 108.747 217.874Z" fill="#55D9CC"/>
<path d="M115.714 217.874C115.714 219.317 114.544 220.487 113.101 220.487C111.658 220.487 110.488 219.317 110.488 217.874C110.488 216.431 111.658 215.261 113.101 215.261C114.545 215.261 115.714 216.431 115.714 217.874Z" fill="#55D9CC"/>
<path d="M122.683 217.874C122.683 219.317 121.513 220.487 120.07 220.487C118.627 220.487 117.457 219.317 117.457 217.874C117.457 216.431 118.627 215.261 120.07 215.261C121.513 215.261 122.683 216.431 122.683 217.874Z" fill="#55D9CC"/>
<path d="M129.65 217.874C129.65 219.317 128.48 220.487 127.037 220.487C125.594 220.487 124.424 219.317 124.424 217.874C124.424 216.431 125.594 215.261 127.037 215.261C128.48 215.261 129.65 216.431 129.65 217.874Z" fill="#55D9CC"/>
<path d="M136.617 217.874C136.617 219.317 135.447 220.487 134.004 220.487C132.561 220.487 131.391 219.317 131.391 217.874C131.391 216.431 132.561 215.261 134.004 215.261C135.448 215.261 136.617 216.431 136.617 217.874Z" fill="#55D9CC"/>
<path d="M143.585 217.874C143.585 219.317 142.415 220.487 140.972 220.487C139.529 220.487 138.359 219.317 138.359 217.874C138.359 216.431 139.529 215.261 140.972 215.261C142.415 215.261 143.585 216.431 143.585 217.874Z" fill="#55D9CC"/>
<path d="M99.1677 242.86L96.5547 248.085H101.781L99.1677 242.86Z" fill="#F5A404"/>
<path d="M106.134 242.86L103.521 248.085H108.747L106.134 242.86Z" fill="#F5A404"/>
<path d="M113.103 242.86L110.49 248.085H115.715L113.103 242.86Z" fill="#F5A404"/>
<path d="M120.07 242.86L117.457 248.085H122.683L120.07 242.86Z" fill="#F5A404"/>
<path d="M127.036 242.86L124.424 248.085H129.649L127.036 242.86Z" fill="#F5A404"/>
<path d="M134.006 242.86L131.393 248.085H136.618L134.006 242.86Z" fill="#F5A404"/>
<path d="M140.972 242.86L138.359 248.085H143.585L140.972 242.86Z" fill="#F5A404"/>
<path d="M147.938 242.86L145.326 248.085H150.551L147.938 242.86Z" fill="#F5A404"/>
<path d="M154.906 242.86L152.293 248.085H157.518L154.906 242.86Z" fill="#F5A404"/>
<path d="M99.1677 249.827L96.5547 255.053H101.781L99.1677 249.827Z" fill="#F5A404"/>
<path d="M106.134 249.827L103.521 255.053H108.747L106.134 249.827Z" fill="#F5A404"/>
<path d="M113.103 249.827L110.49 255.053H115.715L113.103 249.827Z" fill="#F5A404"/>
<path d="M120.07 249.827L117.457 255.053H122.683L120.07 249.827Z" fill="#F5A404"/>
<path d="M127.036 249.827L124.424 255.053H129.649L127.036 249.827Z" fill="#F5A404"/>
<path d="M134.006 249.827L131.393 255.053H136.618L134.006 249.827Z" fill="#F5A404"/>
<path d="M140.972 249.827L138.359 255.053H143.585L140.972 249.827Z" fill="#F5A404"/>
<path d="M147.938 249.827L145.326 255.053H150.551L147.938 249.827Z" fill="#F5A404"/>
<path d="M154.906 249.827L152.293 255.053H157.518L154.906 249.827Z" fill="#F5A404"/>
<path d="M99.1677 256.794L96.5547 262.02H101.781L99.1677 256.794Z" fill="#F5A404"/>
<path d="M106.134 256.794L103.521 262.02H108.747L106.134 256.794Z" fill="#F5A404"/>
<path d="M180.054 354.987C185.711 341.583 179.432 326.131 166.029 320.473C152.626 314.815 137.174 321.094 131.516 334.498C125.858 347.901 132.137 363.353 145.54 369.011C158.944 374.669 174.396 368.39 180.054 354.987Z" stroke="#F1375A" stroke-width="1.8861" stroke-miterlimit="10" stroke-linecap="round"/>
<path d="M58.7822 354.989C64.44 341.586 58.161 326.134 44.7577 320.476C31.3543 314.818 15.9022 321.097 10.2444 334.501C4.58658 347.904 10.8655 363.356 24.2689 369.014C37.6722 374.672 53.1243 368.393 58.7822 354.989Z" stroke="#F1375A" stroke-width="1.8861" stroke-miterlimit="10" stroke-linecap="round"/>
<path d="M301.323 354.985C306.981 341.581 300.702 326.129 287.299 320.471C273.895 314.813 258.443 321.092 252.785 334.496C247.128 347.899 253.407 363.351 266.81 369.009C280.213 374.667 295.665 368.388 301.323 354.985Z" stroke="#F1375A" stroke-width="1.8861" stroke-miterlimit="10" stroke-linecap="round"/>
<path d="M49.6405 329.669H19.4785V359.831H49.6405V329.669Z" fill="#F1375A"/>
<path d="M155.776 359.831C164.105 359.831 170.857 353.079 170.857 344.75C170.857 336.421 164.105 329.669 155.776 329.669C147.447 329.669 140.695 336.421 140.695 344.75C140.695 353.079 147.447 359.831 155.776 359.831Z" fill="#55D9CC"/>
<path d="M277.048 326.519L261.967 356.681H292.129L277.048 326.519Z" fill="#F5A404"/>
<path d="M112.735 114.812H106.838V120.709H112.735V114.812Z" fill="#F1375A"/>
<path d="M77.3638 48.4893H71.4668V54.3863H77.3638V48.4893Z" fill="#F1375A"/>
<path d="M93.5596 56.9527L89.9082 61.583L94.5385 65.2344L98.1899 60.6041L93.5596 56.9527Z" fill="#F1375A"/>
<path d="M91.5655 17.5415L87.9141 22.1719L92.5444 25.8233L96.1958 21.193L91.5655 17.5415Z" fill="#F1375A"/>
<path d="M102.165 116.237L97.291 119.556L100.61 124.43L105.484 121.111L102.165 116.237Z" fill="#F1375A"/>
<path d="M72.6577 40.2857L67.7832 43.6045L71.102 48.4789L75.9765 45.1601L72.6577 40.2857Z" fill="#F1375A"/>
<path d="M80.7319 37.3546L75.8574 40.6729L79.1757 45.5473L84.0501 42.2291L80.7319 37.3546Z" fill="#F1375A"/>
<path d="M64.4252 37.3546L59.5508 40.6729L62.869 45.5473L67.7435 42.2291L64.4252 37.3546Z" fill="#F1375A"/>
<path d="M95.5765 37.0981L89.6836 37.3115L89.8971 43.2044L95.7899 42.9909L95.5765 37.0981Z" fill="#F1375A"/>
<path d="M86.0205 54.0163L80.3848 55.7529L82.1214 61.3887L87.7572 59.652L86.0205 54.0163Z" fill="#F1375A"/>
<path d="M101.902 109.616L96.041 110.264L96.6891 116.125L102.55 115.477L101.902 109.616Z" fill="#F1375A"/>
<path d="M136.513 122.716L136.916 116.833L131.033 116.43L130.63 122.314L136.513 122.716Z" fill="#F1375A"/>
<path d="M118.613 110.919L119.016 105.035L113.132 104.632L112.729 110.516L118.613 110.919Z" fill="#F1375A"/>
<path d="M125.761 86.6419L121.391 82.6826L117.431 87.0529L121.802 91.0121L125.761 86.6419Z" fill="#F1375A"/>
<path d="M108.142 75.2258L103.771 71.2666L99.8122 75.6369L104.182 79.5961L108.142 75.2258Z" fill="#F1375A"/>
<path d="M92.9367 70.0178L88.5664 66.0586L84.6072 70.4289L88.9774 74.3881L92.9367 70.0178Z" fill="#F1375A"/>
<path d="M143.515 100.103L139.145 96.1436L135.185 100.514L139.556 104.473L143.515 100.103Z" fill="#F1375A"/>
<path d="M146.189 120.615L143.211 115.525L138.121 118.503L141.099 123.593L146.189 120.615Z" fill="#F1375A"/>
<path d="M147.972 83.8631L144.994 78.7734L139.904 81.7514L142.882 86.8411L147.972 83.8631Z" fill="#F1375A"/>
<path d="M148.345 91.4989L145.367 86.4092L140.277 89.3872L143.255 94.4769L148.345 91.4989Z" fill="#F1375A"/>
<path d="M204.249 121.759L201.271 116.669L196.182 119.647L199.16 124.737L204.249 121.759Z" fill="#F1375A"/>
<path d="M132.783 53.453L129.805 48.3633L124.715 51.3413L127.693 56.431L132.783 53.453Z" fill="#F1375A"/>
<path d="M135.763 67.1092L132.785 62.0195L127.695 64.9975L130.673 70.0872L135.763 67.1092Z" fill="#F1375A"/>
<path d="M167.882 116.426L164.904 111.336L159.815 114.314L162.793 119.404L167.882 116.426Z" fill="#F1375A"/>
<path d="M151.48 77.2069L148.502 72.1172L143.412 75.0952L146.39 80.1849L151.48 77.2069Z" fill="#F1375A"/>
<path d="M125.642 67.6659L122.664 62.5762L117.574 65.5542L120.552 70.6439L125.642 67.6659Z" fill="#F1375A"/>
<path d="M160.738 85.1612L164.893 89.3457L169.077 85.1907L164.922 81.0062L160.738 85.1612Z" fill="#F1375A"/>
<path d="M163.685 76.1456L167.84 80.3301L172.024 76.175L167.869 71.9905L163.685 76.1456Z" fill="#F1375A"/>
<path d="M148.325 58.3413L152.48 62.5264L156.666 58.3713L152.511 54.1862L148.325 58.3413Z" fill="#F1375A"/>
<path d="M165.368 93.4682L169.523 97.6533L173.709 93.4983L169.554 89.3132L165.368 93.4682Z" fill="#F1375A"/>
<path d="M152.794 80.8399L156.949 85.0244L161.134 80.8694L156.979 76.6849L152.794 80.8399Z" fill="#F1375A"/>
<path d="M148.235 105.76L148.424 99.8662L142.53 99.6769L142.34 105.571L148.235 105.76Z" fill="#F1375A"/>
<path d="M118.234 96.6675L116.887 90.9268L111.146 92.2742L112.493 98.015L118.234 96.6675Z" fill="#F1375A"/>
<path d="M116.283 75.561L114.936 69.8203L109.195 71.1678L110.542 76.9085L116.283 75.561Z" fill="#F1375A"/>
<path d="M75.3901 36.0409L72.4121 30.9512L67.3224 33.9292L70.3004 39.0188L75.3901 36.0409Z" fill="#F1375A"/>
<path d="M60.1987 5.63072L57.2207 0.541016L52.131 3.519L55.109 8.60871L60.1987 5.63072Z" fill="#F1375A"/>
<path d="M63.1831 19.286L60.2051 14.1963L55.1154 17.1743L58.0934 22.264L63.1831 19.286Z" fill="#F1375A"/>
<path d="M78.896 29.3836L75.918 24.2939L70.8283 27.2719L73.8063 32.3616L78.896 29.3836Z" fill="#F1375A"/>
<path d="M53.06 19.8426L50.082 14.7529L44.9923 17.7309L47.9703 22.8206L53.06 19.8426Z" fill="#F1375A"/>
<path d="M43.7029 27.7407L42.3555 22L36.6147 23.3475L37.9622 29.0882L43.7029 27.7407Z" fill="#F1375A"/>
<path d="M73.8837 78.6963L70.4121 83.4629L75.1787 86.9345L78.6502 82.1679L73.8837 78.6963Z" fill="#F1375A"/>
<path d="M85.3711 91.4448L85.1836 97.3389L91.0776 97.5264L91.2652 91.6323L85.3711 91.4448Z" fill="#F1375A"/>
<path d="M77.4702 88.1689L74.543 93.2881L79.6622 96.2154L82.5894 91.0962L77.4702 88.1689Z" fill="#F1375A"/>
<path d="M100.247 83.6703L95.7285 79.8809L91.9391 84.3991L96.4574 88.1886L100.247 83.6703Z" fill="#F1375A"/>
<path d="M88.4732 80.0459L83.0391 77.7549L80.7481 83.189L86.1822 85.48L88.4732 80.0459Z" fill="#F1375A"/>
<path d="M107.846 60.6777L102.412 58.3867L100.121 63.8208L105.555 66.1118L107.846 60.6777Z" fill="#F1375A"/>
<path d="M142.433 112.25L142.188 106.358L136.296 106.604L136.542 112.496L142.433 112.25Z" fill="#F1375A"/>
<path d="M157.521 98.3878L157.275 92.4961L151.384 92.742L151.63 98.6337L157.521 98.3878Z" fill="#F1375A"/>
<path d="M217.052 64.5559L212.682 60.5967L208.722 64.9669L213.093 68.9262L217.052 64.5559Z" fill="#F1375A"/>
<path d="M199.435 53.138L195.064 49.1787L191.105 53.549L195.475 57.5082L199.435 53.138Z" fill="#F1375A"/>
<path d="M184.224 47.9339L179.854 43.9746L175.894 48.3449L180.265 52.3041L184.224 47.9339Z" fill="#F1375A"/>
<path d="M234.81 78.0149L230.439 74.0557L226.48 78.4259L230.85 82.3852L234.81 78.0149Z" fill="#F1375A"/>
<path d="M239.271 61.7713L236.293 56.6816L231.203 59.6596L234.181 64.7493L239.271 61.7713Z" fill="#F1375A"/>
<path d="M239.638 69.4061L236.66 64.3164L231.57 67.2944L234.548 72.3841L239.638 69.4061Z" fill="#F1375A"/>
<path d="M224.072 31.3621L221.094 26.2725L216.004 29.2504L218.982 34.3401L224.072 31.3621Z" fill="#F1375A"/>
<path d="M227.056 45.0174L224.078 39.9277L218.988 42.9057L221.966 47.9954L227.056 45.0174Z" fill="#F1375A"/>
<path d="M242.773 55.1141L239.795 50.0244L234.705 53.0024L237.683 58.0921L242.773 55.1141Z" fill="#F1375A"/>
<path d="M216.941 45.5731L213.963 40.4834L208.873 43.4614L211.851 48.5511L216.941 45.5731Z" fill="#F1375A"/>
<path d="M239.642 36.2622L243.797 40.4473L247.982 36.2928L243.828 32.1077L239.642 36.2622Z" fill="#F1375A"/>
<path d="M244.091 58.7241L248.246 62.9092L252.431 58.7542L248.276 54.569L244.091 58.7241Z" fill="#F1375A"/>
<path d="M239.526 83.6743L239.715 77.7803L233.821 77.591L233.631 83.485L239.526 83.6743Z" fill="#F1375A"/>
<path d="M209.525 74.5747L208.178 68.834L202.437 70.1814L203.784 75.9222L209.525 74.5747Z" fill="#F1375A"/>
<path d="M207.574 53.4702L206.227 47.7295L200.486 49.077L201.833 54.8177L207.574 53.4702Z" fill="#F1375A"/>
<path d="M176.642 69.3452L176.455 75.2393L182.349 75.4262L182.536 69.5321L176.642 69.3452Z" fill="#F1375A"/>
<path d="M191.538 61.5863L187.02 57.7969L183.23 62.3152L187.748 66.1046L191.538 61.5863Z" fill="#F1375A"/>
<path d="M235.716 21.3197L231.197 17.5303L227.408 22.0486L231.926 25.838L235.716 21.3197Z" fill="#F1375A"/>
<path d="M179.778 57.9369L174.344 55.6465L172.053 61.0806L177.487 63.371L179.778 57.9369Z" fill="#F1375A"/>
<path d="M199.151 38.5658L193.717 36.2754L191.426 41.7095L196.86 43.9999L199.151 38.5658Z" fill="#F1375A"/>
<path d="M177.501 35.1409L173.131 31.1816L169.172 35.5519L173.542 39.5112L177.501 35.1409Z" fill="#F1375A"/>
<path d="M162.292 29.9348L157.922 25.9756L153.963 30.3459L158.333 34.3051L162.292 29.9348Z" fill="#F1375A"/>
<path d="M185.644 35.4741L184.297 29.7334L178.556 31.0809L179.904 36.8216L185.644 35.4741Z" fill="#F1375A"/>
<path d="M169.606 43.5882L165.088 39.7988L161.298 44.3171L165.817 48.1065L169.606 43.5882Z" fill="#F1375A"/>
<path d="M157.842 39.9408L152.408 37.6504L150.118 43.0845L155.552 45.3749L157.842 39.9408Z" fill="#F1375A"/>
<path d="M177.213 20.5707L171.779 18.2803L169.489 23.7144L174.923 26.0048L177.213 20.5707Z" fill="#F1375A"/>
<path d="M248.812 76.296L248.566 70.4043L242.675 70.6502L242.921 76.5419L248.812 76.296Z" fill="#F1375A"/>
<path d="M189.675 114.9L190.078 109.017L184.195 108.614L183.792 114.497L189.675 114.9Z" fill="#F1375A"/>
<path d="M209.476 91.9846L205.105 88.0254L201.146 92.3957L205.516 96.3549L209.476 91.9846Z" fill="#F1375A"/>
<path d="M201.509 110.481L198.531 105.392L193.442 108.37L196.42 113.459L201.509 110.481Z" fill="#F1375A"/>
<path d="M202.593 79.827L199.615 74.7373L194.526 77.7153L197.504 82.805L202.593 79.827Z" fill="#F1375A"/>
<path d="M221.044 108.605L218.066 103.516L212.977 106.494L215.955 111.583L221.044 108.605Z" fill="#F1375A"/>
<path d="M213.906 77.3159L218.061 81.501L222.246 77.3459L218.091 73.1608L213.906 77.3159Z" fill="#F1375A"/>
<path d="M218.556 85.6635L222.711 89.8486L226.896 85.6942L222.742 81.5091L218.556 85.6635Z" fill="#F1375A"/>
<path d="M36.0753 63.426L31.7051 59.4668L27.7458 63.8371L32.1161 67.7963L36.0753 63.426Z" fill="#F1375A"/>
<path d="M18.4582 52.009L14.0879 48.0498L10.1286 52.4201L14.4989 56.3793L18.4582 52.009Z" fill="#F1375A"/>
<path d="M53.8312 76.887L49.4609 72.9277L45.5017 77.298L49.872 81.2573L53.8312 76.887Z" fill="#F1375A"/>
<path d="M58.2866 60.6512L55.3086 55.5615L50.2189 58.5395L53.1969 63.6292L58.2866 60.6512Z" fill="#F1375A"/>
<path d="M58.6596 68.287L55.6816 63.1973L50.5919 66.1753L53.5699 71.2649L58.6596 68.287Z" fill="#F1375A"/>
<path d="M46.0776 43.8963L43.0996 38.8066L38.0099 41.7846L40.9879 46.8743L46.0776 43.8963Z" fill="#F1375A"/>
<path d="M61.7905 53.995L58.8125 48.9053L53.7228 51.8833L56.7008 56.973L61.7905 53.995Z" fill="#F1375A"/>
<path d="M35.9585 44.454L32.9805 39.3643L27.8908 42.3422L30.8688 47.4319L35.9585 44.454Z" fill="#F1375A"/>
<path d="M63.1243 57.6059L67.2793 61.791L71.4644 57.636L67.3094 53.4509L63.1243 57.6059Z" fill="#F1375A"/>
<path d="M262.508 38.377H256.611V44.2739H262.508V38.377Z" fill="#F1375A"/>
<path d="M278.71 46.8492L275.059 51.4795L279.689 55.1309L283.34 50.5006L278.71 46.8492Z" fill="#F1375A"/>
<path d="M284.493 25.1685L280.842 29.7988L285.472 33.4502L289.124 28.8199L284.493 25.1685Z" fill="#F1375A"/>
<path d="M257.789 30.1974L252.914 33.5156L256.232 38.3901L261.107 35.0718L257.789 30.1974Z" fill="#F1375A"/>
<path d="M276.988 12.3003L272.113 15.6191L275.432 20.4936L280.307 17.1748L276.988 12.3003Z" fill="#F1375A"/>
<path d="M276.996 35.8959L271.104 36.1094L271.317 42.0023L277.21 41.7888L276.996 35.8959Z" fill="#F1375A"/>
<path d="M271.173 43.8981L265.537 45.6348L267.274 51.2705L272.91 49.5339L271.173 43.8981Z" fill="#F1375A"/>
<path d="M310.9 76.5344L306.529 72.5752L302.57 76.9455L306.94 80.9047L310.9 76.5344Z" fill="#F1375A"/>
<path d="M293.288 65.1155L288.918 61.1562L284.959 65.5265L289.329 69.4858L293.288 65.1155Z" fill="#F1375A"/>
<path d="M278.081 59.9085L273.711 55.9492L269.752 60.3195L274.122 64.2787L278.081 59.9085Z" fill="#F1375A"/>
<path d="M310.796 57.5458L307.818 52.4561L302.729 55.434L305.707 60.5237L310.796 57.5458Z" fill="#F1375A"/>
<path d="M301.428 65.44L300.08 59.6992L294.339 61.0467L295.687 66.7874L301.428 65.44Z" fill="#F1375A"/>
<path d="M259.028 68.5948L255.557 73.3613L260.323 76.8329L263.795 72.0663L259.028 68.5948Z" fill="#F1375A"/>
<path d="M285.389 73.5648L280.871 69.7754L277.082 74.2937L281.6 78.0831L285.389 73.5648Z" fill="#F1375A"/>
<path d="M273.635 69.9086L268.201 67.6182L265.911 73.0523L271.345 75.3426L273.635 69.9086Z" fill="#F1375A"/>
<path d="M293.004 50.5414L287.57 48.251L285.28 53.6851L290.714 55.9755L293.004 50.5414Z" fill="#F1375A"/>
<path d="M248.261 47.4848L252.416 51.6699L256.601 47.5149L252.446 43.3298L248.261 47.4848Z" fill="#F1375A"/>
<path d="M58.549 82.5454L58.7383 76.6514L52.8442 76.4621L52.6549 82.3561L58.549 82.5454Z" fill="#F1375A"/>
<path d="M28.5486 73.4566L27.2012 67.7158L21.4604 69.0633L22.8079 74.804L28.5486 73.4566Z" fill="#F1375A"/>
<path d="M26.5975 52.3511L25.25 46.6104L19.5093 47.9578L20.8567 53.6985L26.5975 52.3511Z" fill="#F1375A"/>
<path d="M15.4478 35.3832L10.0137 33.0928L7.72328 38.5269L13.1574 40.8173L15.4478 35.3832Z" fill="#F1375A"/>
<path d="M67.8357 75.1749L67.5898 69.2832L61.6981 69.5291L61.9441 75.4208L67.8357 75.1749Z" fill="#F1375A"/>
<path d="M21.6108 78.7079L18.6328 73.6182L13.5431 76.5962L16.5211 81.6859L21.6108 78.7079Z" fill="#F1375A"/>
<path d="M32.9387 76.1977L37.0938 80.3828L41.2789 76.2278L37.1238 72.0427L32.9387 76.1977Z" fill="#F1375A"/>
<path d="M37.5598 84.5297L41.7148 88.7148L45.8999 84.5598L41.7449 80.3747L37.5598 84.5297Z" fill="#F1375A"/>
<path d="M201.397 97.9429L201.586 92.0488L195.692 91.8595L195.503 97.7536L201.397 97.9429Z" fill="#F1375A"/>
<path d="M187.006 104.788L186.76 98.8965L180.868 99.1424L181.114 105.034L187.006 104.788Z" fill="#F1375A"/>
<path d="M193.088 81.5938L192.842 75.7021L186.95 75.9481L187.196 81.8397L193.088 81.5938Z" fill="#F1375A"/>
<path d="M262.214 23.8801L257.844 19.9209L253.885 24.2912L258.255 28.2504L262.214 23.8801Z" fill="#F1375A"/>
<path d="M251.445 3.83537L245.605 4.65918L246.429 10.4984L252.268 9.67458L251.445 3.83537Z" fill="#F1375A"/>
<path d="M254.135 29.8364L254.324 23.9424L248.43 23.7531L248.241 29.6471L254.135 29.8364Z" fill="#F1375A"/>
<path d="M249.466 13.2784L243.922 11.2705L241.914 16.8149L247.458 18.8228L249.466 13.2784Z" fill="#F1375A"/>
<path d="M109.365 45.9629L113.52 50.1475L117.704 45.9924L113.549 41.8079L109.365 45.9629Z" fill="#F1375A"/>
<path d="M112.322 36.9262L116.477 41.1113L120.662 36.9563L116.507 32.7712L112.322 36.9262Z" fill="#F1375A"/>
<path d="M101.431 41.6215L105.586 45.8066L109.771 41.6516L105.616 37.4665L101.431 41.6215Z" fill="#F1375A"/>
<path d="M125.269 30.1479L125.082 36.042L130.976 36.2289L131.163 30.3349L125.269 30.1479Z" fill="#F1375A"/>
<path d="M141.707 42.3946L141.461 36.5029L135.569 36.7488L135.815 42.6405L141.707 42.3946Z" fill="#F1375A"/>
<path d="M139.05 120.172C139.05 121.702 137.81 122.942 136.28 122.942C134.75 122.942 133.51 121.702 133.51 120.172C133.51 118.642 134.75 117.402 136.28 117.402C137.809 117.402 139.05 118.642 139.05 120.172Z" fill="#55D9CC"/>
<path d="M149.823 106.404C149.823 107.934 148.583 109.174 147.053 109.174C145.523 109.174 144.283 107.934 144.283 106.404C144.283 104.874 145.523 103.634 147.053 103.634C148.582 103.633 149.823 104.874 149.823 106.404Z" fill="#55D9CC"/>
<path d="M140.526 97.2348C140.526 98.7648 139.286 100.005 137.756 100.005C136.226 100.005 134.986 98.7648 134.986 97.2348C134.986 95.7048 136.226 94.4648 137.756 94.4648C139.286 94.4648 140.526 95.7048 140.526 97.2348Z" fill="#55D9CC"/>
<path d="M120.882 97.7114C120.882 99.2414 119.642 100.481 118.112 100.481C116.582 100.481 115.342 99.2414 115.342 97.7114C115.342 96.1814 116.582 94.9414 118.112 94.9414C119.642 94.9414 120.882 96.1814 120.882 97.7114Z" fill="#55D9CC"/>
<path d="M123.651 80.8032C123.651 82.3332 122.411 83.5732 120.881 83.5732C119.351 83.5732 118.111 82.3332 118.111 80.8032C118.111 79.2732 119.351 78.0332 120.881 78.0332C122.411 78.0322 123.651 79.2732 123.651 80.8032Z" fill="#55D9CC"/>
<path d="M144.589 72.2309C144.589 73.7609 143.349 75.0009 141.819 75.0009C140.289 75.0009 139.049 73.7609 139.049 72.2309C139.049 70.7009 140.289 69.4609 141.819 69.4609C143.349 69.4609 144.589 70.7009 144.589 72.2309Z" fill="#55D9CC"/>
<path d="M140.526 61.5141C140.526 63.0441 139.286 64.2841 137.756 64.2841C136.226 64.2841 134.986 63.0441 134.986 61.5141C134.986 59.9841 136.226 58.7441 137.756 58.7441C139.286 58.7431 140.526 59.9841 140.526 61.5141Z" fill="#55D9CC"/>
<path d="M115.341 47.3442C115.341 48.8742 114.101 50.1142 112.571 50.1142C111.041 50.1142 109.801 48.8742 109.801 47.3442C109.801 45.8142 111.041 44.5742 112.571 44.5742C114.101 44.5742 115.341 45.8142 115.341 47.3442Z" fill="#55D9CC"/>
<path d="M112.569 54.9653C112.569 56.4953 111.329 57.7353 109.799 57.7353C108.269 57.7353 107.029 56.4953 107.029 54.9653C107.029 53.4353 108.269 52.1953 109.799 52.1953C111.329 52.1953 112.569 53.4353 112.569 54.9653Z" fill="#55D9CC"/>
<path d="M90.456 43.9858C90.456 45.5158 89.216 46.7558 87.686 46.7558C86.156 46.7558 84.916 45.5158 84.916 43.9858C84.916 42.4558 86.156 41.2158 87.686 41.2158C89.216 41.2158 90.456 42.4558 90.456 43.9858Z" fill="#55D9CC"/>
<path d="M84.3838 50.7973C84.3838 52.3273 83.1438 53.5673 81.6138 53.5673C80.0838 53.5673 78.8438 52.3273 78.8438 50.7973C78.8438 49.2673 80.0838 48.0273 81.6138 48.0273C83.1438 48.0273 84.3838 49.2673 84.3838 50.7973Z" fill="#55D9CC"/>
<path d="M159.116 76.7544C159.116 78.2844 157.876 79.5244 156.346 79.5244C154.816 79.5244 153.576 78.2844 153.576 76.7544C153.576 75.2244 154.816 73.9844 156.346 73.9844C157.876 73.9844 159.116 75.2244 159.116 76.7544Z" fill="#55D9CC"/>
<path d="M153.575 82.9467C153.575 84.4767 152.335 85.7168 150.805 85.7168C149.275 85.7168 148.035 84.4767 148.035 82.9467C148.035 81.4167 149.275 80.1768 150.805 80.1768C152.335 80.1768 153.575 81.4167 153.575 82.9467Z" fill="#55D9CC"/>
<path d="M94.581 91.0864C94.581 92.6164 93.341 93.8564 91.811 93.8564C90.281 93.8564 89.041 92.6164 89.041 91.0864C89.041 89.5564 90.281 88.3164 91.811 88.3164C93.341 88.3164 94.581 89.5564 94.581 91.0864Z" fill="#55D9CC"/>
<path d="M71.9521 100.863C71.9521 102.393 70.7121 103.633 69.1821 103.633C67.6521 103.633 66.4121 102.393 66.4121 100.863C66.4121 99.3328 67.6521 98.0928 69.1821 98.0928C70.7121 98.0928 71.9521 99.3328 71.9521 100.863Z" fill="#55D9CC"/>
<path d="M100.866 70.3477C102.234 69.6637 103.899 70.2177 104.583 71.5867C105.267 72.9547 104.713 74.6197 103.344 75.3037C101.976 75.9877 100.311 75.4337 99.6275 74.0647C98.9425 72.6967 99.4975 71.0327 100.866 70.3477Z" fill="#55D9CC"/>
<path d="M62.4016 44.2774C63.7696 43.5934 65.4346 44.1474 66.1186 45.5164C66.8026 46.8844 66.2486 48.5494 64.8796 49.2334C63.5116 49.9174 61.8466 49.3634 61.1626 47.9944C60.4776 46.6264 61.0326 44.9624 62.4016 44.2774Z" fill="#55D9CC"/>
<path d="M62.4016 59.0362C63.7696 58.3522 65.4346 58.9062 66.1186 60.2752C66.8026 61.6432 66.2486 63.3082 64.8796 63.9922C63.5116 64.6762 61.8466 64.1222 61.1626 62.7532C60.4776 61.3842 61.0326 59.7202 62.4016 59.0362Z" fill="#55D9CC"/>
<path d="M46.4225 45.5497C47.7905 44.8657 49.4555 45.4207 50.1395 46.7887C50.8235 48.1567 50.2695 49.8207 48.9005 50.5057C47.5325 51.1897 45.8675 50.6357 45.1835 49.2667C44.4995 47.8987 45.0545 46.2337 46.4225 45.5497Z" fill="#55D9CC"/>
<path d="M46.4225 52.4874C47.7905 51.8034 49.4555 52.3574 50.1395 53.7264C50.8235 55.0944 50.2695 56.7594 48.9005 57.4434C47.5325 58.1274 45.8675 57.5734 45.1835 56.2044C44.4995 54.8354 45.0545 53.1714 46.4225 52.4874Z" fill="#55D9CC"/>
<path d="M36.7786 66.1807C38.1466 65.4967 39.8116 66.0507 40.4956 67.4197C41.1796 68.7877 40.6256 70.4527 39.2566 71.1367C37.8886 71.8207 36.2236 71.2667 35.5396 69.8977C34.8546 68.5287 35.4096 66.8647 36.7786 66.1807Z" fill="#55D9CC"/>
<path d="M65.1731 74.2774C66.5411 73.5934 68.2061 74.1474 68.8901 75.5164C69.5741 76.8844 69.0201 78.5494 67.6511 79.2334C66.2831 79.9174 64.6181 79.3634 63.9341 77.9944C63.2491 76.6254 63.8041 74.9614 65.1731 74.2774Z" fill="#55D9CC"/>
<path d="M93.3405 75.5557C94.7085 74.8717 96.3735 75.4257 97.0575 76.7947C97.7415 78.1627 97.1875 79.8277 95.8185 80.5117C94.4505 81.1957 92.7855 80.6417 92.1015 79.2727C91.4175 77.9037 91.9725 76.2397 93.3405 75.5557Z" fill="#55D9CC"/>
<path d="M134.987 52.0517C136.517 52.0517 137.757 50.8115 137.757 49.2817C137.757 47.7519 136.517 46.5117 134.987 46.5117C133.457 46.5117 132.217 47.7519 132.217 49.2817C132.217 50.8115 133.457 52.0517 134.987 52.0517Z" fill="#55D9CC"/>
<path d="M281.587 22.0522C281.587 23.5822 280.347 24.8222 278.817 24.8222C277.287 24.8222 276.047 23.5822 276.047 22.0522C276.047 20.5222 277.287 19.2822 278.817 19.2822C280.347 19.2822 281.587 20.5222 281.587 22.0522Z" fill="#55D9CC"/>
<path d="M277.688 15.6225C277.688 17.1525 276.448 18.3925 274.918 18.3925C273.388 18.3925 272.148 17.1525 272.148 15.6225C272.148 14.0925 273.388 12.8525 274.918 12.8525C276.448 12.8525 277.688 14.0925 277.688 15.6225Z" fill="#55D9CC"/>
<path d="M248.618 25.9067C248.618 27.4367 247.378 28.6767 245.848 28.6767C244.318 28.6767 243.078 27.4367 243.078 25.9067C243.078 24.3767 244.318 23.1367 245.848 23.1367C247.377 23.1357 248.618 24.3767 248.618 25.9067Z" fill="#55D9CC"/>
<path d="M254.903 5.16787C256.271 4.48387 257.936 5.03887 258.62 6.40687C259.304 7.77487 258.75 9.43987 257.381 10.1239C256.013 10.8079 254.348 10.2539 253.664 8.88487C252.98 7.51587 253.534 5.85187 254.903 5.16787Z" fill="#55D9CC"/>
<path d="M243.077 32.0972C243.077 33.6272 241.837 34.8671 240.307 34.8671C238.777 34.8671 237.537 33.6272 237.537 32.0972C237.537 30.5672 238.777 29.3271 240.307 29.3271C241.837 29.3271 243.077 30.5672 243.077 32.0972Z" fill="#55D9CC"/>
<path d="M51.9462 76.7544C51.9462 78.2844 50.7063 79.5244 49.1763 79.5244C47.6463 79.5244 46.4062 78.2844 46.4062 76.7544C46.4062 75.2244 47.6463 73.9844 49.1763 73.9844C50.7053 73.9844 51.9462 75.2244 51.9462 76.7544Z" fill="#55D9CC"/>
<path d="M57.4853 90.3286C57.4853 91.8586 56.2453 93.0986 54.7153 93.0986C53.1853 93.0986 51.9453 91.8586 51.9453 90.3286C51.9453 88.7986 53.1853 87.5586 54.7153 87.5586C56.2453 87.5586 57.4853 88.7986 57.4853 90.3286Z" fill="#55D9CC"/>
<path d="M229.27 35.8452C229.27 37.3752 228.03 38.6152 226.5 38.6152C224.97 38.6152 223.73 37.3752 223.73 35.8452C223.73 34.3152 224.97 33.0752 226.5 33.0752C228.03 33.0752 229.27 34.3152 229.27 35.8452Z" fill="#55D9CC"/>
<path d="M223.198 42.6587C223.198 44.1887 221.958 45.4287 220.428 45.4287C218.898 45.4287 217.658 44.1887 217.658 42.6587C217.658 41.1287 218.898 39.8887 220.428 39.8887C221.958 39.8877 223.198 41.1287 223.198 42.6587Z" fill="#55D9CC"/>
<path d="M233.395 82.9477C233.395 84.4777 232.155 85.7177 230.625 85.7177C229.095 85.7177 227.855 84.4777 227.855 82.9477C227.855 81.4177 229.095 80.1777 230.625 80.1777C232.155 80.1767 233.395 81.4177 233.395 82.9477Z" fill="#55D9CC"/>
<path d="M210.767 92.7221C210.767 94.2521 209.527 95.4921 207.997 95.4921C206.467 95.4921 205.227 94.2521 205.227 92.7221C205.227 91.1921 206.467 89.9521 207.997 89.9521C209.527 89.9521 210.767 91.1921 210.767 92.7221Z" fill="#55D9CC"/>
<path d="M239.68 62.2089C241.048 61.5249 242.713 62.0799 243.397 63.4479C244.081 64.8159 243.527 66.4809 242.158 67.1649C240.79 67.8489 239.125 67.2939 238.441 65.9259C237.757 64.5579 238.312 62.8929 239.68 62.2089Z" fill="#55D9CC"/>
<path d="M196.301 43.4014C197.669 42.7174 199.334 43.2714 200.018 44.6404C200.702 46.0084 200.147 47.6734 198.779 48.3574C197.411 49.0414 195.746 48.4874 195.062 47.1184C194.378 45.7494 194.933 44.0854 196.301 43.4014Z" fill="#55D9CC"/>
<path d="M201.215 50.8964C202.583 50.2124 204.248 50.7674 204.932 52.1354C205.616 53.5034 205.062 55.1674 203.693 55.8524C202.325 56.5364 200.66 55.9824 199.976 54.6134C199.292 53.2444 199.847 51.5804 201.215 50.8964Z" fill="#55D9CC"/>
<path d="M78.7233 31.8028C80.0913 31.1188 81.7563 31.6728 82.4403 33.0418C83.1243 34.4098 82.5703 36.0748 81.2013 36.7588C79.8323 37.4428 78.1683 36.8888 77.4843 35.5198C76.8003 34.1508 77.3553 32.4868 78.7233 31.8028Z" fill="#55D9CC"/>
<path d="M152.649 53.5323C154.017 52.8483 155.682 53.4023 156.366 54.7713C157.05 56.1403 156.496 57.8043 155.127 58.4883C153.759 59.1723 152.094 58.6183 151.41 57.2493C150.726 55.8813 151.28 54.2173 152.649 53.5323Z" fill="#55D9CC"/>
<path d="M119.642 24.0089C121.01 23.3249 122.675 23.8789 123.359 25.2479C124.043 26.6159 123.489 28.2809 122.12 28.9649C120.752 29.6489 119.087 29.0949 118.403 27.7259C117.718 26.3569 118.273 24.6929 119.642 24.0089Z" fill="#55D9CC"/>
<path d="M157.563 61.0274C158.931 60.3434 160.596 60.8974 161.28 62.2664C161.964 63.6354 161.41 65.2994 160.041 65.9834C158.673 66.6674 157.008 66.1134 156.324 64.7444C155.64 63.3764 156.195 61.7124 157.563 61.0274Z" fill="#55D9CC"/>
<path d="M185.237 37.4102C186.605 36.7262 188.27 37.2802 188.954 38.6492C189.638 40.0172 189.084 41.6822 187.715 42.3662C186.347 43.0502 184.682 42.4962 183.998 41.1272C183.314 39.7582 183.868 38.0942 185.237 37.4102Z" fill="#55D9CC"/>
<path d="M185.237 44.3477C186.605 43.6637 188.27 44.2177 188.954 45.5867C189.638 46.9547 189.084 48.6197 187.715 49.3037C186.347 49.9877 184.682 49.4337 183.998 48.0647C183.314 46.6967 183.868 45.0327 185.237 44.3477Z" fill="#55D9CC"/>
<path d="M56.4635 14.9014C57.8315 14.2174 59.4965 14.7714 60.1805 16.1404C60.8645 17.5084 60.3105 19.1734 58.9415 19.8574C57.5735 20.5414 55.9085 19.9864 55.2245 18.6184C54.5405 17.2504 55.0955 15.5864 56.4635 14.9014Z" fill="#55D9CC"/>
<path d="M51.5494 22.1641C52.9174 21.4801 54.5825 22.0341 55.2665 23.4031C55.9505 24.7711 55.3965 26.4361 54.0275 27.1201C52.6595 27.8041 50.9944 27.2501 50.3104 25.8811C49.6264 24.5131 50.1814 22.8481 51.5494 22.1641Z" fill="#55D9CC"/>
<path d="M40.4852 16.1739C41.8532 15.4899 43.5172 16.0439 44.2022 17.4129C44.8862 18.7809 44.3322 20.4459 42.9632 21.1299C41.5952 21.8139 39.9302 21.2599 39.2462 19.8909C38.5622 18.5219 39.1162 16.8579 40.4852 16.1739Z" fill="#55D9CC"/>
<path d="M40.4852 23.1114C41.8532 22.4274 43.5172 22.9814 44.2022 24.3504C44.8862 25.7184 44.3322 27.3834 42.9632 28.0674C41.5952 28.7514 39.9302 28.1974 39.2462 26.8284C38.5622 25.4594 39.1162 23.7954 40.4852 23.1114Z" fill="#55D9CC"/>
<path d="M30.8405 36.8046C32.2085 36.1206 33.8735 36.6756 34.5575 38.0436C35.2415 39.4116 34.6875 41.0756 33.3185 41.7606C31.9505 42.4446 30.2855 41.8906 29.6015 40.5216C28.9175 39.1526 29.4725 37.4886 30.8405 36.8046Z" fill="#55D9CC"/>
<path d="M223.844 55.1563C225.212 54.4723 226.877 55.0263 227.561 56.3953C228.245 57.7633 227.691 59.4283 226.322 60.1123C224.953 60.7963 223.289 60.2423 222.605 58.8733C221.921 57.5053 222.476 55.8413 223.844 55.1563Z" fill="#55D9CC"/>
<path d="M232.157 67.4161C233.525 66.7321 235.19 67.2861 235.874 68.6551C236.558 70.0231 236.003 71.6881 234.635 72.3721C233.266 73.0561 231.602 72.5021 230.918 71.1331C230.234 69.7641 230.789 68.1001 232.157 67.4161Z" fill="#55D9CC"/>
<path d="M218.291 82.3597C217.526 83.6847 215.832 84.1387 214.507 83.3737C213.182 82.6087 212.728 80.9147 213.493 79.5897C214.258 78.2647 215.952 77.8107 217.277 78.5757C218.602 79.3407 219.056 81.0347 218.291 82.3597Z" fill="#55D9CC"/>
<path d="M176.833 69.1343C176.833 70.6643 175.593 71.9043 174.063 71.9043C172.533 71.9043 171.293 70.6643 171.293 69.1343C171.293 67.6043 172.533 66.3643 174.063 66.3643C175.593 66.3643 176.833 67.6043 176.833 69.1343Z" fill="#55D9CC"/>
<path d="M171.292 75.3266C171.292 76.8566 170.052 78.0966 168.522 78.0966C166.992 78.0966 165.752 76.8566 165.752 75.3266C165.752 73.7966 166.992 72.5566 168.522 72.5566C170.051 72.5556 171.292 73.7966 171.292 75.3266Z" fill="#55D9CC"/>
<path d="M190.761 68.6157C190.761 70.1457 189.521 71.3857 187.991 71.3857C186.461 71.3857 185.221 70.1457 185.221 68.6157C185.221 67.0857 186.461 65.8457 187.991 65.8457C189.521 65.8457 190.761 67.0857 190.761 68.6157Z" fill="#55D9CC"/>
<path d="M208.747 22.0522C208.747 23.5822 207.507 24.8222 205.977 24.8222C204.447 24.8222 203.207 23.5822 203.207 22.0522C203.207 20.5222 204.447 19.2822 205.977 19.2822C207.507 19.2822 208.747 20.5222 208.747 22.0522Z" fill="#55D9CC"/>
<path d="M33.479 72.709C35.0088 72.709 36.249 71.4688 36.249 69.9389C36.249 68.4091 35.0088 67.1689 33.479 67.1689C31.9492 67.1689 30.709 68.4091 30.709 69.9389C30.709 71.4688 31.9492 72.709 33.479 72.709Z" fill="#55D9CC"/>
<path d="M26.6045 58.896C26.6045 60.426 25.3645 61.666 23.8345 61.666C22.3045 61.666 21.0645 60.426 21.0645 58.896C21.0645 57.366 22.3045 56.126 23.8345 56.126C25.3645 56.126 26.6045 57.366 26.6045 58.896Z" fill="#55D9CC"/>
<path d="M21.0634 65.0874C21.0634 66.6174 19.8234 67.8574 18.2934 67.8574C16.7634 67.8574 15.5234 66.6174 15.5234 65.0874C15.5234 63.5574 16.7634 62.3174 18.2934 62.3174C19.8234 62.3174 21.0634 63.5574 21.0634 65.0874Z" fill="#55D9CC"/>
<path d="M40.5322 58.3764C40.5322 59.9064 39.2922 61.1464 37.7622 61.1464C36.2322 61.1464 34.9922 59.9064 34.9922 58.3764C34.9922 56.8464 36.2322 55.6064 37.7622 55.6064C39.2922 55.6064 40.5322 56.8464 40.5322 58.3764Z" fill="#55D9CC"/>
<path d="M196.302 82.1899C196.302 83.7199 195.062 84.9599 193.532 84.9599C192.002 84.9599 190.762 83.7199 190.762 82.1899C190.762 80.6599 192.002 79.4199 193.532 79.4199C195.062 79.4199 196.302 80.6599 196.302 82.1899Z" fill="#55D9CC"/>
<path d="M108.567 107.106C108.567 108.636 107.327 109.876 105.797 109.876C104.267 109.876 103.027 108.636 103.027 107.106C103.027 105.576 104.267 104.336 105.797 104.336C107.327 104.336 108.567 105.576 108.567 107.106Z" fill="#55D9CC"/>
<path d="M170.96 86.3442C170.96 87.8742 169.72 89.1142 168.19 89.1142C166.66 89.1142 165.42 87.8742 165.42 86.3442C165.42 84.8142 166.66 83.5742 168.19 83.5742C169.72 83.5742 170.96 84.8142 170.96 86.3442Z" fill="#55D9CC"/>
<path d="M252.743 58.5063C252.743 60.0363 251.503 61.2763 249.973 61.2763C248.443 61.2763 247.203 60.0363 247.203 58.5063C247.203 56.9763 248.443 55.7363 249.973 55.7363C251.502 55.7353 252.743 56.9763 252.743 58.5063Z" fill="#55D9CC"/>
<path d="M267.269 63.0307C267.269 64.5607 266.029 65.8007 264.499 65.8007C262.969 65.8007 261.729 64.5607 261.729 63.0307C261.729 61.5007 262.969 60.2607 264.499 60.2607C266.029 60.2607 267.269 61.5007 267.269 63.0307Z" fill="#55D9CC"/>
<path d="M261.728 69.2221C261.728 70.7521 260.487 71.9921 258.957 71.9921C257.427 71.9921 256.188 70.7521 256.188 69.2221C256.188 67.6921 257.427 66.4521 258.957 66.4521C260.487 66.4521 261.728 67.6921 261.728 69.2221Z" fill="#55D9CC"/>
<path d="M266.015 76.2798C266.015 77.8098 264.775 79.0498 263.245 79.0498C261.715 79.0498 260.475 77.8098 260.475 76.2798C260.475 74.7498 261.715 73.5098 263.245 73.5098C264.775 73.5098 266.015 74.7498 266.015 76.2798Z" fill="#55D9CC"/>
<path d="M284.985 55.4106C284.985 56.9406 283.745 58.1806 282.215 58.1806C280.685 58.1806 279.445 56.9406 279.445 55.4106C279.445 53.8806 280.685 52.6406 282.215 52.6406C283.745 52.6406 284.985 53.8806 284.985 55.4106Z" fill="#55D9CC"/>
<path d="M279.444 61.603C279.444 63.133 278.204 64.373 276.674 64.373C275.144 64.373 273.904 63.133 273.904 61.603C273.904 60.073 275.144 58.833 276.674 58.833C278.203 58.832 279.444 60.073 279.444 61.603Z" fill="#55D9CC"/>
<path d="M165.419 103.632C165.419 105.162 164.179 106.402 162.649 106.402C161.119 106.402 159.879 105.162 159.879 103.632C159.879 102.102 161.119 100.862 162.649 100.862C164.179 100.862 165.419 102.102 165.419 103.632Z" fill="#55D9CC"/>
<path d="M186.97 111.373C186.97 112.903 185.73 114.143 184.2 114.143C182.67 114.143 181.43 112.903 181.43 111.373C181.43 109.843 182.67 108.603 184.2 108.603C185.73 108.602 186.97 109.843 186.97 111.373Z" fill="#55D9CC"/>
<path d="M205.782 90.0034C205.782 91.5334 204.542 92.7734 203.012 92.7734C201.482 92.7734 200.242 91.5334 200.242 90.0034C200.242 88.4734 201.482 87.2334 203.012 87.2334C204.542 87.2334 205.782 88.4734 205.782 90.0034Z" fill="#55D9CC"/>
<path d="M205.782 108.602C205.782 110.132 204.542 111.372 203.012 111.372C201.482 111.372 200.242 110.132 200.242 108.602C200.242 107.072 201.482 105.832 203.012 105.832C204.542 105.832 205.782 107.072 205.782 108.602Z" fill="#55D9CC"/>
<path d="M195.544 91.0981C195.544 92.6281 194.304 93.8681 192.774 93.8681C191.244 93.8681 190.004 92.6281 190.004 91.0981C190.004 89.5681 191.244 88.3281 192.774 88.3281C194.304 88.3281 195.544 89.5681 195.544 91.0981Z" fill="#55D9CC"/>
<path d="M295.03 41.3989C295.03 42.9289 293.79 44.1689 292.26 44.1689C290.73 44.1689 289.49 42.9289 289.49 41.3989C289.49 39.8689 290.73 38.6289 292.26 38.6289C293.79 38.6289 295.03 39.8689 295.03 41.3989Z" fill="#55D9CC"/>
<path d="M300.569 54.9722C300.569 56.5022 299.329 57.7421 297.799 57.7421C296.269 57.7421 295.029 56.5022 295.029 54.9722C295.029 53.4422 296.269 52.2021 297.799 52.2021C299.329 52.2021 300.569 53.4422 300.569 54.9722Z" fill="#55D9CC"/>
<path d="M310.054 62.7866C310.054 64.3166 308.814 65.5566 307.284 65.5566C305.754 65.5566 304.514 64.3166 304.514 62.7866C304.514 61.2566 305.754 60.0166 307.284 60.0166C308.813 60.0166 310.054 61.2566 310.054 62.7866Z" fill="#55D9CC"/>
<path d="M299.811 63.8823C299.811 65.4123 298.571 66.6523 297.041 66.6523C295.511 66.6523 294.271 65.4123 294.271 63.8823C294.271 62.3523 295.511 61.1123 297.041 61.1123C298.571 61.1123 299.811 62.3523 299.811 63.8823Z" fill="#55D9CC"/>
<path d="M176.71 113.242L171.111 115.892L175.471 119.312L176.71 113.242Z" fill="#F5A404"/>
<path d="M176.09 122.614L181.57 125.503L181.689 119.964L176.09 122.614Z" fill="#F5A404"/>
<path d="M147.91 95.8926L142.311 98.5426L146.671 101.962L147.91 95.8926Z" fill="#F5A404"/>
<path d="M116.107 70.415L110.508 73.065L114.868 76.484L116.107 70.415Z" fill="#F5A404"/>
<path d="M136.856 113.074L131.256 115.724L135.616 119.144L136.856 113.074Z" fill="#F5A404"/>
<path d="M148.184 107.994L153.663 110.883L153.783 105.343L148.184 107.994Z" fill="#F5A404"/>
<path d="M167.102 108.807L172.272 105.393L167.473 102.623L167.102 108.807Z" fill="#F5A404"/>
<path d="M159.667 107.859L160.906 101.79L155.555 103.226L159.667 107.859Z" fill="#F5A404"/>
<path d="M176.075 96.7646L172.455 101.792L177.925 102.677L176.075 96.7646Z" fill="#F5A404"/>
<path d="M118.83 53.4828L123.999 50.0698L119.201 47.2998L118.83 53.4828Z" fill="#F5A404"/>
<path d="M127.803 41.4404L124.184 46.4684L129.653 47.3524L127.803 41.4404Z" fill="#F5A404"/>
<path d="M172.589 77.7129L166.99 80.3629L171.35 83.7819L172.589 77.7129Z" fill="#F5A404"/>
<path d="M171.969 87.0836L177.449 89.9726L177.568 84.4336L171.969 87.0836Z" fill="#F5A404"/>
<path d="M157.09 74.6088L162.259 71.1958L157.461 68.4258L157.09 74.6088Z" fill="#F5A404"/>
<path d="M166.061 62.5674L162.441 67.5944L167.911 68.4784L166.061 62.5674Z" fill="#F5A404"/>
<path d="M176.197 61.873L170.598 64.523L174.957 67.942L176.197 61.873Z" fill="#F5A404"/>
<path d="M147.396 44.5215L141.797 47.1715L146.156 50.5915L147.396 44.5215Z" fill="#F5A404"/>
<path d="M147.668 56.6227L153.148 59.5117L153.267 53.9727L147.668 56.6227Z" fill="#F5A404"/>
<path d="M166.588 57.436L171.757 54.0229L166.959 51.252L166.588 57.436Z" fill="#F5A404"/>
<path d="M159.153 56.4889L160.392 50.4189L155.041 51.8559L159.153 56.4889Z" fill="#F5A404"/>
<path d="M175.56 45.3936L171.941 50.4216L177.41 51.3056L175.56 45.3936Z" fill="#F5A404"/>
<path d="M139.949 76.394L145.118 72.981L140.32 70.21L139.949 76.394Z" fill="#F5A404"/>
<path d="M138.71 56.9508L139.95 50.8818L134.598 52.3178L138.71 56.9508Z" fill="#F5A404"/>
<path d="M151.074 62.0576L147.455 67.0846L152.924 67.9696L151.074 62.0576Z" fill="#F5A404"/>
<path d="M129.15 77.9258L123.551 80.5758L127.911 83.9948L129.15 77.9258Z" fill="#F5A404"/>
<path d="M129.424 90.027L134.904 92.916L135.023 87.376L129.424 90.027Z" fill="#F5A404"/>
<path d="M148.344 90.8393L153.513 87.4253L148.715 84.6553L148.344 90.8393Z" fill="#F5A404"/>
<path d="M140.907 89.8923L142.146 83.8223L136.795 85.2583L140.907 89.8923Z" fill="#F5A404"/>
<path d="M121.443 108.593L115.266 108.124L117.362 113.253L121.443 108.593Z" fill="#F5A404"/>
<path d="M110.116 120.598L103.939 120.129L106.035 125.258L110.116 120.598Z" fill="#F5A404"/>
<path d="M105.211 87.6418L99.0352 87.1729L101.13 92.3018L105.211 87.6418Z" fill="#F5A404"/>
<path d="M108.283 94.3438L111.614 99.5668L114.46 94.8128L108.283 94.3438Z" fill="#F5A404"/>
<path d="M124.32 104.416L130.501 104.009L127.704 99.2266L124.32 104.416Z" fill="#F5A404"/>
<path d="M118.329 99.9126L122.41 95.2516L117.049 93.8516L118.329 99.9126Z" fill="#F5A404"/>
<path d="M157.315 78.7979L153.695 83.8248L159.165 84.7098L157.315 78.7979Z" fill="#F5A404"/>
<path d="M187.035 84.2514L192.204 80.8384L187.406 78.0684L187.035 84.2514Z" fill="#F5A404"/>
<path d="M196.008 72.2109L192.389 77.2379L197.858 78.1229L196.008 72.2109Z" fill="#F5A404"/>
<path d="M233.97 77.8457L228.371 80.4957L232.731 83.9157L233.97 77.8457Z" fill="#F5A404"/>
<path d="M233.352 87.2164L238.831 90.1054L238.951 84.5664L233.352 87.2164Z" fill="#F5A404"/>
<path d="M205.171 60.4951L199.572 63.1451L203.932 66.5641L205.171 60.4951Z" fill="#F5A404"/>
<path d="M205.443 72.5963L210.923 75.4853L211.042 69.9453L205.443 72.5963Z" fill="#F5A404"/>
<path d="M224.363 73.4096L229.532 69.9956L224.734 67.2256L224.363 73.4096Z" fill="#F5A404"/>
<path d="M216.928 72.4616L218.168 66.3926L212.816 67.8286L216.928 72.4616Z" fill="#F5A404"/>
<path d="M233.336 61.3672L229.717 66.3942L235.186 67.2792L233.336 61.3672Z" fill="#F5A404"/>
<path d="M186.411 42.5283L180.812 45.1783L185.172 48.5973L186.411 42.5283Z" fill="#F5A404"/>
<path d="M186.684 54.6295L192.164 57.5185L192.284 51.9785L186.684 54.6295Z" fill="#F5A404"/>
<path d="M205.604 55.4418L210.774 52.0288L205.975 49.2588L205.604 55.4418Z" fill="#F5A404"/>
<path d="M198.169 54.4948L199.408 48.4258L194.057 49.8618L198.169 54.4948Z" fill="#F5A404"/>
<path d="M214.576 43.4004L210.957 48.4274L216.426 49.3124L214.576 43.4004Z" fill="#F5A404"/>
<path d="M69.2904 54.833L63.6914 57.483L68.0514 60.902L69.2904 54.833Z" fill="#F5A404"/>
<path d="M52.5566 77.3432L57.7266 73.9302L52.9276 71.1592L52.5566 77.3432Z" fill="#F5A404"/>
<path d="M82.7572 52.3066L77.1582 54.9576L81.5182 58.3766L82.7572 52.3066Z" fill="#F5A404"/>
<path d="M63.9974 34.3408L58.3984 36.9908L62.7584 40.4098L63.9974 34.3408Z" fill="#F5A404"/>
<path d="M64.2695 46.442L69.7495 49.331L69.8685 43.791L64.2695 46.442Z" fill="#F5A404"/>
<path d="M83.1895 47.2533L88.3585 43.8403L83.5605 41.0703L83.1895 47.2533Z" fill="#F5A404"/>
<path d="M92.162 35.2129L88.543 40.2399L94.012 41.1249L92.162 35.2129Z" fill="#F5A404"/>
<path d="M55.1164 87.123L51.1074 91.845L56.4894 93.164L55.1164 87.123Z" fill="#F5A404"/>
<path d="M87.3162 65.413L85.9442 59.373L81.6602 62.887L87.3162 65.413Z" fill="#F5A404"/>
<path d="M75.4445 63.0537L71.4355 67.7757L76.8166 69.0937L75.4445 63.0537Z" fill="#F5A404"/>
<path d="M70.5449 81.3457L72.7549 87.1327L76.5009 83.0497L70.5449 81.3457Z" fill="#F5A404"/>
<path d="M112.46 59.2549L106.861 61.9049L111.221 65.3239L112.46 59.2549Z" fill="#F5A404"/>
<path d="M73.084 74.2922L78.74 76.8192L78.499 71.2842L73.084 74.2922Z" fill="#F5A404"/>
<path d="M80.3527 92.7178L76.2307 88.0928L74.1797 93.2408L80.3527 92.7178Z" fill="#F5A404"/>
<path d="M108.926 50.999L107.553 44.959L103.27 48.473L108.926 50.999Z" fill="#F5A404"/>
<path d="M97.0549 48.6396L93.0449 53.3616L98.4269 54.6796L97.0549 48.6396Z" fill="#F5A404"/>
<path d="M94.6934 59.8791L100.349 62.4051L100.108 56.8701L94.6934 59.8791Z" fill="#F5A404"/>
<path d="M101.964 78.3037L97.842 73.6797L95.791 78.8267L101.964 78.3037Z" fill="#F5A404"/>
<path d="M120.287 20.9111L114.688 23.5611L119.048 26.9801L120.287 20.9111Z" fill="#F5A404"/>
<path d="M176.771 28.21L171.172 30.86L175.532 34.28L176.771 28.21Z" fill="#F5A404"/>
<path d="M161.27 25.1059L166.439 21.6929L161.641 18.9229L161.27 25.1059Z" fill="#F5A404"/>
<path d="M179.756 21.7408L185.236 24.6298L185.355 19.0908L179.756 21.7408Z" fill="#F5A404"/>
<path d="M144.131 26.891L149.3 23.478L144.502 20.708L144.131 26.891Z" fill="#F5A404"/>
<path d="M133.33 28.4229L127.73 31.0729L132.09 34.4919L133.33 28.4229Z" fill="#F5A404"/>
<path d="M133.604 40.524L139.084 43.413L139.203 37.874L133.604 40.524Z" fill="#F5A404"/>
<path d="M152.523 41.3363L157.692 37.9233L152.894 35.1523L152.523 41.3363Z" fill="#F5A404"/>
<path d="M109.391 38.1389L103.215 37.6699L105.31 42.7999L109.391 38.1389Z" fill="#F5A404"/>
<path d="M161.496 29.2949L157.877 34.3219L163.346 35.2069L161.496 29.2949Z" fill="#F5A404"/>
<path d="M191.217 34.7494L196.386 31.3354L191.588 28.5654L191.217 34.7494Z" fill="#F5A404"/>
<path d="M200.188 22.708L196.568 27.735L202.038 28.62L200.188 22.708Z" fill="#F5A404"/>
<path d="M238.152 28.3428L232.553 30.9938L236.912 34.4128L238.152 28.3428Z" fill="#F5A404"/>
<path d="M237.531 37.7135L243.01 40.6035L243.13 35.0635L237.531 37.7135Z" fill="#F5A404"/>
<path d="M209.625 23.0934L215.105 25.9824L215.224 20.4424L209.625 23.0934Z" fill="#F5A404"/>
<path d="M245.929 56.0889L240.33 58.7389L244.689 62.1579L245.929 56.0889Z" fill="#F5A404"/>
<path d="M245.309 65.4596L250.789 68.3486L250.908 62.8096L245.309 65.4596Z" fill="#F5A404"/>
<path d="M245.293 39.6104L241.674 44.6374L247.143 45.5223L245.293 39.6104Z" fill="#F5A404"/>
<path d="M256.77 78.4682L261.939 75.0542L257.141 72.2842L256.77 78.4682Z" fill="#F5A404"/>
<path d="M265.74 66.4268L262.121 71.4538L267.59 72.3388L265.74 66.4268Z" fill="#F5A404"/>
<path d="M274.905 54.7119L269.305 57.3619L273.665 60.7809L274.905 54.7119Z" fill="#F5A404"/>
<path d="M275.178 66.8121L280.658 69.7011L280.777 64.1621L275.178 66.8121Z" fill="#F5A404"/>
<path d="M256.146 36.7441L250.547 39.3941L254.907 42.8141L256.146 36.7441Z" fill="#F5A404"/>
<path d="M256.418 48.8453L261.898 51.7343L262.018 46.1953L256.418 48.8453Z" fill="#F5A404"/>
<path d="M275.338 49.6586L280.508 46.2456L275.709 43.4746L275.338 49.6586Z" fill="#F5A404"/>
<path d="M267.901 48.7116L269.14 42.6416L263.789 44.0786L267.901 48.7116Z" fill="#F5A404"/>
<path d="M246.503 22.4268L240.904 25.0768L245.264 28.4958L246.503 22.4268Z" fill="#F5A404"/>
<path d="M249.488 15.9566L254.968 18.8456L255.087 13.3066L249.488 15.9566Z" fill="#F5A404"/>
<path d="M260.949 28.9652L266.118 25.5523L261.32 22.7812L260.949 28.9652Z" fill="#F5A404"/>
<path d="M269.922 16.9238L266.303 21.9518L271.772 22.8358L269.922 16.9238Z" fill="#F5A404"/>
<path d="M279.357 17.3092L284.837 20.1982L284.956 14.6592L279.357 17.3092Z" fill="#F5A404"/>
<path d="M22.4238 81.5063L27.5938 78.0923L22.7948 75.3223L22.4238 81.5063Z" fill="#F5A404"/>
<path d="M31.3973 69.4648L27.7773 74.4919L33.2473 75.3768L31.3973 69.4648Z" fill="#F5A404"/>
<path d="M40.5599 57.75L34.9609 60.4L39.3209 63.819L40.5599 57.75Z" fill="#F5A404"/>
<path d="M40.834 69.8502L46.313 72.7392L46.433 67.1992L40.834 69.8502Z" fill="#F5A404"/>
<path d="M21.8002 39.7822L16.2012 42.4322L20.5612 45.8512L21.8002 39.7822Z" fill="#F5A404"/>
<path d="M40.9922 52.6967L46.1612 49.2827L41.3632 46.5127L40.9922 52.6967Z" fill="#F5A404"/>
<path d="M33.5573 51.7487L34.7973 45.6797L29.4453 47.1157L33.5573 51.7487Z" fill="#F5A404"/>
<path d="M49.9647 40.6543L46.3457 45.6813L51.8147 46.5663L49.9647 40.6543Z" fill="#F5A404"/>
<path d="M15.1426 18.9947L20.6226 21.8837L20.7426 16.3447L15.1426 18.9947Z" fill="#F5A404"/>
<path d="M26.6035 32.0033L31.7735 28.5903L26.9745 25.8193L26.6035 32.0033Z" fill="#F5A404"/>
<path d="M45.0137 20.3473L50.4927 23.2363L50.6127 17.6973L45.0137 20.3473Z" fill="#F5A404"/>
<path d="M228.545 23.9067L233.714 20.4937L228.916 17.7227L228.545 23.9067Z" fill="#F5A404"/>
<path d="M221.108 22.9596L222.347 16.8896L216.996 18.3266L221.108 22.9596Z" fill="#F5A404"/>
<path d="M68.3103 40.2588L66.9373 34.2188L62.6543 37.7327L68.3103 40.2588Z" fill="#F5A404"/>
<path d="M59.2971 37.6191L55.2871 42.3411L60.6691 43.6601L59.2971 37.6191Z" fill="#F5A404"/>
<path d="M74.7246 31.8428L76.9346 37.6298L80.6806 33.5468L74.7246 31.8428Z" fill="#F5A404"/>
<path d="M77.2637 24.7903L82.9197 27.3163L82.6787 21.7812L77.2637 24.7903Z" fill="#F5A404"/>
<path d="M84.5333 43.2148L80.4113 38.5908L78.3613 43.7378L84.5333 43.2148Z" fill="#F5A404"/>
<path d="M96.3359 17.4287L98.5459 23.2157L102.292 19.1327L96.3359 17.4287Z" fill="#F5A404"/>
<path d="M106.144 28.8008L102.022 24.1768L99.9707 29.3238L106.144 28.8008Z" fill="#F5A404"/>
</svg>
