<svg width="31" height="43" viewBox="0 0 31 43" fill="none" xmlns="http://www.w3.org/2000/svg">
<path d="M21.9987 31.3445C22.0033 31.4989 21.9644 31.6509 21.8879 31.7772C21.7927 31.9143 21.6687 32.0205 21.5279 32.0857C21.3054 32.1851 21.0726 32.2501 20.8355 32.279C20.4677 32.3256 20.0978 32.3471 19.7278 32.3435C19.3485 32.3477 18.9694 32.3262 18.5923 32.279C18.3552 32.2501 18.1224 32.1851 17.8999 32.0857C17.7591 32.0205 17.6351 31.9143 17.5399 31.7772C17.4634 31.6509 17.4245 31.4989 17.4291 31.3445V14.3612C17.4567 13.0185 17.3451 11.6768 17.0968 10.3652C16.9062 9.43623 16.5783 8.55295 16.1275 7.75486C15.715 7.03759 15.1473 6.45957 14.4816 6.07909C13.7498 5.67805 12.9482 5.47951 12.1394 5.49902C10.8963 5.5397 9.69588 6.03592 8.70928 6.91697C7.35286 8.10118 6.14159 9.49515 5.10899 11.0603V31.3168C5.11164 31.471 5.07292 31.6223 4.99821 31.7496C4.90295 31.8867 4.77896 31.9929 4.63819 32.058C4.41551 32.1569 4.1828 32.2219 3.94582 32.2514C3.56872 32.2984 3.18959 32.3199 2.81034 32.3159C2.44031 32.3197 2.07041 32.2982 1.70256 32.2514C1.46066 32.2204 1.22287 32.1555 0.994372 32.058C0.851376 31.9976 0.726375 31.8905 0.634342 31.7496C0.568275 31.6186 0.535363 31.4686 0.539393 31.3168V2.31323C0.536378 2.16325 0.564896 2.01469 0.622473 1.88047C0.702629 1.73635 0.818524 1.62396 0.954806 1.55821C1.15559 1.45028 1.37128 1.38481 1.59178 1.36485C1.93236 1.32736 2.27439 1.31046 2.61648 1.31421C2.95329 1.31132 3.29001 1.32822 3.62535 1.36485C3.84263 1.3808 4.05506 1.44651 4.25046 1.55821C4.37738 1.63327 4.48618 1.74405 4.56697 1.88047C4.63611 2.01011 4.67054 2.16075 4.66588 2.31323V6.14815C5.84741 4.53156 7.26764 3.17361 8.85962 2.13828C10.1565 1.31994 11.6059 0.88368 13.0811 0.867649C14.5264 0.815104 15.9628 1.15064 17.2788 1.84825C18.3697 2.45137 19.3196 3.35148 20.0482 4.47238C20.7719 5.62391 21.2861 6.93507 21.5595 8.32572C21.8878 10.0654 22.0405 11.8438 22.0145 13.6246L21.9987 31.3445Z" fill="#E76F51"/>
<path d="M9.13376 11.9674C9.12917 11.8129 9.16807 11.661 9.24454 11.5346C9.33816 11.3966 9.46276 11.2915 9.60456 11.2308C9.82592 11.127 10.0592 11.0619 10.2969 11.0374C10.6646 10.9883 11.0346 10.9668 11.4047 10.973C11.784 10.9666 12.1632 10.9881 12.5402 11.0374C12.7778 11.0625 13.011 11.1276 13.2325 11.2308C13.3738 11.2927 13.4981 11.3976 13.5926 11.5346C13.6673 11.662 13.706 11.8132 13.7034 11.9674V28.9092C13.6755 30.2504 13.7871 31.5906 14.0357 32.9006C14.2263 33.8273 14.5529 34.7088 15.001 35.5063C15.4141 36.2281 15.9831 36.8108 16.6509 37.1959C17.3839 37.5972 18.1871 37.7942 18.997 37.7714C20.2415 37.7317 21.4434 37.2354 22.4311 36.3534C23.789 35.1713 25.0005 33.777 26.0314 32.2101V11.9536C26.0268 11.7991 26.0657 11.6472 26.1422 11.5208C26.2366 11.3838 26.361 11.2789 26.5022 11.217C26.7236 11.1132 26.9569 11.0481 27.1946 11.0236C27.5715 10.9741 27.9508 10.9526 28.33 10.9592C28.7001 10.9532 29.0701 10.9747 29.4378 11.0236C29.6792 11.0495 29.9162 11.1146 30.1421 11.217C30.2867 11.2712 30.4128 11.3776 30.5021 11.5208C30.5712 11.6504 30.6056 11.8011 30.601 11.9536V40.9111C30.604 41.0611 30.5755 41.2097 30.5179 41.3439C30.4377 41.488 30.3219 41.6004 30.1856 41.6662C29.9846 41.7735 29.769 41.839 29.5486 41.8595C29.2079 41.895 28.8659 41.9103 28.5239 41.9056C28.1283 41.9056 27.7801 41.9055 27.515 41.8595C27.2977 41.8442 27.0851 41.7784 26.8899 41.6662C26.763 41.5911 26.6542 41.4803 26.5734 41.3439C26.5043 41.2143 26.4698 41.0636 26.4745 40.9111V37.0946C25.293 38.71 23.8727 40.0664 22.2808 41.0999C20.9827 41.9188 19.5319 42.3551 18.0554 42.3705C16.6112 42.4232 15.1761 42.0876 13.8616 41.3899C12.7707 40.7868 11.8207 39.8867 11.0922 38.7658C10.3669 37.6187 9.85248 36.3102 9.58083 34.9217C9.25273 33.185 9.10004 31.4098 9.12585 29.632L9.13376 11.9674Z" fill="#E76F51"/>
</svg>
