<svg id="Layer_1" data-name="Layer 1" xmlns="http://www.w3.org/2000/svg" viewBox="0 0 481.25 121.64"><defs><style>.cls-1{fill:#264653;}.cls-2{fill:#e76f51;}.cls-3{fill:#2a9d8f;}</style></defs><path class="cls-1" d="M11.55,96.24a1.61,1.61,0,0,1-.28.94,2.23,2.23,0,0,1-.91.67,7,7,0,0,1-1.75.42,24.67,24.67,0,0,1-2.87.14,24,24,0,0,1-2.8-.14,7.63,7.63,0,0,1-1.79-.42,1.89,1.89,0,0,1-.9-.67A1.67,1.67,0,0,1,0,96.24v-63a1.71,1.71,0,0,1,.25-.91,1.76,1.76,0,0,1,.9-.7,6.74,6.74,0,0,1,1.79-.42,22,22,0,0,1,2.8-.14,22.62,22.62,0,0,1,2.87.14,6.22,6.22,0,0,1,1.75.42,2,2,0,0,1,.91.7,1.65,1.65,0,0,1,.28.91Z"/><path class="cls-1" d="M87.14,96.24a1.61,1.61,0,0,1-.28.94,2.23,2.23,0,0,1-.91.67,7,7,0,0,1-1.75.42,24,24,0,0,1-2.8.14,24.54,24.54,0,0,1-2.87-.14,6.89,6.89,0,0,1-1.75-.42,2.16,2.16,0,0,1-.91-.67,1.54,1.54,0,0,1-.28-.94V59.35a36.32,36.32,0,0,0-.84-8.68A18.11,18.11,0,0,0,72.3,45a10.62,10.62,0,0,0-4.17-3.64,13.18,13.18,0,0,0-5.91-1.26,15,15,0,0,0-8.68,3.08,47.7,47.7,0,0,0-9.1,9v44a1.54,1.54,0,0,1-.28.94,2.16,2.16,0,0,1-.91.67,6.89,6.89,0,0,1-1.75.42,24.54,24.54,0,0,1-2.87.14,24,24,0,0,1-2.8-.14,7.53,7.53,0,0,1-1.78-.42,1.93,1.93,0,0,1-.91-.67,1.75,1.75,0,0,1-.24-.94v-63a1.86,1.86,0,0,1,.21-1,1.76,1.76,0,0,1,.83-.7,4.77,4.77,0,0,1,1.61-.42,25.76,25.76,0,0,1,2.59-.1c1,0,1.88,0,2.56.1a4.12,4.12,0,0,1,1.57.42,2.2,2.2,0,0,1,.81.7,1.76,1.76,0,0,1,.24,1v8.32a38.73,38.73,0,0,1,10.61-8.71A22.83,22.83,0,0,1,64.6,30.1a23.75,23.75,0,0,1,10.6,2.13,19.22,19.22,0,0,1,7,5.7A22.77,22.77,0,0,1,86,46.3a49.68,49.68,0,0,1,1.16,11.51Z"/><path class="cls-1" d="M144.32,7.35a12.14,12.14,0,0,1-.14,2.13,8.64,8.64,0,0,1-.31,1.3,1.19,1.19,0,0,1-.46.66,1.25,1.25,0,0,1-.7.18,3.29,3.29,0,0,1-1.22-.32c-.49-.21-1.09-.44-1.79-.7a20.73,20.73,0,0,0-2.48-.7,15.72,15.72,0,0,0-3.33-.31,10.52,10.52,0,0,0-4.41.84,6.72,6.72,0,0,0-2.93,2.62,12.58,12.58,0,0,0-1.61,4.62,41,41,0,0,0-.49,6.9v6.86h9.16a1.75,1.75,0,0,1,.94.24,2.09,2.09,0,0,1,.7.84,5.58,5.58,0,0,1,.49,1.51,11.67,11.67,0,0,1,.18,2.23,7.8,7.8,0,0,1-.63,3.64A1.88,1.88,0,0,1,133.61,41h-9.16V96.24a1.61,1.61,0,0,1-.28.94,2.25,2.25,0,0,1-1,.67,7.53,7.53,0,0,1-1.78.42,28.07,28.07,0,0,1-5.6,0,7.63,7.63,0,0,1-1.79-.42,2.15,2.15,0,0,1-.94-.67,1.54,1.54,0,0,1-.28-.94V41h-8.89a1.78,1.78,0,0,1-1.68-1.12,8.71,8.71,0,0,1-.56-3.64,14.08,14.08,0,0,1,.14-2.23,5.36,5.36,0,0,1,.42-1.51,1.82,1.82,0,0,1,.7-.84,1.92,1.92,0,0,1,1-.24h8.89V24.92a45.89,45.89,0,0,1,1.22-11.31,19.53,19.53,0,0,1,3.75-7.73,14.89,14.89,0,0,1,6.33-4.44,25.42,25.42,0,0,1,9-1.44,24,24,0,0,1,4.76.46,18.5,18.5,0,0,1,3.57,1,5.62,5.62,0,0,1,1.68.94,3.26,3.26,0,0,1,.7,1.08,5.76,5.76,0,0,1,.39,1.61A21.21,21.21,0,0,1,144.32,7.35Z"/><path class="cls-1" d="M292.28,96a1.59,1.59,0,0,1-.28.94,2.13,2.13,0,0,1-.91.66,6.22,6.22,0,0,1-1.75.42,24.79,24.79,0,0,1-2.87.14,23.84,23.84,0,0,1-2.8-.14,6.74,6.74,0,0,1-1.79-.42,1.9,1.9,0,0,1-.91-.66,1.73,1.73,0,0,1-.24-.94V33.24a1.79,1.79,0,0,1,.24-.91,1.89,1.89,0,0,1,.91-.7,7.21,7.21,0,0,1,1.79-.41,21.84,21.84,0,0,1,2.8-.14,22.73,22.73,0,0,1,2.87.14,6.64,6.64,0,0,1,1.75.41,2.1,2.1,0,0,1,.91.7,1.65,1.65,0,0,1,.28.91Z"/><path class="cls-1" d="M339.8,99.74a35.89,35.89,0,0,1-9.31-1.12,25.42,25.42,0,0,1-7.24-3.15A21.25,21.25,0,0,1,318,90.6a24.17,24.17,0,0,1-3.43-6.19,24.73,24.73,0,0,1-1.4-5.53,47.81,47.81,0,0,1-.42-6.58V31.5h10.85V72.23A25.21,25.21,0,0,0,325,81.47a13.73,13.73,0,0,0,5.43,6.61A17.3,17.3,0,0,0,340,90.5q6.17,0,9.9-2.66a14.62,14.62,0,0,0,5.36-7.14,26.18,26.18,0,0,0,1.19-8.47V31.5h10.85V72.37a47,47,0,0,1-.39,6.26A27.92,27.92,0,0,1,365.7,84a24.24,24.24,0,0,1-3.47,6.33,21.49,21.49,0,0,1-5.42,5,26.12,26.12,0,0,1-7.46,3.25A36.26,36.26,0,0,1,339.8,99.74Z"/><path class="cls-1" d="M481.25,96.24a1.61,1.61,0,0,1-.28.94,2.23,2.23,0,0,1-.91.67,7,7,0,0,1-1.75.42,24,24,0,0,1-2.8.14,24.67,24.67,0,0,1-2.87-.14,7.63,7.63,0,0,1-1.79-.42,2.21,2.21,0,0,1-.94-.67,1.54,1.54,0,0,1-.28-.94V58a34.87,34.87,0,0,0-.7-7.28A16.82,16.82,0,0,0,466.69,45a10.5,10.5,0,0,0-3.92-3.64,11.8,11.8,0,0,0-5.6-1.26,13.18,13.18,0,0,0-8,3.08,55.61,55.61,0,0,0-8.86,9v44a1.6,1.6,0,0,1-.27.94,2.25,2.25,0,0,1-.95.67,7.53,7.53,0,0,1-1.78.42,27.77,27.77,0,0,1-5.57,0,7.56,7.56,0,0,1-1.82-.42,1.93,1.93,0,0,1-.91-.67,1.75,1.75,0,0,1-.24-.94V58a32.2,32.2,0,0,0-.77-7.28A18.22,18.22,0,0,0,425.68,45a10.57,10.57,0,0,0-3.89-3.64,11.58,11.58,0,0,0-5.56-1.26,13.35,13.35,0,0,0-8.05,3.08,52.85,52.85,0,0,0-8.82,9v44a1.54,1.54,0,0,1-.28.94,2.23,2.23,0,0,1-.91.67,6.89,6.89,0,0,1-1.75.42,24.67,24.67,0,0,1-2.87.14,24,24,0,0,1-2.8-.14,7.53,7.53,0,0,1-1.78-.42,1.88,1.88,0,0,1-.91-.67,1.67,1.67,0,0,1-.25-.94v-63a2,2,0,0,1,.21-1,1.84,1.84,0,0,1,.84-.7,4.77,4.77,0,0,1,1.61-.42,25.76,25.76,0,0,1,2.59-.1c1,0,1.88,0,2.56.1a4.12,4.12,0,0,1,1.57.42,2.28,2.28,0,0,1,.81.7,1.76,1.76,0,0,1,.24,1v8.32a41.11,41.11,0,0,1,10.32-8.71,20.77,20.77,0,0,1,10.12-2.76,25,25,0,0,1,7,.91,18.68,18.68,0,0,1,5.5,2.55,17.19,17.19,0,0,1,4.06,3.92,23,23,0,0,1,2.8,5.07,65,65,0,0,1,6-5.81,36.18,36.18,0,0,1,5.46-3.84,22.13,22.13,0,0,1,5.11-2.14,19.35,19.35,0,0,1,5-.66,22.12,22.12,0,0,1,10.22,2.13,18.56,18.56,0,0,1,6.68,5.7,22.7,22.7,0,0,1,3.64,8.37,45.28,45.28,0,0,1,1.09,10.11Z"/><path class="cls-2" d="M237.59,83.29a1.54,1.54,0,0,1-.28.94,2.23,2.23,0,0,1-.91.67,6.89,6.89,0,0,1-1.75.42,24,24,0,0,1-2.8.14,24.67,24.67,0,0,1-2.87-.14,6.89,6.89,0,0,1-1.75-.42,2.23,2.23,0,0,1-.91-.67,1.54,1.54,0,0,1-.28-.94V46.4a36.32,36.32,0,0,0-.84-8.68,17.88,17.88,0,0,0-2.45-5.67,10.66,10.66,0,0,0-4.16-3.64,13.25,13.25,0,0,0-5.92-1.26A14.93,14.93,0,0,0,204,30.23a47.13,47.13,0,0,0-9.1,9v44a1.61,1.61,0,0,1-.28.94,2.23,2.23,0,0,1-.91.67,7,7,0,0,1-1.75.42,24.79,24.79,0,0,1-2.87.14,23.84,23.84,0,0,1-2.8-.14,7.63,7.63,0,0,1-1.79-.42,2,2,0,0,1-.91-.67,1.75,1.75,0,0,1-.24-.94v-63a2,2,0,0,1,.21-.94,1.84,1.84,0,0,1,.84-.7,4.71,4.71,0,0,1,1.61-.42,25,25,0,0,1,2.59-.11,25.29,25.29,0,0,1,2.55.11,4.18,4.18,0,0,1,1.58.42,2.16,2.16,0,0,1,.8.7,1.67,1.67,0,0,1,.25.94v8.33a38.7,38.7,0,0,1,10.6-8.71,22.83,22.83,0,0,1,10.67-2.76,23.8,23.8,0,0,1,10.61,2.13,19,19,0,0,1,7,5.7,22.79,22.79,0,0,1,3.82,8.37,49.73,49.73,0,0,1,1.15,11.51Z"/><path class="cls-2" d="M205.07,41.2a1.54,1.54,0,0,1,.28-.94,2.07,2.07,0,0,1,.91-.66,6.13,6.13,0,0,1,1.75-.42,21.84,21.84,0,0,1,2.8-.14,22.73,22.73,0,0,1,2.87.14,6.22,6.22,0,0,1,1.75.42,2.13,2.13,0,0,1,.91.66,1.61,1.61,0,0,1,.28.94V78a36.17,36.17,0,0,0,.84,8.67,18,18,0,0,0,2.44,5.66A10.74,10.74,0,0,0,224.07,96,13.18,13.18,0,0,0,230,97.25a14.93,14.93,0,0,0,8.68-3.08,46.67,46.67,0,0,0,9.1-9v-44a1.54,1.54,0,0,1,.28-.94,2.13,2.13,0,0,1,.91-.66,6.13,6.13,0,0,1,1.75-.42,22.62,22.62,0,0,1,2.87-.14,22,22,0,0,1,2.8.14,6.56,6.56,0,0,1,1.78.42,1.81,1.81,0,0,1,.91.66,1.67,1.67,0,0,1,.25.94v62.9a2,2,0,0,1-.21.94,1.84,1.84,0,0,1-.84.7,4.77,4.77,0,0,1-1.61.42,25.63,25.63,0,0,1-2.59.1c-1,0-1.88,0-2.55-.1a4.13,4.13,0,0,1-1.58-.42,2.16,2.16,0,0,1-.8-.7,1.67,1.67,0,0,1-.25-.94V95.78a38.64,38.64,0,0,1-10.6,8.7,22.84,22.84,0,0,1-10.68,2.76,23.75,23.75,0,0,1-10.6-2.13,19,19,0,0,1-7-5.7,22.53,22.53,0,0,1-3.82-8.35,49.61,49.61,0,0,1-1.15-11.49Z"/><path class="cls-1" d="M162.86,96.24a1.54,1.54,0,0,1-.28.94,2.16,2.16,0,0,1-.91.67,6.89,6.89,0,0,1-1.75.42,24.54,24.54,0,0,1-2.87.14,24,24,0,0,1-2.8-.14,7.53,7.53,0,0,1-1.78-.42,1.88,1.88,0,0,1-.91-.67,1.67,1.67,0,0,1-.25-.94v-63a1.71,1.71,0,0,1,.25-.91,1.74,1.74,0,0,1,.91-.7,6.66,6.66,0,0,1,1.78-.42,22,22,0,0,1,2.8-.14,22.52,22.52,0,0,1,2.87.14,6.13,6.13,0,0,1,1.75.42,2,2,0,0,1,.91.7,1.58,1.58,0,0,1,.28.91Z"/><path class="cls-3" d="M293.61,114.67c0,2.7-.52,4.53-1.54,5.51s-2.92,1.46-5.67,1.46-4.56-.47-5.57-1.43-1.5-2.75-1.5-5.4.51-4.53,1.54-5.5,2.91-1.47,5.67-1.47,4.56.48,5.56,1.43S293.61,112,293.61,114.67Z"/><path class="cls-3" d="M164.38,14.89c0,2.69-.52,4.53-1.54,5.5s-2.92,1.47-5.67,1.47-4.56-.48-5.57-1.43-1.5-2.75-1.5-5.4.51-4.53,1.54-5.51,2.91-1.46,5.67-1.46,4.56.48,5.56,1.43S164.38,12.24,164.38,14.89Z"/></svg>