<svg id="Layer_1" data-name="Layer 1" xmlns="http://www.w3.org/2000/svg" viewBox="0 0 200 50.55"><defs><style>.cls-1{fill:#fff;}.cls-2{fill:#e77051;}.cls-3{fill:#2c9e8f;}</style></defs><path class="cls-1" d="M4.8,40a.65.65,0,0,1-.12.4.83.83,0,0,1-.38.27,2.5,2.5,0,0,1-.72.18,9.66,9.66,0,0,1-1.19.06,9.42,9.42,0,0,1-1.17-.06,2.75,2.75,0,0,1-.74-.18.83.83,0,0,1-.38-.27A.72.72,0,0,1,0,40V13.82a.7.7,0,0,1,.1-.38.78.78,0,0,1,.38-.29A2.75,2.75,0,0,1,1.22,13a9.42,9.42,0,0,1,1.17-.06A9.66,9.66,0,0,1,3.58,13a2.5,2.5,0,0,1,.72.18.78.78,0,0,1,.38.29.64.64,0,0,1,.12.38Z"/><path class="cls-1" d="M36.21,40a.72.72,0,0,1-.11.4,1,1,0,0,1-.38.27,2.67,2.67,0,0,1-.73.18,9.35,9.35,0,0,1-1.16.06,9.54,9.54,0,0,1-1.19-.06,2.49,2.49,0,0,1-.73-.18.89.89,0,0,1-.38-.27.65.65,0,0,1-.12-.4V24.67a14.68,14.68,0,0,0-.35-3.61,7.58,7.58,0,0,0-1-2.36,4.49,4.49,0,0,0-1.73-1.51,5.5,5.5,0,0,0-2.46-.52A6.17,6.17,0,0,0,22.25,18a19.48,19.48,0,0,0-3.78,3.75V40a.65.65,0,0,1-.12.4.85.85,0,0,1-.37.27,2.67,2.67,0,0,1-.73.18,9.66,9.66,0,0,1-1.19.06,9.42,9.42,0,0,1-1.17-.06,2.75,2.75,0,0,1-.74-.18.83.83,0,0,1-.38-.27.72.72,0,0,1-.1-.4V13.82a.67.67,0,0,1,.44-.69,2.1,2.1,0,0,1,.67-.17,11.37,11.37,0,0,1,2.13,0,2,2,0,0,1,.66.17,1.07,1.07,0,0,1,.33.29.72.72,0,0,1,.1.4v3.46a16.1,16.1,0,0,1,4.41-3.62,9.45,9.45,0,0,1,4.44-1.15,9.86,9.86,0,0,1,4.4.88,8,8,0,0,1,2.9,2.38,9.44,9.44,0,0,1,1.58,3.47A20.69,20.69,0,0,1,36.21,24Z"/><path class="cls-1" d="M60,3.05a5.23,5.23,0,0,1-.06.89,3.58,3.58,0,0,1-.13.54.51.51,0,0,1-.19.28.62.62,0,0,1-.29.07,1.47,1.47,0,0,1-.51-.13c-.2-.09-.45-.19-.74-.29a6.8,6.8,0,0,0-1-.29A6.38,6.38,0,0,0,55.64,4a4.43,4.43,0,0,0-1.83.34,2.91,2.91,0,0,0-1.22,1.09,5.47,5.47,0,0,0-.67,1.92,18,18,0,0,0-.2,2.87v2.85h3.8a.72.72,0,0,1,.4.1,1.06,1.06,0,0,1,.29.35,2.23,2.23,0,0,1,.2.63,4.89,4.89,0,0,1,.07.93,3.17,3.17,0,0,1-.26,1.51.77.77,0,0,1-.7.46h-3.8V40a.65.65,0,0,1-.12.4.93.93,0,0,1-.39.27,2.86,2.86,0,0,1-.74.18,11.34,11.34,0,0,1-2.33,0,2.75,2.75,0,0,1-.74-.18.81.81,0,0,1-.39-.27.65.65,0,0,1-.12-.4V17H43.2a.74.74,0,0,1-.7-.46,3.49,3.49,0,0,1-.24-1.51,6,6,0,0,1,.06-.93,2.26,2.26,0,0,1,.18-.63.73.73,0,0,1,.29-.35.76.76,0,0,1,.41-.1h3.69v-2.7a18.87,18.87,0,0,1,.51-4.7A8.27,8.27,0,0,1,49,2.44,6.2,6.2,0,0,1,51.59.6,10.5,10.5,0,0,1,55.32,0a9.92,9.92,0,0,1,2,.19A8.15,8.15,0,0,1,58.79.6a2.12,2.12,0,0,1,.69.39,1.29,1.29,0,0,1,.29.45,2.06,2.06,0,0,1,.16.67A8.33,8.33,0,0,1,60,3.05Z"/><path class="cls-1" d="M121.47,39.88a.65.65,0,0,1-.12.39.9.9,0,0,1-.38.28,3,3,0,0,1-.73.17,9.54,9.54,0,0,1-1.19.06,9.35,9.35,0,0,1-1.16-.06,3.26,3.26,0,0,1-.74-.17.79.79,0,0,1-.38-.28.71.71,0,0,1-.1-.39V13.81a.67.67,0,0,1,.48-.66,2.75,2.75,0,0,1,.74-.18,9.35,9.35,0,0,1,1.16-.06,9.54,9.54,0,0,1,1.19.06,2.58,2.58,0,0,1,.73.18.77.77,0,0,1,.38.29.63.63,0,0,1,.12.37Z"/><path class="cls-1" d="M141.22,41.45a14.76,14.76,0,0,1-3.87-.47,10.2,10.2,0,0,1-3-1.31,8.51,8.51,0,0,1-2.2-2,9.63,9.63,0,0,1-1.42-2.57,10.06,10.06,0,0,1-.59-2.3,20.82,20.82,0,0,1-.17-2.73v-17h4.51V30a10.45,10.45,0,0,0,.61,3.84,5.74,5.74,0,0,0,2.25,2.75,7.28,7.28,0,0,0,4,1,7,7,0,0,0,4.12-1.11,6,6,0,0,0,2.22-3,10.84,10.84,0,0,0,.5-3.52V13.09h4.51v17a21.1,21.1,0,0,1-.16,2.6A11.86,11.86,0,0,1,152,34.9a10.26,10.26,0,0,1-1.44,2.64,9,9,0,0,1-2.26,2.08A10.87,10.87,0,0,1,145.19,41,15.16,15.16,0,0,1,141.22,41.45Z"/><path class="cls-1" d="M200,40a.65.65,0,0,1-.12.4.85.85,0,0,1-.37.27,2.67,2.67,0,0,1-.73.18,9.42,9.42,0,0,1-1.17.06,9.66,9.66,0,0,1-1.19-.06,2.75,2.75,0,0,1-.74-.18.93.93,0,0,1-.39-.27.65.65,0,0,1-.12-.4V24.08a14.81,14.81,0,0,0-.29-3A6.86,6.86,0,0,0,194,18.7a4.36,4.36,0,0,0-1.63-1.51,4.89,4.89,0,0,0-2.33-.52A5.46,5.46,0,0,0,186.66,18,23,23,0,0,0,183,21.7V40a.72.72,0,0,1-.11.4.93.93,0,0,1-.39.27,2.94,2.94,0,0,1-.75.18,9.24,9.24,0,0,1-1.16.06,9.4,9.4,0,0,1-1.15-.06,2.93,2.93,0,0,1-.76-.18.74.74,0,0,1-.37-.27.72.72,0,0,1-.11-.4V24.08a12.9,12.9,0,0,0-.32-3,7.53,7.53,0,0,0-1-2.36,4.41,4.41,0,0,0-1.62-1.51,4.8,4.8,0,0,0-2.31-.52A5.51,5.51,0,0,0,169.63,18,21.87,21.87,0,0,0,166,21.7V40a.65.65,0,0,1-.12.4.89.89,0,0,1-.38.27,2.5,2.5,0,0,1-.72.18,9.72,9.72,0,0,1-1.2.06,9.35,9.35,0,0,1-1.16-.06,2.75,2.75,0,0,1-.74-.18.78.78,0,0,1-.38-.27.72.72,0,0,1-.1-.4V13.82a.82.82,0,0,1,.09-.4.76.76,0,0,1,.35-.29,2.11,2.11,0,0,1,.66-.17,10.17,10.17,0,0,1,1.08-.05,10,10,0,0,1,1.06.05,2,2,0,0,1,.66.17,1.07,1.07,0,0,1,.33.29.72.72,0,0,1,.1.4v3.46a17,17,0,0,1,4.29-3.62A8.59,8.59,0,0,1,174,12.51a10.13,10.13,0,0,1,2.92.38A7.72,7.72,0,0,1,179.2,14a7.08,7.08,0,0,1,1.69,1.63,9.27,9.27,0,0,1,1.16,2.1,28.81,28.81,0,0,1,2.49-2.41,15.13,15.13,0,0,1,2.27-1.6,9.43,9.43,0,0,1,2.12-.89,8.19,8.19,0,0,1,2.08-.27,9.22,9.22,0,0,1,4.25.88A7.86,7.86,0,0,1,198,15.77a9.51,9.51,0,0,1,1.51,3.47,19,19,0,0,1,.45,4.2Z"/><path class="cls-1" d="M67.68,40a.72.72,0,0,1-.11.4,1,1,0,0,1-.38.27,2.67,2.67,0,0,1-.73.18,9.66,9.66,0,0,1-1.19.06,9.24,9.24,0,0,1-1.16-.06,2.84,2.84,0,0,1-.75-.18.74.74,0,0,1-.37-.27.72.72,0,0,1-.11-.4V13.82a.71.71,0,0,1,.48-.67,2.84,2.84,0,0,1,.75-.18,9.24,9.24,0,0,1,1.16-.06,9.66,9.66,0,0,1,1.19.06,2.67,2.67,0,0,1,.73.18.89.89,0,0,1,.38.29.7.7,0,0,1,.11.38Z"/><path class="cls-2" d="M98.74,34.61a.65.65,0,0,1-.12.4.85.85,0,0,1-.37.27,2.67,2.67,0,0,1-.73.18,9.42,9.42,0,0,1-1.17.06,9.66,9.66,0,0,1-1.19-.06,2.5,2.5,0,0,1-.72-.18.83.83,0,0,1-.38-.27.65.65,0,0,1-.12-.4V19.29a15.18,15.18,0,0,0-.35-3.61,7.36,7.36,0,0,0-1-2.36,4.35,4.35,0,0,0-1.73-1.51,5.45,5.45,0,0,0-2.45-.52,6.14,6.14,0,0,0-3.61,1.28A19.48,19.48,0,0,0,81,16.32V34.61a.65.65,0,0,1-.12.4.89.89,0,0,1-.38.27,2.5,2.5,0,0,1-.72.18,9.83,9.83,0,0,1-1.2.06,9.35,9.35,0,0,1-1.16-.06,2.75,2.75,0,0,1-.74-.18A.78.78,0,0,1,76.3,35a.72.72,0,0,1-.1-.4V8.44a.82.82,0,0,1,.09-.4.78.78,0,0,1,.34-.29,2.25,2.25,0,0,1,.67-.17,11.47,11.47,0,0,1,2.14,0,2,2,0,0,1,.66.17,1.07,1.07,0,0,1,.33.29.72.72,0,0,1,.1.4V11.9a16,16,0,0,1,4.41-3.62,9.41,9.41,0,0,1,4.43-1.15A9.87,9.87,0,0,1,93.78,8a8.06,8.06,0,0,1,2.89,2.37,9.42,9.42,0,0,1,1.59,3.48,20.69,20.69,0,0,1,.48,4.79Z"/><path class="cls-2" d="M85.22,17.12a.65.65,0,0,1,.12-.39.89.89,0,0,1,.38-.27,2.5,2.5,0,0,1,.72-.18,9.42,9.42,0,0,1,1.17-.06,9.66,9.66,0,0,1,1.19.06,2.67,2.67,0,0,1,.73.18,1,1,0,0,1,.38.27.71.71,0,0,1,.11.39V32.43a15.15,15.15,0,0,0,.35,3.6,7.3,7.3,0,0,0,1,2.35,4.28,4.28,0,0,0,1.73,1.51,5.5,5.5,0,0,0,2.46.53,6.21,6.21,0,0,0,3.6-1.28A18.94,18.94,0,0,0,103,35.39V17.12a.65.65,0,0,1,.12-.39,1,1,0,0,1,.38-.27,2.58,2.58,0,0,1,.73-.18,9.54,9.54,0,0,1,1.19-.06,9.35,9.35,0,0,1,1.16.06,2.75,2.75,0,0,1,.74.18.78.78,0,0,1,.38.27.71.71,0,0,1,.1.39V43.26a.64.64,0,0,1-.43.68,2,2,0,0,1-.67.18,14.33,14.33,0,0,1-2.14,0,1.63,1.63,0,0,1-.65-.18.83.83,0,0,1-.34-.29.67.67,0,0,1-.1-.39V39.81A15.94,15.94,0,0,1,99,43.42a9.41,9.41,0,0,1-4.43,1.15,9.87,9.87,0,0,1-4.41-.89,7.93,7.93,0,0,1-2.89-2.36,9.44,9.44,0,0,1-1.59-3.47,20.66,20.66,0,0,1-.48-4.78Z"/><path class="cls-3" d="M122,47.66a3.14,3.14,0,0,1-.64,2.28,4.84,4.84,0,0,1-4.67,0,3.07,3.07,0,0,1-.63-2.25,3.14,3.14,0,0,1,.64-2.28,3.45,3.45,0,0,1,2.36-.61,3.4,3.4,0,0,1,2.31.59A3.09,3.09,0,0,1,122,47.66Z"/><path class="cls-3" d="M68.31,6.19a3.13,3.13,0,0,1-.64,2.29,3.46,3.46,0,0,1-2.35.6A3.39,3.39,0,0,1,63,8.49a3.11,3.11,0,0,1-.62-2.24A3.12,3.12,0,0,1,63,4a3.4,3.4,0,0,1,2.35-.61,3.45,3.45,0,0,1,2.32.59A3.14,3.14,0,0,1,68.31,6.19Z"/></svg>