<svg width="2053" height="2053" viewBox="0 0 2053 2053" fill="none" xmlns="http://www.w3.org/2000/svg">
<path d="M1806.58 1764.22C1764.62 1808.4 1724.92 1836.88 1693.55 1859.39C1324.82 2123.96 888.519 2046.84 795.792 2028.01C658.864 2000.19 394.184 1946.44 202.825 1721.4C-86.6839 1380.95 -41.6029 844.565 182.96 490.493C224.036 425.727 441.013 66.2612 882.015 8.6142C1148.9 -26.2733 1460.01 44.0904 1685.31 232.844C2158.23 629.053 2124.56 1429.47 1806.58 1764.22Z" fill="#12423C" fill-opacity="0.1"/>
<path d="M1474.73 1168.54C1474.73 1168.54 1468.72 916.162 1584.97 848.616C1701.21 781.07 1922.22 738.839 1930.51 376.453C1935.36 164.297 1940.61 71.5384 1944.12 31.0915C1945.5 15.3135 1931.48 2.57879 1915.91 5.51027C1805.82 26.2493 1448.19 111.613 1373.21 355.715C1284.32 645.1 1474.73 1168.54 1474.73 1168.54Z" fill="#12423C"/>
<path d="M1830.77 106.338C1709.93 214.115 1570.19 404.859 1495.71 595.604C1486.15 627.04 1458.19 693.891 1446.04 812.668C1435.2 911.73 1440.59 1016.41 1453.74 1085.7C1454.57 1090.08 1458.8 1092.96 1463.18 1092.13C1470.71 1090.7 1469.71 1082.6 1469.64 1082.85C1454.62 964.466 1460.86 817.113 1495.27 684.157C1539.24 520.903 1637.32 362.622 1738.76 228.378L1749.2 215.159C1827.79 114.227 1844.34 113.484 1836.99 106.448C1835.26 104.786 1832.54 104.771 1830.77 106.338Z" fill="#2A9D8E"/>
<path d="M1329.46 1631.45C1313.74 1639.16 1478.35 1432.16 1529.92 1107.05C1554.21 953.844 1554.53 761.895 1641.8 687.924C1714.43 626.361 1961.59 665.228 2042.46 679.998C2052.57 681.843 2055.97 694.609 2048.11 701.216C2009.32 733.786 1926.36 810.611 1904.75 888.036C1876.25 990.088 1779.23 1055 1692.37 1072.57C1605.51 1090.13 1557.19 1107.18 1514.88 1246.09C1472.56 1385 1374.15 1609.54 1329.46 1631.45Z" fill="#12423C"/>
<path d="M1928.73 723.119C1825.55 727.44 1714.79 774.507 1658.59 862.794L1653.29 871.218C1641.03 890.972 1571.6 1031.4 1533.03 1147.81C1532.55 1149.26 1533.34 1150.82 1534.79 1151.31C1537.25 1152.12 1538.49 1149.41 1538.25 1149.65C1565.12 1083.89 1603.71 1000.51 1634.45 938.164C1667.41 870.129 1690.47 824.054 1765.66 779.921C1849.34 732.391 1929.28 727.498 1929.04 727.547C1930.26 727.423 1931.15 726.332 1931.03 725.113C1930.91 723.939 1929.89 723.073 1928.73 723.119Z" fill="#2A9D8E"/>
<path d="M395.641 489.866C395.641 424.681 448.483 371.838 513.669 371.838H1517.39C1572.76 371.838 1618.42 415.233 1621.24 470.535L1695.32 1925.74C1697.53 1969.01 1663.46 2005.52 1620.14 2006.3L469.75 2027.21C429.04 2027.95 395.641 1995.15 395.641 1954.44V489.866Z" fill="#CC5F46"/>
<path d="M637.882 2002.48H637.847L509.125 2000.81C466.083 2000.25 431.066 1964.78 431.066 1921.74V1727.39C431.066 1725.87 432.297 1724.64 433.814 1724.64C435.332 1724.64 436.562 1725.87 436.562 1727.39V1921.74C436.562 1961.79 469.144 1994.8 509.196 1995.32L637.916 1996.98C639.434 1997 640.648 1998.25 640.629 1999.76C640.609 2001.27 639.383 2002.48 637.882 2002.48Z" fill="#91B3FA"/>
<path d="M433.814 1669.94C432.297 1669.94 431.066 1668.71 431.066 1667.19V1635.72C431.066 1634.2 432.297 1632.97 433.814 1632.97C435.332 1632.97 436.562 1634.2 436.562 1635.72V1667.19C436.562 1668.71 435.332 1669.94 433.814 1669.94Z" fill="url(#paint0_linear_753_8)"/>
<path d="M477.872 394.236C477.749 373.381 496.09 357.239 516.757 360.042C653.823 378.629 1125.16 436.117 1514.86 406.202C1532.63 404.838 1548.05 418.303 1549 436.102L1626.68 1897.79C1627.75 1917.83 1612.44 1934.97 1592.41 1936.16C1428.51 1945.86 753.523 1983.35 512.766 1958.13C498.113 1956.6 486.99 1944.26 486.903 1929.53L477.872 394.236Z" fill="#E76F51"/>
<path d="M494.016 430.864C493.898 410.794 511.548 395.26 531.437 397.957C663.342 415.845 1116.93 471.168 1491.95 442.38C1509.05 441.066 1523.9 454.025 1524.81 471.153L1599.57 1877.8C1600.59 1897.09 1585.86 1913.58 1566.58 1914.72C1408.86 1924.06 759.287 1960.14 527.596 1935.87C513.495 1934.4 502.79 1922.52 502.708 1908.34L494.016 430.864Z" fill="#F9C7B8"/>
<path opacity="0.78" d="M616.124 539.316L630.133 840.887C630.599 850.917 638.701 858.892 648.739 859.175C704.59 860.75 878.625 864.994 976.892 859.872C988.007 859.292 996.801 850.3 997.17 839.175C999.043 782.62 1003.14 618.01 990.256 549.197C988.174 538.082 978.62 529.937 967.318 529.542L637.199 517.997C625.295 517.582 615.571 527.417 616.124 539.316Z" fill="white"/>
<g opacity="0.6">
<path d="M1442.57 565.567C1448.74 565.567 1453.66 561.015 1453.5 555.451C1453.34 549.887 1448.15 545.244 1441.98 545.134L1078.91 538.664C1072.73 538.554 1069.36 543.227 1071.41 549.049L1073.5 554.983C1075.55 560.805 1082.28 565.568 1088.45 565.568H1442.57V565.567Z" fill="white"/>
</g>
<g opacity="0.6">
<path d="M1078.91 594.883C1072.73 594.773 1069.36 599.446 1071.41 605.268L1073.5 611.201C1075.55 617.023 1082.28 621.786 1088.45 621.786H1442.57C1448.74 621.786 1453.66 617.233 1453.5 611.67C1453.34 606.105 1448.15 601.463 1441.98 601.353L1078.91 594.883Z" fill="white"/>
</g>
<g opacity="0.6">
<path d="M1078.91 651.92C1072.73 651.81 1069.36 656.483 1071.41 662.305L1073.5 668.238C1075.55 674.06 1082.28 678.823 1088.45 678.823H1442.57C1448.74 678.823 1453.66 674.27 1453.5 668.707C1453.34 663.142 1448.15 658.5 1441.98 658.39L1078.91 651.92Z" fill="white"/>
</g>
<g opacity="0.6">
<path d="M1477.74 953.887C1483.91 953.887 1488.66 949.334 1488.29 943.77C1487.92 938.206 1482.57 933.613 1476.4 933.565L627.25 926.872C621.078 926.823 619.174 930.733 623.019 935.562L630.619 945.107C634.464 949.936 642.66 953.887 648.832 953.887H1477.74Z" fill="white"/>
</g>
<g opacity="0.6">
<path d="M627.25 983.092C621.078 983.044 619.174 986.954 623.019 991.783L630.619 1001.33C634.464 1006.16 642.66 1010.11 648.832 1010.11H1477.74C1483.91 1010.11 1488.66 1005.55 1488.29 999.991C1487.92 994.426 1482.57 989.834 1476.4 989.786L627.25 983.092Z" fill="white"/>
</g>
<path d="M623.959 1076.96C644.35 1075.4 682.535 1074.68 703.555 1074.38C712.462 1074.26 720.273 1080.29 722.361 1088.95C726.418 1105.77 732.014 1134.97 731.31 1165.91C731.099 1175.18 723.509 1182.57 714.24 1182.47L636.673 1181.64C627.134 1181.54 619.215 1174.24 618.327 1164.75L611.507 1091.77C610.802 1084.23 616.4 1077.54 623.959 1076.96Z" fill="url(#paint1_linear_753_8)"/>
<g opacity="0.6">
<path d="M766.865 1106.9C760.697 1106.65 756.402 1111.43 757.319 1117.53L759.357 1131.11C760.274 1137.21 766.074 1142.2 772.246 1142.2H961.708C967.881 1142.2 972.868 1137.15 972.791 1130.98L972.738 1126.72C972.661 1120.55 967.553 1115.29 961.386 1115.03L766.865 1106.9Z" fill="white"/>
</g>
<path d="M1046.54 1076.96C1066.93 1075.4 1105.11 1074.68 1126.13 1074.38C1135.04 1074.26 1142.85 1080.29 1144.94 1088.95C1149 1105.77 1154.59 1134.97 1153.89 1165.91C1153.68 1175.18 1146.09 1182.57 1136.82 1182.47L1059.25 1181.64C1049.71 1181.54 1041.79 1174.24 1040.91 1164.75L1034.09 1091.77C1033.38 1084.23 1038.98 1077.54 1046.54 1076.96Z" fill="#FF928E"/>
<g opacity="0.6">
<path d="M1189.44 1106.9C1183.28 1106.65 1178.98 1111.43 1179.9 1117.53L1181.94 1131.11C1182.85 1137.21 1188.65 1142.2 1194.83 1142.2H1384.29C1390.46 1142.2 1395.45 1137.15 1395.37 1130.98L1395.32 1126.72C1395.24 1120.55 1390.13 1115.29 1383.97 1115.03L1189.44 1106.9Z" fill="white"/>
</g>
<g opacity="0.6">
<path d="M600.186 1326.6C602.845 1334.46 612.003 1339.91 622.429 1339.84L1472.09 1334.2C1481.7 1334.13 1489.39 1327.95 1489.18 1320.46C1488.98 1313.18 1481.37 1307.35 1472.02 1307.32L622.339 1304.3C607.339 1304.25 596.361 1315.3 600.186 1326.6Z" fill="white"/>
</g>
<g opacity="0.6">
<path d="M600.186 1480.01C602.845 1487.87 612.003 1493.32 622.429 1493.25L1472.09 1487.6C1481.7 1487.54 1489.39 1481.36 1489.18 1473.87C1488.98 1466.59 1481.37 1460.76 1472.02 1460.72L622.339 1457.7C607.339 1457.65 596.361 1468.71 600.186 1480.01Z" fill="white"/>
</g>
<g opacity="0.6">
<path d="M600.186 1633.41C602.845 1641.27 612.003 1646.72 622.429 1646.65L1472.09 1641.01C1481.7 1640.94 1489.39 1634.77 1489.18 1627.28C1488.98 1619.99 1481.37 1614.16 1472.02 1614.13L622.339 1611.11C607.339 1611.06 596.361 1622.11 600.186 1633.41Z" fill="white"/>
</g>
<g opacity="0.6">
<path d="M600.186 1786.82C602.845 1794.68 612.003 1800.13 622.429 1800.06L1472.09 1794.41C1481.7 1794.35 1489.39 1788.17 1489.18 1780.68C1488.98 1773.4 1481.37 1767.57 1472.02 1767.54L622.339 1764.52C607.339 1764.46 596.361 1775.52 600.186 1786.82Z" fill="white"/>
</g>
<path d="M1077.78 173.43C1041.52 148.207 1010 148.707 987.808 155.255C967.563 161.228 954.443 180.773 956.369 201.792L965.939 306.253L1079.82 316.36C1079.82 316.36 1148.88 222.895 1077.78 173.43ZM1027.7 257.703C1012.01 257.703 999.301 244.99 999.301 229.307C999.301 213.623 1012.02 200.91 1027.7 200.91C1043.38 200.91 1056.09 213.623 1056.09 229.307C1056.09 244.99 1043.38 257.703 1027.7 257.703Z" fill="#CC5F46"/>
<path d="M977.315 262.311C975.91 262.311 974.711 261.24 974.582 259.812L973.057 243.176C972.918 241.665 974.032 240.328 975.543 240.188C977.084 240.044 978.393 241.163 978.529 242.677L980.054 259.313C980.193 260.824 979.079 262.16 977.568 262.3C977.483 262.308 977.398 262.311 977.315 262.311ZM974.328 229.709C972.923 229.709 971.725 228.639 971.595 227.211L970.437 214.581C968.601 194.558 981.201 175.914 1000.39 170.249C1013.99 166.237 1027.99 165.663 1042.02 168.54C1043.5 168.843 1044.46 170.298 1044.16 171.784C1043.85 173.268 1042.41 174.218 1040.91 173.923C1027.77 171.234 1014.67 171.768 1001.95 175.52C985.264 180.444 974.312 196.662 975.908 214.081L977.066 226.711C977.206 228.222 976.092 229.559 974.581 229.698C974.496 229.707 974.411 229.709 974.328 229.709Z" fill="white"/>
<path d="M810.508 373.76V321.24C810.508 303.111 825.534 288.591 843.653 289.211L1205.75 301.617C1221.82 302.168 1234.84 314.851 1235.8 330.902L1238.83 381.365L810.508 373.76Z" fill="#CC5F46"/>
<path d="M945.525 309H929.953C928.435 309 927.205 307.771 927.205 306.252C927.205 304.733 928.435 303.504 929.953 303.504H945.525C947.043 303.504 948.273 304.733 948.273 306.252C948.273 307.771 947.043 309 945.525 309Z" fill="white"/>
<path d="M830.107 357.268C828.59 357.268 827.359 356.039 827.359 354.52V333.274C827.359 316.858 840.714 303.504 857.13 303.504H914.381C915.898 303.504 917.129 304.733 917.129 306.252C917.129 307.771 915.898 309 914.381 309H857.13C843.746 309 832.855 319.89 832.855 333.274V354.52C832.855 356.039 831.625 357.268 830.107 357.268Z" fill="white"/>
<path d="M662.966 387.022C663.84 368.836 678.84 354.539 697.047 354.539L1330.25 354.521C1353.02 354.521 1372.48 370.905 1376.36 393.34L1376.9 396.436C1381.15 421.009 1362.23 443.484 1337.3 443.484H687.67C672.745 443.484 660.852 431.006 661.568 416.098L662.966 387.022Z" fill="#E76F51"/>
<path d="M937.818 1821.48H27.5254V2033.63H937.818V1821.48Z" fill="#12423C"/>
<path d="M949.999 2020.05H14.3459C11.1592 2020.05 8.57617 2017.47 8.57617 2014.28V1938.58H953.854V2016.19C953.854 2018.32 952.127 2020.05 949.999 2020.05Z" fill="#2A9D8E"/>
<path d="M948.135 1927.55H15.7155C11.7737 1927.55 8.57812 1924.36 8.57812 1920.42V1846.09H953.855V1921.83C953.855 1924.99 951.294 1927.55 948.135 1927.55Z" fill="#2A9D8E"/>
<path d="M953.854 1846.09H8.57617V1821.43C8.57617 1818.18 11.2152 1815.54 14.4705 1815.54H947.885C951.181 1815.54 953.854 1818.21 953.854 1821.51V1846.09Z" fill="#12423C"/>
<path d="M1784.67 1916.52C1815.3 1931.41 1826.11 1972.33 1808.8 2007.92C1791.5 2043.5 1752.64 2060.27 1722.01 2045.38C1691.38 2030.48 1680.58 1989.56 1697.88 1953.98C1715.19 1918.4 1754.05 1901.62 1784.67 1916.52Z" fill="#E76F51"/>
<path d="M1735.1 1932.2L1703.74 1996.7C1702.61 1999.02 1699.82 1999.99 1697.5 1998.86L1658.25 1979.77C1655.93 1978.64 1654.97 1975.85 1656.09 1973.53L1687.46 1909.03C1688.59 1906.72 1691.38 1905.75 1693.69 1906.88L1732.95 1925.97C1735.27 1927.09 1736.23 1929.88 1735.1 1932.2Z" fill="#D8715A"/>
<path d="M1694.89 1901.08C1689.26 1929.96 1676.44 1955.76 1656.95 1978.69C1646.41 1991.09 1629.51 1996.64 1612.71 1993.26C1452.02 1961 1115.25 1752.85 788.192 1571.02C766.517 1558.97 751.537 1545.3 761.751 1524.29L784.306 1477.91C794.457 1457.03 818.749 1468.79 841.545 1478.15C1187.5 1620.28 1554.42 1744.18 1680.39 1858.81C1692.48 1869.81 1697.86 1885.84 1694.89 1901.08Z" fill="#E76F51"/>
<path d="M836.762 1430.5L760.187 1587.97C759.106 1590.2 756.426 1591.12 754.203 1590.04L713.809 1570.4C711.586 1569.32 710.66 1566.64 711.741 1564.41L788.316 1406.94C789.397 1404.72 792.076 1403.79 794.3 1404.88L834.694 1424.52C836.917 1425.6 837.843 1428.28 836.762 1430.5Z" fill="#CC5F46"/>
<path d="M496.391 1273.31L419.816 1430.78C418.734 1433 416.055 1433.92 413.832 1432.84L373.438 1413.2C371.214 1412.12 370.289 1409.44 371.37 1407.22L447.945 1249.75C449.026 1247.52 451.705 1246.6 453.929 1247.68L494.323 1267.32C496.546 1268.4 497.472 1271.08 496.391 1273.31Z" fill="#D8715A"/>
<path d="M870.362 1276.72L628.401 1774.29L291.301 1610.37L533.262 1112.79L870.362 1276.72Z" fill="#E76F51"/>
<path d="M641.161 1748.05L610.731 1810.63L273.631 1646.7L304.06 1584.13L641.161 1748.05Z" fill="#CC5F46"/>
<path d="M624.474 1782.37L609.351 1813.47C604.727 1822.98 593.897 1827.75 583.761 1824.74C478.678 1793.53 376.975 1744.9 279.123 1676.42C270.555 1670.43 267.614 1659.08 272.187 1649.67L287.374 1618.44L624.474 1782.37Z" fill="#E76F51"/>
<path d="M658.512 1735.47L645.903 1761.4C644.777 1763.71 641.986 1764.68 639.67 1763.55L286.734 1591.92C284.419 1590.8 283.454 1588.01 284.58 1585.69L297.188 1559.76C298.314 1557.45 301.105 1556.48 303.421 1557.61L656.357 1729.24C658.674 1730.36 659.638 1733.15 658.512 1735.47Z" fill="#CC5F46"/>
<path d="M656.497 1739.62L647.921 1757.25C646.902 1759.35 644.374 1760.22 642.275 1759.2L288.55 1587.19C286.452 1586.17 285.578 1583.64 286.598 1581.55L295.173 1563.91C296.193 1561.81 298.721 1560.94 300.82 1561.96L654.545 1733.97C656.643 1734.99 657.517 1737.52 656.497 1739.62Z" fill="#E76F51"/>
<path d="M872.325 1272.68L902.754 1210.11L565.653 1046.18L535.225 1108.76L872.325 1272.68Z" fill="#CC5F46"/>
<path d="M889.012 1238.37L904.135 1207.27C908.759 1197.76 905.823 1186.3 897.196 1180.18C807.76 1116.8 706.708 1066.83 592.421 1032.15C582.414 1029.11 571.671 1033.81 567.099 1043.21L551.912 1074.44L889.012 1238.37Z" fill="#E76F51"/>
<path d="M873.141 1294.1L885.75 1268.17C886.876 1265.86 885.911 1263.07 883.595 1261.94L530.66 1090.31C528.344 1089.19 525.553 1090.15 524.427 1092.47L511.818 1118.4C510.692 1120.71 511.656 1123.5 513.972 1124.63L866.908 1296.26C869.225 1297.38 872.015 1296.42 873.141 1294.1Z" fill="#CC5F46"/>
<path d="M875.157 1289.95L883.732 1272.32C884.752 1270.22 883.878 1267.69 881.78 1266.67L528.055 1094.66C525.957 1093.64 523.429 1094.52 522.409 1096.61L513.834 1114.25C512.814 1116.35 513.688 1118.87 515.786 1119.9L869.511 1291.91C871.609 1292.92 874.137 1292.05 875.157 1289.95Z" fill="#E76F51"/>
<defs>
<linearGradient id="paint0_linear_753_8" x1="262.454" y1="1542.59" x2="1308.7" y2="2207.26" gradientUnits="userSpaceOnUse">
<stop stop-color="#A737D5"/>
<stop offset="1" stop-color="#EF497A"/>
</linearGradient>
<linearGradient id="paint1_linear_753_8" x1="503.864" y1="994.861" x2="1470.1" y2="1767.23" gradientUnits="userSpaceOnUse">
<stop stop-color="#A737D5"/>
<stop offset="1" stop-color="#EF497A"/>
</linearGradient>
</defs>
</svg>
