<svg width="689" height="409" viewBox="0 0 689 409" fill="none" xmlns="http://www.w3.org/2000/svg">
<g opacity="0.34">
<g opacity="0.6">
<path d="M599.991 262.455C604.779 283.592 603.968 302.953 597.581 323.657C589.588 349.564 571.567 373.659 545.82 388.496C536.783 393.704 527.082 397.619 516.978 400.402C515.33 403.028 513.545 405.571 511.65 408.03H597.882C619.813 381.926 632.378 348.459 634.356 314.403C634.891 305.192 634.652 295.937 633.613 286.774C629.59 251.262 613.85 217.427 590.218 190.586C589.868 192.472 589.57 194.364 589.353 196.265C586.776 218.877 595.075 240.754 599.991 262.455Z" fill="#E76F51"/>
</g>
<g opacity="0.41">
<path d="M333.012 402.77C327.955 395.779 323.996 386.87 318.63 379.732C307.138 382.069 295.79 385.479 284.313 388.42C260.826 394.438 236.629 398.914 212.391 399.247C185.46 399.616 157.998 394.425 134.574 380.588C116.711 370.036 101.002 353.913 92.5078 334.664C94.8788 361.213 104.506 387.102 120.728 408.03H337.091C335.677 406.323 334.314 404.571 333.012 402.77Z" fill="#E76F51"/>
</g>
<g opacity="0.41">
<path d="M367.126 38.5384C373.67 38.3164 380.706 37.9244 388.383 37.3434C424.208 34.6314 459.695 42.7934 494.105 54.0654C497.425 55.1524 500.727 56.3234 504.005 57.5724C489.186 41.2724 470.291 28.5914 449.499 21.3864C408.347 7.12738 358.442 12.7964 322.193 35.2504C337.087 35.2884 352.077 36.4124 367.126 38.5384Z" fill="#E76F51"/>
</g>
<g opacity="0.35">
<path d="M133.701 380.859C157.058 394.383 184.494 399.55 211.427 399.327C235.667 399.126 259.884 394.91 283.401 389.196C294.892 386.404 306.257 383.157 317.759 380.95C313.061 374.832 307.263 370.042 298.639 369.017C265.275 365.052 230.169 378.804 196.954 381.141C174.636 382.711 150.928 379.685 132.89 366.34C121.189 357.683 112.651 345.208 106.831 331.801C94.7547 303.982 94.4307 272.06 104.632 243.624C111.535 224.38 128.308 209.756 134.175 190.149C139.076 173.772 133.396 156.678 134.998 140.124C135.325 136.748 135.954 133.395 137.038 130.075C142.783 112.478 170.374 87.0544 187.284 78.5594C227.811 58.2004 270.106 48.2964 313.238 47.2854C288.72 43.1844 265.514 35.8094 224.415 27.0784C175.597 16.7074 120.753 52.5344 91.9467 94.2124C89.0087 98.4624 86.4257 102.926 84.1987 107.549C74.2357 128.238 71.4237 152.134 76.0427 174.51C81.4727 200.815 98.2567 221.088 92.2577 249.092C88.6037 266.149 87.6317 281.963 85.7377 298.849C84.2577 312.047 86.6947 324.664 91.8577 336.152C100.258 354.847 115.89 370.546 133.701 380.859Z" fill="#E76F51"/>
</g>
<g opacity="0.47">
<path d="M388.386 37.3427C380.708 37.9237 373.672 38.3157 367.129 38.5377C389.355 41.6787 411.708 47.0057 434.067 54.3587C434.07 54.3597 517.616 81.8367 517.616 81.8367C556.882 94.7507 582.908 132.384 580.462 173.646C580.446 173.917 580.429 174.189 580.411 174.46C578.847 198.378 570.871 221.823 557.697 241.483C545.768 259.284 529.306 279.194 525.184 301.042C521.901 318.451 528.993 336.049 529.856 353.767C530.677 370.612 525.642 386.596 516.979 400.402C527.083 397.618 536.784 393.703 545.821 388.496C571.568 373.659 589.589 349.564 597.582 323.657C603.969 302.954 604.78 283.593 599.992 262.455C595.076 240.753 586.777 218.876 589.354 196.264C589.57 194.364 589.869 192.472 590.219 190.585C592.768 176.83 598.199 163.392 597.038 149.494C596.161 138.993 591.537 129.141 585.883 120.248C567.113 90.7277 536.833 70.0797 504.008 57.5707C500.73 56.3217 497.428 55.1507 494.108 54.0637C459.698 42.7937 424.21 34.6307 388.386 37.3427Z" fill="#E76F51"/>
</g>
<g opacity="0.7">
<path d="M136.655 121.745C135.588 125.177 134.975 128.641 134.665 132.127C133.146 149.219 138.91 166.833 134.091 183.76C128.322 204.025 111.623 219.205 104.816 239.102C94.7574 268.502 95.2404 301.447 107.456 330.095C113.343 343.902 121.943 356.734 133.688 365.608C151.793 379.288 175.515 382.288 197.825 380.553C231.028 377.971 266.065 363.596 299.448 367.516C308.077 368.529 313.899 373.443 318.627 379.733C323.993 386.87 327.952 395.779 333.009 402.771C334.312 404.572 335.674 406.324 337.087 408.03H511.648C513.544 405.571 515.328 403.029 516.976 400.402C525.64 386.597 530.674 370.612 529.853 353.767C528.99 336.049 521.897 318.451 525.181 301.042C529.302 279.194 545.764 259.284 557.694 241.483C570.868 221.823 578.844 198.378 580.408 174.46C580.426 174.189 580.443 173.918 580.459 173.646C582.905 132.384 556.879 94.7498 517.613 81.8368C517.613 81.8368 434.067 54.3598 434.064 54.3588C411.705 47.0058 389.352 41.6788 367.126 38.5378C352.077 36.4108 337.087 35.2868 322.193 35.2498C318.936 35.2418 315.686 35.2958 312.439 35.3918C269.312 36.6588 227.068 47.0978 186.643 68.3188C169.775 77.1728 142.311 103.554 136.655 121.745Z" fill="#E76F51"/>
</g>
<g opacity="0.35">
<path d="M290.941 27.168C298.444 27.168 304.525 21.0862 304.525 13.584C304.525 6.08177 298.444 0 290.941 0C283.439 0 277.357 6.08177 277.357 13.584C277.357 21.0862 283.439 27.168 290.941 27.168Z" fill="#E76F51"/>
</g>
<g opacity="0.35">
<path d="M658.086 205.825C675.028 205.825 688.762 192.091 688.762 175.149C688.762 158.207 675.028 144.473 658.086 144.473C641.144 144.473 627.41 158.207 627.41 175.149C627.41 192.091 641.144 205.825 658.086 205.825Z" fill="#E76F51"/>
</g>
<g opacity="0.35">
<path d="M62.7999 257.528C75.8316 246.702 77.6198 227.361 66.7939 214.33C55.9681 201.298 36.6277 199.51 23.596 210.336C10.5643 221.161 8.7761 240.502 19.602 253.533C30.4278 266.565 49.7682 268.353 62.7999 257.528Z" fill="#E76F51"/>
</g>
<g opacity="0.35">
<path d="M530.585 51.5443C535.731 51.5443 539.904 47.372 539.904 42.2253C539.904 37.0785 535.731 32.9062 530.585 32.9062C525.438 32.9062 521.266 37.0785 521.266 42.2253C521.266 47.372 525.438 51.5443 530.585 51.5443Z" fill="#E76F51"/>
</g>
</g>
<path d="M642.69 404.209H65.5996C64.9556 404.209 64.4336 403.687 64.4336 403.043V402.603C64.4336 401.959 64.9556 401.438 65.5996 401.438H642.689C643.333 401.438 643.855 401.959 643.855 402.603V403.043C643.856 403.687 643.334 404.209 642.69 404.209Z" fill="#264653" stroke="#264653" stroke-width="3" stroke-miterlimit="10"/>
<g opacity="0.57">
<path d="M230.4 315.893C229.847 315.893 229.4 315.446 229.4 314.893C229.4 280.671 243.723 247.612 268.698 224.192C273.114 220.05 277.874 216.198 282.845 212.743C283.297 212.429 283.921 212.54 284.237 212.994C284.552 213.448 284.44 214.071 283.986 214.386C279.096 217.785 274.413 221.576 270.066 225.652C245.494 248.695 231.401 281.222 231.401 314.894C231.4 315.446 230.953 315.893 230.4 315.893Z" fill="#2A9D8F"/>
<path d="M477.037 315.893C476.484 315.893 476.037 315.446 476.037 314.893C476.037 300.928 473.703 287.233 469.1 274.189C468.916 273.667 469.19 273.097 469.71 272.913C470.232 272.734 470.802 273.004 470.986 273.523C475.664 286.782 478.036 300.701 478.036 314.893C478.037 315.446 477.589 315.893 477.037 315.893Z" fill="#2A9D8F"/>
<path d="M467.379 267.97C466.989 267.97 466.619 267.741 466.458 267.359C456.843 244.583 440.743 225.442 419.898 212.007C419.434 211.708 419.3 211.089 419.599 210.625C419.899 210.161 420.517 210.026 420.982 210.327C442.166 223.981 458.528 243.434 468.299 266.583C468.514 267.092 468.276 267.678 467.767 267.892C467.641 267.945 467.509 267.97 467.379 267.97Z" fill="#2A9D8F"/>
<path d="M291.51 209.391C291.166 209.391 290.832 209.214 290.646 208.896C290.368 208.419 290.528 207.807 291.004 207.528C309.952 196.436 331.638 190.572 353.718 190.572C372.108 190.572 389.813 194.493 406.341 202.227C406.841 202.461 407.057 203.056 406.822 203.557C406.588 204.056 405.993 204.272 405.493 204.039C389.232 196.431 371.812 192.573 353.718 192.573C331.993 192.573 310.657 198.342 292.014 209.254C291.856 209.347 291.682 209.391 291.51 209.391Z" fill="#2A9D8F"/>
<path d="M208.451 315.893C207.898 315.893 207.451 315.446 207.451 314.893C207.451 256.9 241.755 204.326 294.845 180.956C295.356 180.73 295.941 180.963 296.163 181.468C296.386 181.973 296.156 182.564 295.651 182.786C243.286 205.837 209.451 257.693 209.451 314.893C209.451 315.446 209.003 315.893 208.451 315.893Z" fill="#2A9D8F"/>
<path d="M498.986 315.892C498.433 315.892 497.986 315.445 497.986 314.892C497.986 269.41 476.145 226.06 439.562 198.932C439.119 198.603 439.026 197.977 439.354 197.533C439.684 197.09 440.311 196.998 440.754 197.325C458.729 210.654 473.63 228.189 483.847 248.034C494.556 268.837 499.987 291.331 499.987 314.891C499.986 315.445 499.539 315.892 498.986 315.892Z" fill="#2A9D8F"/>
<path d="M431.503 193.183C431.319 193.183 431.134 193.133 430.968 193.027C428.01 191.148 424.945 189.354 421.856 187.696C421.369 187.435 421.186 186.829 421.448 186.342C421.709 185.856 422.315 185.672 422.801 185.934C425.933 187.615 429.041 189.434 432.04 191.339C432.506 191.635 432.644 192.254 432.348 192.719C432.158 193.019 431.834 193.183 431.503 193.183Z" fill="#2A9D8F"/>
<path d="M415.927 184.58C415.783 184.58 415.638 184.549 415.499 184.483C396.12 175.286 375.334 170.623 353.718 170.623C337.91 170.623 322.371 173.163 307.534 178.173C307.004 178.35 306.442 178.069 306.266 177.546C306.089 177.023 306.371 176.455 306.893 176.279C321.937 171.199 337.691 168.623 353.717 168.623C375.632 168.623 396.707 173.352 416.356 182.677C416.855 182.914 417.068 183.51 416.831 184.009C416.661 184.369 416.301 184.58 415.927 184.58Z" fill="#2A9D8F"/>
<path d="M523.32 315.892C522.767 315.892 522.32 315.445 522.32 314.892C522.32 296.327 519.322 278.081 513.409 260.663C513.232 260.141 513.512 259.572 514.035 259.394C514.56 259.218 515.127 259.497 515.304 260.02C521.286 277.645 524.321 296.106 524.321 314.891C524.32 315.445 523.872 315.892 523.32 315.892Z" fill="#2A9D8F"/>
<path d="M510.818 251.867C510.424 251.867 510.05 251.633 509.892 251.245C497.985 222.059 478.145 196.82 452.515 178.257C452.068 177.933 451.968 177.308 452.292 176.861C452.614 176.413 453.239 176.313 453.688 176.637C479.62 195.42 499.695 220.958 511.743 250.49C511.952 251.002 511.706 251.586 511.195 251.794C511.072 251.843 510.944 251.867 510.818 251.867Z" fill="#2A9D8F"/>
<path d="M443.375 171.901C443.194 171.901 443.012 171.852 442.847 171.75C416.156 155.096 385.335 146.292 353.718 146.292C339.468 146.292 325.31 148.073 311.639 151.585C311.107 151.721 310.559 151.401 310.421 150.865C310.283 150.33 310.606 149.785 311.141 149.647C324.975 146.093 339.3 144.291 353.718 144.291C385.71 144.291 416.897 153.199 443.906 170.051C444.375 170.344 444.517 170.961 444.225 171.429C444.036 171.734 443.709 171.901 443.375 171.901Z" fill="#2A9D8F"/>
<path d="M279.146 163.525C278.776 163.525 278.42 163.319 278.247 162.965C278.004 162.469 278.208 161.87 278.704 161.627C283.918 159.071 289.318 156.76 294.755 154.757C295.272 154.567 295.848 154.831 296.039 155.35C296.229 155.869 295.965 156.443 295.446 156.634C290.073 158.613 284.736 160.897 279.585 163.423C279.444 163.492 279.293 163.525 279.146 163.525Z" fill="#2A9D8F"/>
<path d="M184.119 315.892C183.566 315.892 183.119 315.445 183.119 314.892C183.119 284.598 191.162 254.843 206.377 228.844C221.145 203.611 242.279 182.451 267.496 167.653C267.973 167.374 268.585 167.533 268.864 168.009C269.143 168.486 268.984 169.098 268.508 169.378C217.072 199.564 185.119 255.322 185.119 314.893C185.119 315.445 184.671 315.892 184.119 315.892Z" fill="#2A9D8F"/>
</g>
<g opacity="0.22">
<path d="M166.219 307.454C165.391 307.454 164.719 306.782 164.719 305.954C164.719 279.367 170.13 253.659 180.802 229.543C191.112 206.248 205.801 185.562 224.462 168.062C231.181 161.762 238.417 155.906 245.969 150.656C246.65 150.183 247.584 150.35 248.057 151.032C248.53 151.712 248.362 152.647 247.682 153.119C240.248 158.286 233.127 164.05 226.515 170.25C189.149 205.289 167.719 254.751 167.719 305.953C167.719 306.782 167.047 307.454 166.219 307.454Z" fill="#2A9D8F"/>
<path d="M541.217 307.453C540.389 307.453 539.717 306.781 539.717 305.953C539.717 284.72 536.169 263.894 529.17 244.057C528.895 243.276 529.305 242.419 530.086 242.143C530.866 241.872 531.724 242.277 532 243.059C539.111 263.218 542.717 284.379 542.717 305.954C542.717 306.781 542.045 307.453 541.217 307.453Z" fill="#2A9D8F"/>
<path d="M526.533 234.589C525.948 234.589 525.392 234.245 525.15 233.672C510.53 199.039 486.049 169.934 454.352 149.503C453.656 149.054 453.454 148.126 453.904 147.43C454.354 146.732 455.285 146.534 455.977 146.982C488.183 167.741 513.058 197.315 527.913 232.507C528.235 233.27 527.878 234.15 527.114 234.472C526.924 234.551 526.727 234.589 526.533 234.589Z" fill="#2A9D8F"/>
<path d="M259.132 145.524C258.617 145.524 258.115 145.258 257.836 144.782C257.418 144.067 257.658 143.148 258.373 142.73C287.181 125.867 320.15 116.953 353.718 116.953C381.676 116.953 408.593 122.914 433.721 134.672C434.471 135.023 434.795 135.916 434.444 136.666C434.093 137.417 433.202 137.74 432.45 137.389C407.723 125.819 381.234 119.953 353.718 119.953C320.683 119.953 288.238 128.724 259.889 145.319C259.651 145.458 259.39 145.524 259.132 145.524Z" fill="#2A9D8F"/>
<path d="M132.844 307.452C132.016 307.452 131.344 306.78 131.344 305.952C131.344 217.784 183.497 137.856 264.211 102.326C264.972 101.993 265.856 102.337 266.189 103.095C266.523 103.853 266.178 104.739 265.42 105.073C185.794 140.124 134.344 218.974 134.344 305.953C134.344 306.78 133.672 307.452 132.844 307.452Z" fill="#2A9D8F"/>
<path d="M574.591 307.453C573.763 307.453 573.091 306.781 573.091 305.953C573.091 236.791 539.881 170.874 484.253 129.626C483.588 129.132 483.448 128.193 483.942 127.527C484.436 126.861 485.375 126.722 486.041 127.215C513.368 147.479 536.022 174.137 551.555 204.308C567.836 235.934 576.092 270.133 576.092 305.952C576.091 306.781 575.419 307.453 574.591 307.453Z" fill="#2A9D8F"/>
<path d="M471.988 120.88C471.713 120.88 471.434 120.805 471.184 120.646C466.678 117.784 462.016 115.057 457.328 112.54C456.598 112.148 456.323 111.239 456.716 110.509C457.109 109.779 458.02 109.507 458.746 109.897C463.5 112.448 468.225 115.213 472.794 118.114C473.493 118.558 473.699 119.485 473.256 120.184C472.969 120.634 472.484 120.88 471.988 120.88Z" fill="#2A9D8F"/>
<path d="M448.305 107.801C448.089 107.801 447.87 107.754 447.662 107.656C418.195 93.6711 386.588 86.5801 353.718 86.5801C329.68 86.5801 306.052 90.4431 283.491 98.0611C282.707 98.3261 281.855 97.9041 281.591 97.1201C281.325 96.3351 281.747 95.4841 282.532 95.2191C305.403 87.4961 329.353 83.5801 353.718 83.5801C387.036 83.5801 419.076 90.7681 448.95 104.946C449.698 105.301 450.016 106.195 449.662 106.944C449.405 107.484 448.867 107.801 448.305 107.801Z" fill="#2A9D8F"/>
<path d="M611.587 307.453C610.759 307.453 610.087 306.781 610.087 305.953C610.087 277.72 605.528 249.976 596.539 223.495C596.272 222.71 596.692 221.858 597.477 221.592C598.261 221.326 599.113 221.746 599.379 222.53C608.475 249.324 613.087 277.391 613.087 305.953C613.087 306.781 612.415 307.453 611.587 307.453Z" fill="#2A9D8F"/>
<path d="M592.581 210.107C591.989 210.107 591.429 209.754 591.191 209.173C573.085 164.795 542.916 126.418 503.946 98.1898C503.275 97.7038 503.125 96.7658 503.611 96.0948C504.096 95.4228 505.036 95.2748 505.706 95.7598C545.131 124.317 575.651 163.143 593.969 208.04C594.282 208.807 593.914 209.682 593.147 209.995C592.96 210.07 592.769 210.107 592.581 210.107Z" fill="#2A9D8F"/>
<path d="M490.038 88.521C489.767 88.521 489.492 88.448 489.245 88.293C448.66 62.969 401.796 49.584 353.719 49.584C332.05 49.584 310.523 52.292 289.735 57.632C288.932 57.84 288.115 57.354 287.909 56.553C287.703 55.751 288.186 54.933 288.989 54.727C310.02 49.324 331.799 46.584 353.719 46.584C402.359 46.584 449.772 60.127 490.833 85.749C491.536 86.187 491.75 87.113 491.311 87.815C491.027 88.271 490.538 88.521 490.038 88.521Z" fill="#2A9D8F"/>
<path d="M240.334 75.7847C239.779 75.7847 239.247 75.4757 238.986 74.9447C238.621 74.2007 238.928 73.3017 239.672 72.9377C247.592 69.0537 255.802 65.5397 264.073 62.4927C264.851 62.2077 265.714 62.6047 265.999 63.3817C266.286 64.1587 265.888 65.0217 265.11 65.3077C256.934 68.3187 248.82 71.7917 240.992 75.6307C240.782 75.7357 240.556 75.7847 240.334 75.7847Z" fill="#2A9D8F"/>
<path d="M95.8496 307.453C95.0216 307.453 94.3496 306.781 94.3496 305.953C94.3496 259.895 106.578 214.659 129.71 175.132C152.162 136.769 184.293 104.599 222.631 82.1008C223.344 81.6828 224.265 81.9198 224.684 82.6348C225.103 83.3488 224.864 84.2688 224.149 84.6878C145.937 130.588 97.3496 215.372 97.3496 305.953C97.3496 306.781 96.6776 307.453 95.8496 307.453Z" fill="#2A9D8F"/>
</g>
<path d="M403.916 327.805C402.771 327.805 401.631 327.561 400.558 327.074C398.561 326.168 397.04 324.53 396.277 322.463L393.831 315.838C388.465 316.742 383.08 316.585 377.799 315.37L374.859 321.851C373.945 323.865 372.31 325.406 370.256 326.192C368.199 326.978 365.964 326.915 363.966 326.008C359.848 324.139 358.032 319.234 359.919 315.073L362.86 308.591C358.464 305.417 354.799 301.469 351.948 296.836L345.351 299.357C343.291 300.145 341.059 300.08 339.061 299.173C337.064 298.267 335.543 296.629 334.78 294.562C333.207 290.302 335.378 285.519 339.618 283.898L346.231 281.369C345.375 275.964 345.576 270.53 346.832 265.192L340.436 262.292C336.318 260.423 334.502 255.518 336.389 251.356C337.303 249.342 338.938 247.801 340.993 247.015C343.05 246.229 345.285 246.292 347.283 247.199L353.68 250.101C356.869 245.641 360.825 241.91 365.456 238.995L363.003 232.354C361.43 228.094 363.601 223.311 367.841 221.689C369.902 220.901 372.134 220.967 374.13 221.873C376.128 222.778 377.649 224.416 378.413 226.484L380.859 233.109C386.222 232.204 391.608 232.36 396.891 233.578L399.831 227.096C401.719 222.936 406.607 221.07 410.724 222.94C412.721 223.845 414.242 225.483 415.006 227.55C415.768 229.615 415.685 231.86 414.772 233.873L411.831 240.354C416.224 243.527 419.89 247.475 422.743 252.11L429.339 249.588C431.399 248.8 433.631 248.865 435.629 249.772C437.627 250.678 439.148 252.316 439.911 254.383C441.483 258.642 439.313 263.426 435.073 265.046L428.46 267.575C429.316 272.981 429.114 278.415 427.859 283.752L434.255 286.654C438.374 288.522 440.19 293.427 438.303 297.588C436.414 301.749 431.528 303.615 427.409 301.744L421.013 298.844C417.823 303.304 413.866 307.034 409.237 309.949L411.69 316.591C413.262 320.85 411.091 325.634 406.852 327.255C405.896 327.624 404.905 327.805 403.916 327.805ZM395.124 313.566L398.153 321.769C398.729 323.332 399.878 324.569 401.384 325.252C402.891 325.938 404.58 325.985 406.133 325.391C409.355 324.159 411.004 320.523 409.809 317.288L406.787 309.101L407.495 308.674C412.423 305.702 416.577 301.784 419.843 297.027L420.317 296.336L428.233 299.926C431.345 301.341 435.044 299.92 436.479 296.765C437.911 293.609 436.541 289.891 433.426 288.479L425.511 284.887L425.719 284.074C427.149 278.486 427.361 272.779 426.351 267.112L426.205 266.297L434.355 263.181C437.577 261.949 439.226 258.314 438.031 255.078C437.455 253.515 436.306 252.278 434.8 251.595C433.294 250.91 431.607 250.865 430.051 251.457L421.883 254.581L421.453 253.852C418.547 248.913 414.696 244.762 410.007 241.518L409.32 241.043L412.947 233.048C413.642 231.517 413.706 229.811 413.127 228.244C412.55 226.682 411.402 225.444 409.896 224.762C406.782 223.346 403.082 224.767 401.65 227.923L398.024 235.918L397.214 235.714C391.682 234.322 386.025 234.157 380.395 235.224L379.563 235.381L376.534 227.178C375.957 225.615 374.809 224.378 373.302 223.695C371.797 223.012 370.11 222.963 368.554 223.557C365.331 224.789 363.682 228.424 364.878 231.661L367.9 239.847L367.192 240.274C362.262 243.246 358.108 247.165 354.844 251.921L354.37 252.612L346.454 249.021C344.946 248.336 343.261 248.288 341.704 248.883C340.145 249.48 338.903 250.651 338.209 252.182C336.777 255.338 338.146 259.057 341.26 260.47L349.176 264.06L348.968 264.873C347.538 270.461 347.326 276.168 348.336 281.835L348.481 282.649L340.331 285.765C337.108 286.997 335.459 290.632 336.655 293.869C337.231 295.432 338.379 296.669 339.885 297.352C341.394 298.036 343.081 298.083 344.634 297.49L352.803 294.366L353.233 295.095C356.136 300.033 359.988 304.182 364.679 307.428L365.366 307.903L361.739 315.899C360.306 319.055 361.675 322.772 364.79 324.186C366.299 324.87 367.985 324.918 369.54 324.323C371.1 323.726 372.341 322.555 373.035 321.024L376.663 313.029L377.473 313.233C383.003 314.624 388.663 314.787 394.292 313.722L395.124 313.566ZM387.045 305.099C382.891 305.099 378.681 304.238 374.667 302.417C367.283 299.066 361.662 293.01 358.838 285.362C356.015 277.717 356.324 269.398 359.709 261.937C363.095 254.475 369.15 248.763 376.762 245.853C384.376 242.941 392.637 243.184 400.02 246.531C415.257 253.444 421.967 271.602 414.978 287.011C409.829 298.36 398.661 305.099 387.045 305.099ZM387.609 245.834C384.196 245.834 380.772 246.462 377.476 247.722C370.36 250.444 364.697 255.786 361.532 262.765C358.365 269.744 358.075 277.524 360.715 284.67C363.353 291.813 368.602 297.469 375.494 300.596C389.729 307.056 406.623 300.588 413.156 286.186C419.69 271.783 413.427 254.811 399.194 248.355C395.496 246.676 391.56 245.834 387.609 245.834Z" fill="white"/>
<path d="M305.165 313.146C303.659 313.146 302.245 312.57 301.172 311.519C300.077 310.446 299.47 309.007 299.463 307.468L299.443 303.112C296.079 302.458 292.924 301.204 290.043 299.375L286.969 302.516C285.888 303.619 284.447 304.24 282.911 304.264C281.325 304.315 279.919 303.711 278.824 302.638C277.729 301.566 277.122 300.127 277.115 298.586C277.108 297.051 277.699 295.598 278.778 294.495L281.854 291.354C279.967 288.511 278.648 285.383 277.924 282.035L273.569 282.104C272.054 282.098 270.578 281.55 269.482 280.478C268.387 279.405 267.78 277.966 267.773 276.427C267.759 273.258 270.325 270.638 273.493 270.586L277.867 270.516C278.558 267.139 279.849 263.963 281.715 261.055L278.62 258.023C277.525 256.95 276.917 255.511 276.91 253.97C276.903 252.434 277.494 250.981 278.574 249.878C279.653 248.775 281.094 248.155 282.63 248.13C284.209 248.124 285.622 248.684 286.717 249.756L289.812 252.788C292.681 250.862 295.83 249.506 299.193 248.744L299.173 244.371C299.159 241.201 301.725 238.582 304.894 238.531C306.448 238.53 307.885 239.085 308.98 240.157C310.076 241.229 310.682 242.669 310.689 244.209L310.71 248.564C314.073 249.218 317.228 250.473 320.109 252.301L323.184 249.16V249.161C324.264 248.057 325.705 247.436 327.241 247.412C328.786 247.363 330.232 247.964 331.329 249.037C333.586 251.249 333.605 254.901 331.374 257.181L328.298 260.322C330.186 263.167 331.505 266.295 332.228 269.642L336.583 269.572C338.151 269.585 339.576 270.126 340.67 271.198C341.766 272.27 342.372 273.71 342.379 275.25C342.395 278.419 339.829 281.039 336.659 281.09L332.286 281.16C331.594 284.538 330.304 287.714 328.439 290.622L331.534 293.653C333.792 295.866 333.81 299.519 331.578 301.798C330.499 302.901 329.058 303.522 327.522 303.546C325.991 303.585 324.531 302.994 323.435 301.92L320.34 298.889C317.47 300.814 314.321 302.171 310.959 302.932L310.98 307.305C310.994 310.475 308.428 313.094 305.259 313.145C305.228 313.145 305.197 313.146 305.165 313.146ZM289.775 296.792L290.466 297.26C293.525 299.334 296.935 300.689 300.601 301.287L301.436 301.424L301.463 307.459C301.468 308.461 301.861 309.395 302.571 310.091C303.266 310.773 304.186 311.147 305.165 311.147C305.186 311.147 305.207 311.146 305.228 311.146C307.306 311.113 308.99 309.394 308.98 307.316L308.952 301.3L309.763 301.141C313.424 300.424 316.824 298.958 319.868 296.785L320.551 296.298L324.834 300.493C325.545 301.189 326.482 301.585 327.489 301.548C328.495 301.532 329.439 301.124 330.148 300.401C331.609 298.91 331.603 296.525 330.133 295.085L325.848 290.89L326.322 290.198C328.431 287.111 329.827 283.681 330.469 280.005L330.612 279.191L336.627 279.094C338.706 279.061 340.389 277.343 340.379 275.264C340.374 274.262 339.981 273.326 339.271 272.63C338.576 271.949 337.657 271.575 336.678 271.575C336.656 271.575 336.636 271.576 336.615 271.576L330.581 271.674L330.428 270.842C329.754 267.191 328.33 263.81 326.193 260.792L325.709 260.11L329.944 255.786C331.405 254.295 331.398 251.91 329.928 250.472C329.218 249.775 328.29 249.353 327.273 249.417C326.267 249.433 325.323 249.841 324.614 250.564V250.565L320.378 254.888L319.687 254.42C316.628 252.347 313.218 250.991 309.553 250.393L308.719 250.256L308.69 244.222C308.685 243.22 308.292 242.284 307.582 241.588C306.887 240.907 305.968 240.533 304.989 240.533C304.968 240.533 304.947 240.534 304.926 240.534C302.848 240.567 301.164 242.286 301.174 244.364L301.202 250.38L300.39 250.539C296.729 251.256 293.329 252.722 290.285 254.896L289.603 255.383L285.318 251.186C284.608 250.491 283.67 250.112 282.664 250.132C281.658 250.149 280.714 250.556 280.005 251.279C279.295 252.004 278.908 252.956 278.913 253.963C278.917 254.965 279.311 255.899 280.021 256.595L284.305 260.792L283.831 261.484C281.721 264.572 280.325 268.002 279.684 271.676L279.542 272.49L273.525 272.587C271.447 272.621 269.763 274.34 269.773 276.418C269.778 277.42 270.171 278.354 270.881 279.05C271.59 279.746 272.524 280.101 273.538 280.105L279.569 280.008L279.723 280.84C280.398 284.492 281.824 287.873 283.959 290.889L284.441 291.571L280.206 295.895C279.496 296.619 279.108 297.572 279.113 298.578C279.117 299.58 279.511 300.515 280.221 301.21C280.931 301.907 281.857 302.299 282.876 302.265C283.882 302.249 284.826 301.842 285.536 301.118L289.775 296.792ZM304.845 296.228C299.523 296.228 294.524 294.195 290.732 290.482C282.746 282.658 282.683 269.724 290.591 261.65C294.421 257.741 299.528 255.54 304.971 255.452C310.453 255.347 315.55 257.405 319.42 261.195C323.29 264.987 325.436 270.075 325.461 275.522C325.486 280.966 323.391 286.117 319.56 290.027C315.731 293.937 310.624 296.138 305.181 296.225C305.07 296.227 304.958 296.228 304.845 296.228ZM305.306 257.449C305.205 257.449 305.105 257.45 305.003 257.452C300.09 257.531 295.479 259.519 292.021 263.051C284.883 270.337 284.932 282.001 292.131 289.053C295.616 292.468 300.233 294.278 305.15 294.227C310.062 294.148 314.671 292.16 318.131 288.627H318.133C321.592 285.097 323.484 280.445 323.461 275.532C323.439 270.623 321.507 266.039 318.021 262.625C314.608 259.28 310.102 257.449 305.306 257.449Z" fill="white"/>
<path d="M322.307 394.849C321.497 394.849 320.677 394.71 319.876 394.417C318.103 393.768 316.695 392.47 315.914 390.761C315.132 389.051 315.07 387.137 315.739 385.369L317.786 379.968C313.97 377.615 310.707 374.604 308.068 370.999L302.77 373.421C299.212 375.05 295.003 373.506 293.392 369.981C292.61 368.272 292.548 366.358 293.218 364.591C293.886 362.828 295.202 361.424 296.924 360.637L302.221 358.215C301.222 353.862 301.079 349.422 301.795 344.996L296.371 343.012C294.598 342.363 293.19 341.065 292.409 339.356C291.627 337.646 291.565 335.732 292.234 333.964C293.613 330.328 297.705 328.457 301.357 329.793L306.798 331.784C309.203 327.968 312.27 324.698 315.929 322.044L313.54 316.82C312.758 315.11 312.696 313.196 313.365 311.429C314.033 309.667 315.349 308.263 317.072 307.476C320.629 305.846 324.838 307.39 326.45 310.915L328.84 316.141C333.24 315.111 337.719 314.93 342.179 315.607L344.234 310.189C345.611 306.551 349.704 304.686 353.355 306.017C355.129 306.666 356.537 307.966 357.318 309.675C358.1 311.385 358.162 313.298 357.493 315.065L355.445 320.466C359.261 322.82 362.525 325.832 365.164 329.435L370.461 327.013C372.183 326.224 374.106 326.148 375.877 326.796C377.65 327.446 379.058 328.744 379.839 330.453C380.621 332.163 380.683 334.077 380.014 335.844C379.346 337.606 378.03 339.01 376.307 339.797L371.01 342.219C372.009 346.573 372.152 351.012 371.436 355.438L376.86 357.422C378.634 358.072 380.042 359.371 380.823 361.081C381.604 362.791 381.666 364.705 380.996 366.471C379.619 370.107 375.528 371.974 371.875 370.642L366.434 368.65C364.028 372.465 360.962 375.736 357.303 378.39L359.692 383.615C360.474 385.324 360.536 387.238 359.866 389.005C359.198 390.768 357.882 392.172 356.16 392.959C354.435 393.747 352.513 393.823 350.744 393.176C348.971 392.526 347.563 391.228 346.782 389.519L344.392 384.293C339.992 385.325 335.512 385.504 331.052 384.828L328.999 390.246C327.922 393.086 325.191 394.849 322.307 394.849ZM308.747 368.491L309.224 369.177C311.939 373.075 315.405 376.272 319.524 378.679L320.253 379.106L317.611 386.08C317.132 387.343 317.176 388.711 317.734 389.931C318.292 391.15 319.297 392.076 320.564 392.54C323.19 393.503 326.137 392.154 327.13 389.539L329.766 382.583L330.58 382.726C335.301 383.554 340.054 383.363 344.707 382.159L345.518 381.948L348.6 388.689C349.158 389.909 350.163 390.836 351.431 391.3C352.702 391.766 354.086 391.709 355.327 391.143C356.567 390.576 357.515 389.566 357.995 388.298C358.474 387.035 358.431 385.668 357.873 384.449L354.791 377.708L355.48 377.231C359.434 374.501 362.688 371.031 365.152 366.918L365.577 366.208L372.562 368.765C375.188 369.729 378.135 368.379 379.125 365.764C379.605 364.501 379.561 363.134 379.004 361.914C378.446 360.694 377.441 359.767 376.172 359.303L369.169 356.74L369.323 355.908C370.197 351.218 370.047 346.505 368.875 341.901L368.669 341.091L375.475 337.98C376.716 337.413 377.664 336.403 378.144 335.136C378.622 333.873 378.578 332.506 378.021 331.286C377.464 330.066 376.458 329.139 375.19 328.675C373.919 328.209 372.536 328.265 371.293 328.832L364.486 331.945L364.009 331.259C361.294 327.362 357.828 324.164 353.708 321.756L352.978 321.329L355.622 314.355C356.101 313.092 356.058 311.726 355.5 310.506C354.942 309.286 353.937 308.358 352.668 307.895C350.042 306.931 347.095 308.28 346.105 310.897L343.467 317.852L342.653 317.709C337.932 316.879 333.178 317.073 328.527 318.276L327.716 318.486L324.634 311.746C323.481 309.226 320.463 308.122 317.906 309.293C316.665 309.86 315.717 310.87 315.237 312.137C314.758 313.4 314.802 314.767 315.36 315.987L318.442 322.727L317.753 323.204C313.798 325.934 310.544 329.404 308.081 333.517L307.656 334.227L300.671 331.671C298.043 330.708 295.097 332.054 294.107 334.672C293.628 335.935 293.671 337.303 294.23 338.523C294.788 339.742 295.793 340.668 297.06 341.132L304.063 343.695L303.909 344.527C303.034 349.217 303.185 353.929 304.357 358.533L304.563 359.342L297.757 362.453C296.517 363.02 295.569 364.03 295.089 365.298C294.61 366.561 294.653 367.928 295.211 369.147C296.364 371.669 299.383 372.767 301.938 371.601L308.747 368.491ZM336.441 375.828C326.69 375.828 317.387 370.314 313.113 360.966C307.252 348.148 313.028 332.898 325.988 326.972C338.951 321.045 354.262 326.655 360.122 339.472C362.962 345.684 363.185 352.641 360.752 359.064C358.319 365.481 353.524 370.596 347.247 373.465C343.739 375.068 340.059 375.828 336.441 375.828ZM336.795 326.608C333.455 326.608 330.059 327.309 326.819 328.79C314.861 334.258 309.528 348.318 314.93 360.134C320.333 371.95 334.457 377.112 346.413 371.647C352.208 368.998 356.635 364.277 358.88 358.355C361.123 352.436 360.918 346.026 358.302 340.304C354.364 331.688 345.788 326.608 336.795 326.608Z" fill="white"/>
<path d="M246.778 136.975L217.543 130.035C216.155 129.705 215.297 128.313 215.627 126.926L221.141 103.698C221.47 102.31 222.862 101.452 224.25 101.782L253.485 108.722C254.873 109.051 255.731 110.443 255.401 111.831L249.887 135.059C249.558 136.446 248.166 137.304 246.778 136.975Z" fill="#12423C"/>
<path d="M247.373 138.545C247.062 138.545 246.747 138.509 246.432 138.434H246.431L217.196 131.494C215.007 130.974 213.647 128.77 214.167 126.579L219.682 103.35C220.202 101.161 222.411 99.8024 224.596 100.321L253.832 107.261C256.021 107.781 257.38 109.986 256.861 112.176L251.345 135.404C250.901 137.279 249.222 138.545 247.373 138.545ZM247.123 135.515C247.71 135.653 248.289 135.292 248.426 134.712L253.942 111.484C254.08 110.903 253.719 110.318 253.138 110.181L223.903 103.241C223.324 103.099 222.737 103.464 222.599 104.045L217.085 127.272C216.947 127.853 217.308 128.437 217.888 128.575L247.123 135.515Z" fill="#264653"/>
<path d="M233.136 124.868C232.967 124.868 232.796 124.849 232.627 124.813C232.007 124.678 231.478 124.309 231.136 123.774L227.461 118C227.017 117.301 227.223 116.374 227.921 115.929C228.618 115.486 229.546 115.69 229.992 116.389L233.322 121.622L245.731 113.623C246.424 113.173 247.354 113.373 247.804 114.071C248.253 114.767 248.052 115.695 247.356 116.144L234.412 124.489C234.027 124.739 233.585 124.868 233.136 124.868Z" fill="white"/>
<path d="M498.735 139.165L468.872 142.484C467.454 142.642 466.178 141.62 466.02 140.203L463.383 116.476C463.225 115.059 464.247 113.782 465.664 113.624L495.528 110.305C496.946 110.147 498.222 111.169 498.38 112.586L501.017 136.313C501.175 137.731 500.153 139.008 498.735 139.165Z" fill="#2A9D8F"/>
<path d="M468.579 144.002C467.657 144.002 466.768 143.691 466.037 143.107C465.185 142.426 464.649 141.454 464.529 140.37L461.892 116.642C461.644 114.404 463.262 112.382 465.5 112.134L495.362 108.815C497.606 108.564 499.621 110.185 499.872 112.42L502.509 136.149C502.757 138.387 501.139 140.409 498.901 140.657L469.039 143.976C468.884 143.993 468.731 144.002 468.579 144.002ZM495.814 111.79C495.774 111.79 495.734 111.792 495.694 111.797L465.831 115.116C465.237 115.182 464.809 115.718 464.875 116.311L467.512 140.039C467.543 140.326 467.686 140.584 467.911 140.765C468.137 140.946 468.422 141.026 468.707 140.995L498.57 137.676C499.163 137.61 499.592 137.074 499.526 136.481L496.889 112.754C496.828 112.2 496.358 111.79 495.814 111.79Z" fill="#264653"/>
<path d="M481.003 132.503C480.481 132.503 479.977 132.331 479.558 132.006L474.154 127.811C473.5 127.303 473.382 126.36 473.889 125.706C474.396 125.052 475.339 124.933 475.994 125.441L480.894 129.246L489.88 117.534C490.385 116.877 491.325 116.752 491.983 117.257C492.64 117.761 492.764 118.703 492.26 119.36L482.885 131.579C482.499 132.082 481.94 132.404 481.31 132.485C481.209 132.496 481.106 132.503 481.003 132.503Z" fill="white"/>
<path d="M139.343 169.037C143.851 169.037 147.506 165.382 147.506 160.874C147.506 156.366 143.851 152.711 139.343 152.711C134.834 152.711 131.18 156.366 131.18 160.874C131.18 165.382 134.834 169.037 139.343 169.037Z" fill="#2A9D8F"/>
<path d="M353.251 56.2469C357.759 56.2469 361.414 52.5922 361.414 48.0839C361.414 43.5756 357.759 39.9209 353.251 39.9209C348.743 39.9209 345.088 43.5756 345.088 48.0839C345.088 52.5922 348.743 56.2469 353.251 56.2469Z" fill="#2A9D8F"/>
<path d="M191.546 159.04C191.546 160.752 190.158 162.141 188.445 162.141C186.732 162.141 185.344 160.753 185.344 159.04C185.344 157.328 186.732 155.939 188.445 155.939C190.158 155.939 191.546 157.327 191.546 159.04Z" fill="#E76F51"/>
<path d="M548.53 131.865C548.53 133.577 547.142 134.966 545.429 134.966C543.716 134.966 542.328 133.578 542.328 131.865C542.328 130.153 543.716 128.764 545.429 128.764C547.142 128.764 548.53 130.152 548.53 131.865Z" fill="#E76F51"/>
<path d="M250.761 73.4139C252.474 73.4139 253.862 72.0255 253.862 70.3129C253.862 68.6003 252.474 67.2119 250.761 67.2119C249.049 67.2119 247.66 68.6003 247.66 70.3129C247.66 72.0255 249.049 73.4139 250.761 73.4139Z" fill="#E76F51"/>
<path d="M148.681 219.96C150.394 219.96 151.782 218.571 151.782 216.859C151.782 215.146 150.394 213.758 148.681 213.758C146.968 213.758 145.58 215.146 145.58 216.859C145.58 218.571 146.968 219.96 148.681 219.96Z" fill="#12423C"/>
<path d="M565.265 246.659C566.978 246.659 568.366 245.271 568.366 243.558C568.366 241.845 566.978 240.457 565.265 240.457C563.552 240.457 562.164 241.845 562.164 243.558C562.164 245.271 563.552 246.659 565.265 246.659Z" fill="#12423C"/>
<path d="M616.908 282.063C616.908 285.217 614.351 287.774 611.197 287.774C608.043 287.774 605.486 285.217 605.486 282.063C605.486 278.909 608.043 276.352 611.197 276.352C614.351 276.352 616.908 278.909 616.908 282.063Z" fill="#12423C"/>
<path d="M436.205 97.7892C436.205 101.519 433.181 104.543 429.451 104.543C425.721 104.543 422.697 101.519 422.697 97.7892C422.697 94.0592 425.721 91.0352 429.451 91.0352C433.181 91.0362 436.205 94.0592 436.205 97.7892Z" fill="#12423C"/>
<path d="M264.604 382.488L157.516 382.713C149.298 382.73 142.559 376.02 142.542 367.802L142.395 298.07C142.378 289.852 149.088 283.113 157.306 283.096L264.394 282.871C272.612 282.854 279.351 289.564 279.368 297.782L279.515 367.514C279.533 375.732 272.822 382.471 264.604 382.488Z" fill="#E76F51"/>
<path d="M157.484 384.212C148.433 384.213 141.061 376.859 141.042 367.804L140.897 298.072C140.877 289.006 148.238 281.614 157.305 281.594L264.393 281.369C264.404 281.369 264.415 281.369 264.426 281.369C273.479 281.369 280.851 288.723 280.869 297.777L281.015 367.509C281.025 371.884 279.319 376.012 276.211 379.132C273.103 382.252 268.982 383.976 264.607 383.985L157.519 384.21C157.507 384.212 157.496 384.212 157.484 384.212ZM264.425 284.37C264.416 284.37 264.407 284.37 264.398 284.37L157.31 284.595C149.898 284.611 143.88 290.655 143.896 298.067L144.041 367.799C144.057 375.201 150.085 381.213 157.483 381.213C157.493 381.213 157.503 381.213 157.512 381.213L264.6 380.988C268.174 380.98 271.542 379.57 274.084 377.018C276.626 374.465 278.022 371.091 278.014 367.517L277.868 297.785C277.854 290.382 271.826 284.37 264.425 284.37Z" fill="#264653"/>
<path opacity="0.24" d="M264.604 382.488L157.516 382.713C149.298 382.73 142.559 376.02 142.542 367.802L142.395 298.07C142.378 289.852 149.088 283.113 157.306 283.096L264.394 282.871C272.612 282.854 279.351 289.564 279.368 297.782L279.515 367.514C279.533 375.732 272.822 382.471 264.604 382.488Z" fill="#264653"/>
<path d="M258.582 366.93L211.426 321.721C210.917 321.233 210.9 320.424 211.388 319.915L272.597 256.071C273.085 255.562 273.894 255.545 274.403 256.033L321.559 301.242C322.068 301.73 322.085 302.539 321.597 303.048L260.388 366.892C259.9 367.401 259.091 367.418 258.582 366.93Z" fill="white"/>
<path d="M259.465 368.784C258.746 368.784 258.066 368.512 257.545 368.012C257.544 368.012 257.544 368.012 257.544 368.012L210.389 322.803C209.854 322.289 209.549 321.598 209.534 320.857C209.518 320.115 209.793 319.412 210.307 318.876L271.515 255.032C272.577 253.925 274.336 253.89 275.443 254.95L322.598 300.159C323.703 301.221 323.741 302.981 322.68 304.087L261.472 367.93C260.958 368.465 260.267 368.77 259.525 368.784C259.505 368.784 259.486 368.784 259.465 368.784ZM259.621 365.845C259.62 365.845 259.62 365.845 259.621 365.845ZM212.626 320.791L259.46 365.692L320.36 302.17L273.526 257.269L212.626 320.791Z" fill="#264653"/>
<path d="M307.637 302.696C307.388 302.696 307.139 302.603 306.945 302.418L289.192 285.397C288.794 285.015 288.78 284.382 289.163 283.983C289.546 283.586 290.178 283.572 290.577 283.954L308.33 300.975C308.728 301.357 308.742 301.99 308.359 302.389C308.163 302.593 307.9 302.696 307.637 302.696Z" fill="#12423C"/>
<path d="M298.714 314.41C298.465 314.41 298.216 314.317 298.022 314.132L262.515 280.09C262.117 279.708 262.103 279.075 262.486 278.676C262.869 278.279 263.502 278.265 263.9 278.647L299.407 312.689C299.805 313.071 299.819 313.704 299.436 314.103C299.24 314.306 298.977 314.41 298.714 314.41Z" fill="#264653"/>
<path d="M287.139 326.482C286.89 326.482 286.641 326.389 286.447 326.204L250.94 292.162C250.542 291.78 250.528 291.147 250.911 290.748C251.293 290.351 251.926 290.337 252.325 290.719L287.832 324.761C288.23 325.143 288.244 325.776 287.861 326.175C287.665 326.379 287.402 326.482 287.139 326.482Z" fill="#264653"/>
<path d="M276.248 337.846C275.999 337.846 275.75 337.753 275.556 337.568L240.048 303.526C239.65 303.144 239.636 302.511 240.019 302.112C240.401 301.715 241.034 301.701 241.433 302.083L276.941 336.125C277.339 336.507 277.353 337.14 276.97 337.539C276.773 337.743 276.51 337.846 276.248 337.846Z" fill="#264653"/>
<path d="M264.674 349.917C264.425 349.917 264.176 349.824 263.982 349.639L228.474 315.597C228.076 315.215 228.062 314.582 228.445 314.183C228.827 313.786 229.46 313.773 229.859 314.154L265.367 348.196C265.765 348.578 265.779 349.211 265.396 349.61C265.2 349.813 264.937 349.917 264.674 349.917Z" fill="#264653"/>
<path d="M231.429 309.291L170.954 333.996C170.301 334.263 169.555 333.95 169.289 333.297L135.841 251.42C135.574 250.767 135.887 250.021 136.54 249.755L197.015 225.05C197.668 224.783 198.414 225.096 198.68 225.749L232.128 307.626C232.395 308.279 232.082 309.024 231.429 309.291Z" fill="white"/>
<path d="M170.471 335.593C170.107 335.593 169.742 335.52 169.396 335.374C168.711 335.087 168.18 334.551 167.9 333.864L134.452 251.987C134.171 251.302 134.175 250.546 134.462 249.861C134.749 249.177 135.286 248.645 135.974 248.365L196.448 223.66C197.87 223.083 199.49 223.764 200.069 225.181L233.518 307.058C234.096 308.475 233.414 310.099 231.997 310.679C231.997 310.68 231.996 310.68 231.996 310.68L171.521 335.385C171.182 335.524 170.827 335.593 170.471 335.593ZM137.313 251.059L170.593 332.524L230.656 307.987L197.375 226.522L137.313 251.059Z" fill="#264653"/>
<path d="M188.448 256.119C188.055 256.119 187.68 255.885 187.522 255.497C187.313 254.986 187.558 254.402 188.07 254.193L198.469 249.944C198.975 249.734 199.563 249.98 199.773 250.492C199.982 251.003 199.737 251.587 199.225 251.796L188.826 256.045C188.703 256.095 188.574 256.119 188.448 256.119Z" fill="#264653"/>
<path d="M159.635 285.954C159.241 285.954 158.867 285.72 158.709 285.332C158.5 284.821 158.745 284.237 159.257 284.028L204.792 265.425C205.299 265.214 205.887 265.46 206.096 265.973C206.305 266.484 206.06 267.068 205.548 267.277L160.013 285.88C159.89 285.93 159.761 285.954 159.635 285.954Z" fill="#264653"/>
<path d="M191.374 285.279C190.98 285.279 190.606 285.045 190.448 284.657C190.239 284.146 190.484 283.562 190.996 283.353L209.096 275.96C209.606 275.749 210.191 275.996 210.4 276.508C210.609 277.019 210.364 277.603 209.852 277.812L191.752 285.206C191.628 285.256 191.5 285.279 191.374 285.279Z" fill="#12423C"/>
<path d="M163.938 296.488C163.545 296.488 163.171 296.254 163.012 295.866C162.803 295.355 163.048 294.771 163.56 294.562L174.639 290.036C175.146 289.826 175.734 290.072 175.943 290.584C176.152 291.095 175.907 291.679 175.395 291.888L164.316 296.414C164.193 296.465 164.064 296.488 163.938 296.488Z" fill="#12423C"/>
<path d="M167.512 308.77C167.118 308.77 166.744 308.536 166.586 308.148C166.377 307.637 166.622 307.053 167.134 306.844L195.181 295.386C195.688 295.176 196.276 295.421 196.485 295.934C196.694 296.445 196.449 297.029 195.937 297.238L167.89 308.696C167.767 308.747 167.638 308.77 167.512 308.77Z" fill="#264653"/>
<path d="M183.341 263.705L159.16 274.182C158.144 274.622 156.964 274.156 156.524 273.141L145.285 247.201C144.845 246.185 145.312 245.004 146.327 244.564L170.508 234.087C171.524 233.647 172.704 234.114 173.144 235.129L184.383 261.069C184.824 262.085 184.357 263.265 183.341 263.705Z" fill="#12423C"/>
<path d="M158.364 275.349C157.99 275.349 157.616 275.279 157.259 275.137C156.512 274.842 155.926 274.274 155.607 273.537L144.368 247.597C144.05 246.861 144.036 246.044 144.331 245.298C144.626 244.551 145.194 243.965 145.931 243.646L170.112 233.169C171.632 232.512 173.405 233.21 174.063 234.732L185.302 260.672C185.62 261.408 185.634 262.225 185.339 262.971C185.044 263.717 184.476 264.304 183.739 264.622C183.739 264.623 183.739 264.623 183.739 264.623L159.558 275.1C159.174 275.266 158.769 275.349 158.364 275.349ZM171.303 234.923C171.17 234.923 171.034 234.949 170.905 235.005L146.724 245.483C146.478 245.589 146.288 245.785 146.19 246.035C146.091 246.284 146.095 246.557 146.202 246.804L157.442 272.744C157.548 272.99 157.744 273.179 157.994 273.278C158.242 273.378 158.515 273.371 158.763 273.266L182.944 262.788C183.19 262.682 183.379 262.485 183.478 262.236C183.577 261.987 183.573 261.714 183.466 261.468L172.227 235.528C172.062 235.149 171.692 234.923 171.303 234.923Z" fill="#264653"/>
<path d="M157.55 249.965C157.256 249.965 156.961 249.909 156.68 249.798C156.092 249.565 155.63 249.118 155.379 248.538L154.061 245.497C153.952 245.243 154.068 244.949 154.321 244.839C154.576 244.729 154.869 244.846 154.979 245.099L156.297 248.141C156.442 248.476 156.708 248.734 157.047 248.868C157.389 249.004 157.758 248.996 158.091 248.851L158.314 248.755C158.847 248.524 159.093 247.901 158.862 247.368L155.526 239.669C155.288 239.118 154.645 238.866 154.093 239.103L153.714 239.268C153.128 239.521 152.858 240.204 153.111 240.79L153.193 240.978C153.303 241.232 153.188 241.526 152.935 241.636C152.684 241.747 152.387 241.632 152.277 241.378L152.194 241.188C151.72 240.094 152.224 238.822 153.316 238.349L153.695 238.184C154.749 237.729 155.985 238.214 156.443 239.27L159.779 246.97C160.228 248.009 159.75 249.221 158.711 249.672L158.488 249.768C158.188 249.899 157.869 249.965 157.55 249.965Z" fill="#264653"/>
<path d="M171.736 238.601C172.558 239.438 172.545 240.783 171.708 241.605C170.871 242.427 169.526 242.414 168.704 241.577C167.882 240.74 167.895 239.395 168.732 238.573C169.569 237.751 170.914 237.763 171.736 238.601Z" fill="white"/>
<path d="M288.586 243.641L228.454 269.169C227.805 269.445 227.055 269.142 226.779 268.492L192.217 187.079C191.941 186.43 192.244 185.68 192.894 185.404L253.026 159.876C253.675 159.6 254.425 159.903 254.701 160.553L289.263 241.965C289.539 242.614 289.236 243.365 288.586 243.641Z" fill="white"/>
<path d="M227.956 270.771C227.604 270.771 227.252 270.704 226.916 270.568C226.228 270.29 225.689 269.76 225.399 269.078L190.836 187.665C190.238 186.256 190.897 184.623 192.307 184.024L252.44 158.496C253.122 158.206 253.877 158.2 254.566 158.477C255.254 158.755 255.792 159.285 256.082 159.968L290.645 241.38C290.935 242.063 290.941 242.818 290.664 243.505C290.386 244.194 289.857 244.732 289.174 245.022L229.042 270.55C228.692 270.697 228.324 270.771 227.956 270.771ZM193.685 186.698L228.074 267.701L287.796 242.346L253.407 161.344L193.685 186.698Z" fill="#264653"/>
<path d="M244.87 191.058C244.481 191.058 244.111 190.829 243.949 190.448C243.733 189.94 243.97 189.353 244.479 189.137L254.819 184.747C255.323 184.533 255.914 184.767 256.131 185.277C256.347 185.785 256.109 186.372 255.601 186.588L245.261 190.978C245.133 191.032 245 191.058 244.87 191.058Z" fill="#264653"/>
<path d="M216.468 221.285C216.079 221.285 215.709 221.056 215.547 220.675C215.331 220.167 215.568 219.58 216.077 219.364L261.355 200.142C261.858 199.927 262.45 200.163 262.667 200.672C262.883 201.18 262.645 201.767 262.137 201.983L216.859 221.205C216.732 221.259 216.599 221.285 216.468 221.285Z" fill="#264653"/>
<path d="M248.194 220.179C247.805 220.179 247.435 219.95 247.273 219.569C247.057 219.061 247.294 218.474 247.803 218.258L265.8 210.617C266.304 210.402 266.895 210.638 267.111 211.147C267.327 211.655 267.089 212.242 266.581 212.458L248.584 220.099C248.458 220.153 248.325 220.179 248.194 220.179Z" fill="#12423C"/>
<path d="M220.913 231.759C220.524 231.759 220.154 231.53 219.992 231.15C219.776 230.642 220.013 230.054 220.522 229.838L231.539 225.161C232.043 224.948 232.634 225.182 232.851 225.691C233.067 226.199 232.83 226.787 232.321 227.003L221.304 231.68C221.176 231.733 221.043 231.759 220.913 231.759Z" fill="#12423C"/>
<path d="M224.655 243.992C224.266 243.992 223.896 243.764 223.734 243.383C223.518 242.875 223.755 242.287 224.264 242.071L252.153 230.231C252.658 230.017 253.248 230.253 253.464 230.761C253.68 231.269 253.443 231.857 252.934 232.073L225.045 243.913C224.918 243.967 224.786 243.992 224.655 243.992Z" fill="#264653"/>
<path d="M257.846 330.467L193.259 320.668C192.562 320.562 192.082 319.911 192.188 319.214L205.455 231.769C205.561 231.072 206.213 230.592 206.91 230.698L271.496 240.497C272.194 240.603 272.674 241.254 272.568 241.951L259.301 329.396C259.196 330.093 258.544 330.573 257.846 330.467Z" fill="#2A9D8F"/>
<path d="M258.044 331.982C257.904 331.982 257.763 331.972 257.622 331.951L193.035 322.151C192.302 322.04 191.654 321.65 191.215 321.051C190.775 320.453 190.594 319.721 190.706 318.986L203.972 231.543C204.083 230.81 204.473 230.163 205.071 229.724C205.668 229.285 206.402 229.103 207.134 229.213L271.722 239.013C272.455 239.124 273.102 239.514 273.541 240.112C273.981 240.71 274.162 241.442 274.052 242.176L260.784 329.621C260.673 330.354 260.283 331.001 259.685 331.44C259.204 331.796 258.632 331.982 258.044 331.982ZM193.705 319.218L257.852 328.95L271.052 241.945L206.904 232.213L193.705 319.218Z" fill="#264653"/>
<path d="M227.645 246.287C227.595 246.287 227.544 246.283 227.494 246.275L215.096 244.394C214.55 244.312 214.175 243.802 214.258 243.255C214.341 242.709 214.852 242.33 215.397 242.417L227.795 244.298C228.341 244.38 228.716 244.89 228.633 245.437C228.557 245.932 228.131 246.287 227.645 246.287Z" fill="white"/>
<path d="M259.831 264.602C259.781 264.602 259.73 264.598 259.68 264.59L245.443 262.43C244.897 262.348 244.522 261.838 244.605 261.291C244.688 260.745 245.195 260.368 245.744 260.453L259.981 262.613C260.527 262.695 260.902 263.205 260.819 263.752C260.743 264.248 260.317 264.602 259.831 264.602Z" fill="#264653"/>
<path d="M235.516 260.915C235.466 260.915 235.415 260.911 235.365 260.903L211.049 257.214C210.503 257.132 210.128 256.622 210.211 256.075C210.294 255.529 210.8 255.151 211.35 255.237L235.666 258.927C236.212 259.009 236.587 259.519 236.504 260.066C236.428 260.56 236.002 260.915 235.516 260.915Z" fill="white"/>
<path d="M236.395 277.964C236.345 277.964 236.294 277.96 236.244 277.952L208.539 273.749C207.993 273.667 207.618 273.157 207.701 272.61C207.784 272.064 208.292 271.687 208.84 271.772L236.545 275.975C237.091 276.057 237.466 276.567 237.383 277.114C237.307 277.609 236.881 277.964 236.395 277.964Z" fill="#264653"/>
<path d="M254.962 296.699C254.912 296.699 254.861 296.695 254.811 296.687L206.178 289.309C205.632 289.227 205.257 288.717 205.34 288.17C205.423 287.624 205.931 287.248 206.479 287.332L255.112 294.71C255.658 294.792 256.033 295.302 255.95 295.849C255.874 296.344 255.449 296.699 254.962 296.699Z" fill="white"/>
<path d="M231.169 310.006C231.119 310.006 231.069 310.002 231.018 309.994L203.67 305.846C203.124 305.764 202.749 305.254 202.832 304.707C202.914 304.161 203.414 303.786 203.971 303.869L231.319 308.017C231.865 308.099 232.24 308.609 232.157 309.156C232.083 309.651 231.656 310.006 231.169 310.006Z" fill="white"/>
<path d="M268.557 394.931L153.558 395.172C147.515 395.185 142.561 390.251 142.548 384.208L142.385 306.565C142.372 300.522 147.306 295.567 153.349 295.555L268.348 295.313C274.391 295.3 279.345 300.234 279.358 306.277L279.521 383.92C279.534 389.963 274.6 394.918 268.557 394.931Z" fill="white"/>
<path d="M153.536 396.173C150.356 396.173 147.357 394.93 145.088 392.67C142.813 390.404 141.557 387.399 141.55 384.21L141.387 306.567C141.38 303.378 142.624 300.368 144.89 298.093C147.155 295.818 150.16 294.562 153.349 294.555L268.348 294.314C268.357 294.314 268.365 294.314 268.373 294.314C274.972 294.314 280.347 299.674 280.36 306.276L280.523 383.919C280.537 390.528 275.17 395.917 268.56 395.931L153.561 396.173C153.553 396.173 153.543 396.173 153.536 396.173ZM268.372 296.314C268.364 296.314 268.358 296.314 268.351 296.314L153.352 296.555C150.697 296.561 148.194 297.608 146.306 299.504C144.417 301.401 143.38 303.907 143.386 306.563L143.549 384.206C143.555 386.861 144.602 389.364 146.498 391.253C148.39 393.137 150.888 394.173 153.535 394.173C153.542 394.173 153.55 394.173 153.556 394.173L268.555 393.931C274.062 393.919 278.533 389.43 278.522 383.923L278.359 306.28C278.348 300.781 273.87 296.314 268.372 296.314Z" fill="#264653"/>
<path d="M269.497 276.633L240.491 276.694C235.113 276.705 230.721 281.115 230.733 286.493L230.762 300.374L157.294 300.528C149.076 300.545 142.365 307.283 142.383 315.502L142.529 385.234C142.546 393.452 149.285 400.162 157.503 400.145L264.591 399.92C272.809 399.903 279.519 393.164 279.502 384.946L279.359 316.643L279.356 315.215L279.296 286.392C279.285 281.013 274.875 276.622 269.497 276.633Z" fill="#E76F51"/>
<path d="M157.474 401.645C148.423 401.645 141.05 394.291 141.031 385.237L140.885 315.505C140.865 306.44 148.226 299.048 157.293 299.028L229.261 298.877L229.235 286.496C229.228 283.495 230.399 280.663 232.53 278.523C234.661 276.382 237.488 275.201 240.49 275.194L269.496 275.133C269.504 275.133 269.513 275.133 269.52 275.133C275.728 275.133 280.785 280.176 280.798 286.388L281.005 384.943C281.023 394.009 273.662 401.401 264.597 401.42L157.508 401.646C157.496 401.645 157.485 401.645 157.474 401.645ZM269.5 278.134L240.494 278.195C238.294 278.2 236.22 279.068 234.654 280.64C233.088 282.212 232.228 284.29 232.233 286.491L232.262 300.372C232.263 300.769 232.106 301.151 231.824 301.434C231.544 301.715 231.163 301.874 230.765 301.875L157.297 302.029C149.885 302.045 143.867 308.088 143.883 315.5L144.029 385.232C144.045 392.634 150.073 398.646 157.472 398.646C157.481 398.646 157.49 398.646 157.499 398.646L264.588 398.42C271.999 398.405 278.017 392.362 278.002 384.949L277.795 286.394C277.785 281.835 274.073 278.133 269.517 278.133C269.513 278.134 269.507 278.134 269.5 278.134Z" fill="#264653"/>
<path opacity="0.12" d="M268.489 287.754L242.536 287.809C237.724 287.819 233.795 291.765 233.805 296.579L233.831 309.001L168.096 309.139C160.743 309.155 154.739 315.185 154.754 322.54L154.885 384.945C154.9 392.3 160.929 398.305 168.283 398.289L264.1 398.088C271.453 398.073 277.457 392.042 277.442 384.687L277.314 323.56L277.311 322.282L277.257 296.487C277.246 291.674 273.301 287.744 268.489 287.754Z" fill="white"/>
<path d="M269.998 385.541C269.998 388.238 267.812 390.424 265.115 390.424C262.418 390.424 260.232 388.238 260.232 385.541C260.232 382.844 262.418 380.658 265.115 380.658C267.812 380.658 269.998 382.844 269.998 385.541Z" fill="white"/>
<path d="M273.412 302.999C272.859 302.999 272.412 302.552 272.412 301.999V288.707C272.412 286.477 270.433 284.662 268.001 284.662H258.316C257.763 284.662 257.316 284.215 257.316 283.662C257.316 283.109 257.763 282.662 258.316 282.662H268.001C271.536 282.662 274.412 285.374 274.412 288.707V301.999C274.412 302.552 273.964 302.999 273.412 302.999Z" fill="white"/>
<path d="M201.883 342.434C201.237 342.434 200.59 342.184 200.1 341.687C199.132 340.702 199.146 339.12 200.13 338.151L211.88 326.6L223.446 338.166C224.423 339.143 224.423 340.725 223.446 341.701C222.469 342.678 220.887 342.678 219.911 341.701L211.85 333.64L203.635 341.716C203.149 342.196 202.516 342.434 201.883 342.434Z" fill="white"/>
<path d="M211.781 357.922C210.4 357.922 209.281 356.803 209.281 355.422V330.121C209.281 328.74 210.4 327.621 211.781 327.621C213.162 327.621 214.281 328.74 214.281 330.121V355.422C214.281 356.803 213.162 357.922 211.781 357.922Z" fill="white"/>
<path d="M230.186 369.936H193.083C190.119 369.936 187.707 367.524 187.707 364.56V351.08C187.707 349.699 188.826 348.58 190.207 348.58C191.588 348.58 192.707 349.699 192.707 351.08V364.56C192.707 364.767 192.876 364.936 193.083 364.936H230.186C230.554 364.936 230.853 364.637 230.853 364.269V351.08C230.853 349.699 231.972 348.58 233.353 348.58C234.734 348.58 235.853 349.699 235.853 351.08V364.269C235.853 367.394 233.311 369.936 230.186 369.936Z" fill="white"/>
<path d="M541.571 382.488L434.483 382.713C426.265 382.73 419.526 376.02 419.509 367.802L419.363 298.07C419.346 289.852 426.056 283.113 434.274 283.096L541.362 282.871C549.58 282.854 556.319 289.564 556.336 297.782L556.482 367.514C556.499 375.732 549.789 382.471 541.571 382.488Z" fill="#E76F51"/>
<path d="M434.449 384.212C430.087 384.212 425.972 382.507 422.861 379.408C419.741 376.301 418.017 372.179 418.008 367.804L417.861 298.072C417.842 289.006 425.203 281.614 434.269 281.594L541.358 281.369C541.369 281.369 541.38 281.369 541.391 281.369C550.442 281.369 557.815 288.723 557.834 297.777L557.98 367.509C557.999 376.574 550.639 383.966 541.572 383.985L434.483 384.21C434.472 384.212 434.46 384.212 434.449 384.212ZM541.391 284.37C541.382 284.37 541.373 284.37 541.364 284.37L434.275 284.595C426.864 284.611 420.846 290.655 420.861 298.067L421.008 367.799C421.016 371.373 422.426 374.741 424.978 377.283C427.524 379.818 430.886 381.213 434.45 381.213C434.46 381.213 434.47 381.213 434.479 381.213L541.568 380.988C545.141 380.98 548.509 379.57 551.052 377.018C553.594 374.465 554.99 371.091 554.982 367.517L554.836 297.785C554.819 290.382 548.79 284.37 541.391 284.37Z" fill="#264653"/>
<path d="M541.571 382.488L434.483 382.713C426.265 382.73 419.526 376.02 419.509 367.802L419.363 298.07C419.346 289.852 426.056 283.113 434.274 283.096L541.362 282.871C549.58 282.854 556.319 289.564 556.336 297.782L556.482 367.514C556.499 375.732 549.789 382.471 541.571 382.488Z" fill="#12423C"/>
<path d="M434.449 384.212C430.087 384.212 425.972 382.507 422.861 379.408C419.741 376.301 418.017 372.179 418.008 367.804L417.861 298.072C417.842 289.006 425.203 281.614 434.269 281.594L541.358 281.369C541.369 281.369 541.38 281.369 541.391 281.369C550.442 281.369 557.815 288.723 557.834 297.777L557.98 367.509C557.999 376.574 550.639 383.966 541.572 383.985L434.483 384.21C434.472 384.212 434.46 384.212 434.449 384.212ZM541.391 284.37C541.382 284.37 541.373 284.37 541.364 284.37L434.275 284.595C426.864 284.611 420.846 290.655 420.861 298.067L421.008 367.799C421.016 371.373 422.426 374.741 424.978 377.283C427.524 379.818 430.886 381.213 434.45 381.213C434.46 381.213 434.47 381.213 434.479 381.213L541.568 380.988C545.141 380.98 548.509 379.57 551.052 377.018C553.594 374.465 554.99 371.091 554.982 367.517L554.836 297.785C554.819 290.382 548.79 284.37 541.391 284.37Z" fill="#264653"/>
<path opacity="0.24" d="M541.571 382.488L434.483 382.713C426.265 382.73 419.526 376.02 419.509 367.802L419.363 298.07C419.346 289.852 426.056 283.113 434.274 283.096L541.362 282.871C549.58 282.854 556.319 289.564 556.336 297.782L556.482 367.514C556.499 375.732 549.789 382.471 541.571 382.488Z" fill="#264653"/>
<path d="M545.526 388.704L430.527 388.945C424.484 388.958 419.529 384.024 419.517 377.981L419.354 300.338C419.341 294.295 424.275 289.341 430.318 289.328L545.317 289.086C551.36 289.073 556.314 294.007 556.327 300.05L556.49 377.693C556.503 383.737 551.569 388.691 545.526 388.704Z" fill="white"/>
<path d="M430.503 389.945C423.905 389.945 418.53 384.585 418.517 377.983L418.354 300.34C418.34 293.73 423.706 288.341 430.316 288.327L545.315 288.086C545.324 288.086 545.332 288.086 545.34 288.086C551.938 288.086 557.313 293.446 557.326 300.048L557.489 377.691C557.503 384.301 552.136 389.69 545.527 389.704L430.528 389.945C430.52 389.945 430.512 389.945 430.503 389.945ZM545.524 387.704C551.031 387.692 555.501 383.203 555.49 377.695L555.327 300.053C555.315 294.554 550.837 290.087 545.341 290.087C545.333 290.087 545.327 290.087 545.32 290.087L430.321 290.328C424.814 290.34 420.343 294.829 420.355 300.337L420.518 377.98C420.53 383.479 425.008 387.946 430.504 387.946C430.512 387.946 430.518 387.946 430.526 387.946L545.524 387.704Z" fill="#264653"/>
<path d="M545.526 394.929L430.527 395.17C424.484 395.183 419.529 390.249 419.517 384.206L419.354 306.563C419.341 300.52 424.275 295.565 430.318 295.553L545.317 295.311C551.36 295.298 556.314 300.232 556.327 306.275L556.49 383.918C556.503 389.961 551.569 394.916 545.526 394.929Z" fill="white"/>
<path d="M430.503 396.171C423.905 396.171 418.53 390.81 418.517 384.208L418.354 306.565C418.347 303.376 419.591 300.366 421.857 298.091C424.122 295.816 427.127 294.56 430.316 294.553L545.315 294.312C545.324 294.312 545.332 294.312 545.34 294.312C551.938 294.312 557.313 299.672 557.326 306.274L557.489 383.917C557.503 390.526 552.136 395.915 545.527 395.929L430.528 396.171C430.52 396.171 430.512 396.171 430.503 396.171ZM545.34 296.312C545.332 296.312 545.326 296.312 545.319 296.312L430.32 296.553C427.665 296.559 425.162 297.607 423.274 299.503C421.385 301.4 420.348 303.905 420.354 306.561L420.517 384.204C420.529 389.704 425.007 394.171 430.503 394.171C430.511 394.171 430.517 394.171 430.525 394.171L545.524 393.929C551.031 393.917 555.501 389.428 555.49 383.921L555.327 306.278C555.315 300.779 550.836 296.312 545.34 296.312Z" fill="#264653"/>
<path d="M546.463 276.633L517.457 276.694C512.079 276.705 507.688 281.115 507.699 286.493L507.728 300.374L434.261 300.528C426.043 300.545 419.333 307.283 419.35 315.502L419.496 385.234C419.513 393.452 426.252 400.162 434.47 400.145L541.558 399.92C549.776 399.903 556.486 393.164 556.469 384.946L556.326 316.643L556.323 315.215L556.263 286.392C556.251 281.013 551.842 276.622 546.463 276.633Z" fill="#12423C"/>
<path d="M434.441 401.645C425.388 401.645 418.016 394.291 417.998 385.237L417.852 315.505C417.832 306.44 425.193 299.048 434.26 299.028L506.227 298.877L506.202 286.496C506.195 283.495 507.365 280.663 509.497 278.523C511.628 276.382 514.455 275.201 517.457 275.194L546.463 275.133C546.471 275.133 546.48 275.133 546.487 275.133C549.48 275.133 552.302 276.303 554.436 278.428C556.576 280.559 557.758 283.386 557.764 286.388L557.971 384.943C557.981 389.318 556.275 393.447 553.167 396.567C550.059 399.687 545.938 401.411 541.563 401.42L434.475 401.646C434.463 401.645 434.452 401.645 434.441 401.645ZM546.467 278.134L517.461 278.195C515.261 278.2 513.187 279.068 511.62 280.64C510.054 282.212 509.195 284.29 509.2 286.491L509.228 300.372C509.23 301.2 508.559 301.873 507.731 301.875L434.264 302.029C426.852 302.045 420.834 308.088 420.85 315.5L420.996 385.232C421.011 392.634 427.039 398.646 434.439 398.646C434.448 398.646 434.457 398.646 434.466 398.646L541.554 398.42C545.128 398.413 548.496 397.003 551.038 394.45C553.58 391.898 554.976 388.523 554.968 384.949L554.761 286.394C554.757 284.194 553.888 282.12 552.316 280.554C550.749 278.993 548.677 278.133 546.484 278.133C546.48 278.134 546.474 278.134 546.467 278.134Z" fill="#264653"/>
<path opacity="0.12" d="M545.174 287.754L519.221 287.809C514.409 287.819 510.48 291.765 510.49 296.579L510.516 309.001L444.781 309.139C437.428 309.155 431.424 315.185 431.439 322.54L431.57 384.945C431.585 392.3 437.616 398.305 444.969 398.289L540.786 398.088C548.139 398.073 554.143 392.042 554.128 384.687L554 323.56L553.997 322.282L553.943 296.487C553.933 291.674 549.986 287.744 545.174 287.754Z" fill="white"/>
<path d="M546.684 385.541C546.684 388.238 544.498 390.424 541.801 390.424C539.104 390.424 536.918 388.238 536.918 385.541C536.918 382.844 539.104 380.658 541.801 380.658C544.498 380.658 546.684 382.844 546.684 385.541Z" fill="white"/>
<path d="M550.096 302.999C549.543 302.999 549.096 302.552 549.096 301.999V288.707C549.096 286.477 547.117 284.662 544.686 284.662H535C534.447 284.662 534 284.215 534 283.662C534 283.109 534.447 282.662 535 282.662H544.686C548.22 282.662 551.096 285.374 551.096 288.707V301.999C551.096 302.552 550.649 302.999 550.096 302.999Z" fill="white"/>
<path d="M491.766 358.939L480.2 347.373C479.223 346.396 479.223 344.814 480.2 343.838C481.177 342.861 482.759 342.861 483.735 343.838L491.796 351.899L500.011 343.823C500.996 342.856 502.577 342.871 503.547 343.853C504.515 344.838 504.501 346.42 503.517 347.389L491.766 358.939Z" fill="white"/>
<path d="M491.865 357.92C490.484 357.92 489.365 356.801 489.365 355.42V330.119C489.365 328.738 490.484 327.619 491.865 327.619C493.246 327.619 494.365 328.738 494.365 330.119V355.42C494.365 356.801 493.246 357.92 491.865 357.92Z" fill="white"/>
<path d="M510.27 369.934H473.167C470.203 369.934 467.791 367.522 467.791 364.558V351.078C467.791 349.697 468.91 348.578 470.291 348.578C471.672 348.578 472.791 349.697 472.791 351.078V364.558C472.791 364.765 472.96 364.934 473.167 364.934H510.27C510.638 364.934 510.937 364.635 510.937 364.267V351.078C510.937 349.697 512.056 348.578 513.437 348.578C514.818 348.578 515.937 349.697 515.937 351.078V364.267C515.937 367.392 513.395 369.934 510.27 369.934Z" fill="white"/>
<path d="M479.747 267.073L430.343 231.465C429.771 231.053 429.641 230.254 430.054 229.682L478.298 162.747C478.711 162.175 479.509 162.045 480.081 162.458L529.485 198.066C530.057 198.478 530.187 199.277 529.774 199.849L481.53 266.784C481.117 267.356 480.319 267.486 479.747 267.073Z" fill="white"/>
<path d="M480.489 268.814C479.911 268.814 479.349 268.634 478.871 268.29L429.468 232.683C428.227 231.786 427.945 230.048 428.839 228.806L477.083 161.871C477.517 161.269 478.158 160.872 478.891 160.753C479.619 160.636 480.356 160.807 480.959 161.241L530.362 196.849C531.603 197.744 531.886 199.483 530.993 200.725L482.748 267.661C482.314 268.263 481.672 268.66 480.939 268.778C480.789 268.802 480.638 268.814 480.489 268.814ZM480.624 265.856L480.623 265.855L480.624 265.856ZM431.402 230.379L480.444 265.727L528.427 199.153L479.386 163.806L431.402 230.379Z" fill="#264653"/>
<path d="M479.747 267.073L430.343 231.465C429.771 231.053 429.641 230.254 430.054 229.682L478.298 162.747C478.711 162.175 479.509 162.045 480.081 162.458L529.485 198.066C530.057 198.478 530.187 199.277 529.774 199.849L481.53 266.784C481.117 267.356 480.319 267.486 479.747 267.073Z" fill="#2A9D8F"/>
<path d="M480.489 268.814C479.911 268.814 479.349 268.634 478.871 268.29L429.468 232.683C428.227 231.786 427.945 230.048 428.839 228.806L477.083 161.871C477.517 161.269 478.158 160.872 478.891 160.753C479.619 160.636 480.356 160.807 480.959 161.241L530.362 196.849C531.603 197.744 531.886 199.483 530.993 200.725L482.748 267.661C482.314 268.263 481.672 268.66 480.939 268.778C480.789 268.802 480.638 268.814 480.489 268.814ZM480.624 265.856L480.623 265.855L480.624 265.856ZM431.402 230.379L480.444 265.727L528.427 199.153L479.386 163.806L431.402 230.379Z" fill="#264653"/>
<path d="M509.991 213.354C509.789 213.354 509.584 213.293 509.407 213.165L500.888 207.025C500.44 206.702 500.339 206.077 500.661 205.63C500.983 205.181 501.608 205.078 502.058 205.403L510.576 211.543C511.024 211.866 511.125 212.491 510.803 212.939C510.608 213.21 510.301 213.354 509.991 213.354Z" fill="#264653"/>
<path d="M500.85 226.037C500.648 226.037 500.443 225.976 500.266 225.849L462.964 198.963C462.516 198.64 462.415 198.015 462.737 197.568C463.059 197.12 463.684 197.017 464.133 197.341L501.435 224.226C501.883 224.549 501.984 225.174 501.662 225.622C501.467 225.892 501.161 226.037 500.85 226.037Z" fill="#264653"/>
<path d="M494.63 234.666C494.428 234.666 494.223 234.605 494.046 234.478L479.22 223.791C478.772 223.468 478.671 222.843 478.993 222.395C479.315 221.948 479.94 221.846 480.389 222.168L495.215 232.855C495.663 233.178 495.764 233.803 495.442 234.251C495.248 234.521 494.941 234.666 494.63 234.666Z" fill="#12423C"/>
<path d="M466.404 214.321C466.202 214.321 465.997 214.26 465.82 214.132L456.745 207.591C456.297 207.268 456.196 206.643 456.518 206.196C456.84 205.747 457.465 205.645 457.915 205.969L466.99 212.51C467.438 212.833 467.539 213.458 467.217 213.906C467.021 214.177 466.714 214.321 466.404 214.321Z" fill="#12423C"/>
<path d="M472.337 233.257C472.135 233.257 471.93 233.196 471.753 233.068L448.777 216.508C448.329 216.185 448.228 215.56 448.55 215.112C448.872 214.663 449.497 214.561 449.947 214.885L472.923 231.444C473.371 231.767 473.472 232.392 473.15 232.84C472.954 233.112 472.648 233.257 472.337 233.257Z" fill="#264653"/>
<path d="M484.63 259.012L423.659 235.558C423.001 235.305 422.672 234.566 422.925 233.907L454.679 151.358C454.932 150.7 455.671 150.371 456.33 150.625L517.301 174.079C517.959 174.332 518.288 175.071 518.034 175.73L486.28 258.279C486.027 258.937 485.288 259.265 484.63 259.012Z" fill="white"/>
<path d="M485.084 260.596C484.753 260.596 484.417 260.536 484.091 260.411L423.12 236.957C421.689 236.405 420.975 234.795 421.525 233.366L453.278 150.819C453.829 149.39 455.438 148.675 456.867 149.223L517.839 172.678C519.268 173.228 519.983 174.838 519.435 176.266L487.681 258.815C487.255 259.919 486.2 260.596 485.084 260.596ZM424.405 234.237L484.961 257.532L516.556 175.398L456 152.104L424.405 234.237Z" fill="#264653"/>
<path d="M484.63 259.012L423.659 235.558C423.001 235.305 422.672 234.566 422.925 233.907L454.679 151.358C454.932 150.7 455.671 150.371 456.33 150.625L517.301 174.079C517.959 174.332 518.288 175.071 518.034 175.73L486.28 258.279C486.027 258.937 485.288 259.265 484.63 259.012Z" fill="white"/>
<path d="M485.084 260.596C484.753 260.596 484.417 260.536 484.091 260.411L423.12 236.957C421.689 236.405 420.975 234.795 421.525 233.366L453.278 150.819C453.829 149.39 455.438 148.675 456.867 149.223L517.839 172.678C519.268 173.228 519.983 174.838 519.435 176.266L487.681 258.815C487.255 259.919 486.2 260.596 485.084 260.596ZM424.405 234.237L484.961 257.532L516.556 175.398L456 152.104L424.405 234.237Z" fill="#264653"/>
<path d="M467.11 181.244C466.991 181.244 466.869 181.222 466.751 181.177L456.266 177.144C455.751 176.946 455.494 176.367 455.692 175.852C455.89 175.336 456.469 175.079 456.985 175.278L467.47 179.311C467.985 179.509 468.242 180.088 468.044 180.603C467.89 181 467.511 181.244 467.11 181.244Z" fill="#264653"/>
<path d="M494.937 210.747C494.818 210.747 494.696 210.725 494.578 210.68L448.668 193.02C448.153 192.822 447.896 192.243 448.094 191.728C448.293 191.212 448.87 190.954 449.387 191.154L495.297 208.814C495.812 209.012 496.069 209.591 495.871 210.106C495.717 210.503 495.338 210.747 494.937 210.747Z" fill="#264653"/>
<path d="M490.851 221.366C490.732 221.366 490.61 221.344 490.492 221.299L472.244 214.279C471.729 214.081 471.472 213.502 471.67 212.987C471.868 212.471 472.446 212.214 472.963 212.413L491.211 219.433C491.726 219.631 491.983 220.21 491.785 220.725C491.631 221.122 491.252 221.366 490.851 221.366Z" fill="#12423C"/>
<path d="M456.112 208.004C455.993 208.004 455.871 207.982 455.753 207.937L444.583 203.64C444.068 203.442 443.81 202.863 444.009 202.348C444.207 201.832 444.784 201.575 445.302 201.774L456.472 206.071C456.987 206.269 457.244 206.848 457.046 207.363C456.892 207.76 456.513 208.004 456.112 208.004Z" fill="#12423C"/>
<path d="M467.405 225.977C467.286 225.977 467.164 225.956 467.046 225.911L438.768 215.033C438.253 214.835 437.996 214.256 438.194 213.741C438.393 213.226 438.97 212.968 439.487 213.167L467.765 224.044C468.28 224.242 468.537 224.821 468.339 225.337C468.185 225.734 467.806 225.977 467.405 225.977Z" fill="#264653"/>
<path d="M372.007 222.818L299.797 198.163C298.971 197.881 298.53 196.983 298.812 196.157L332.489 97.5253C332.771 96.6993 333.669 96.2583 334.495 96.5403L406.705 121.195C407.531 121.477 407.972 122.375 407.69 123.201L374.013 221.833C373.731 222.659 372.833 223.1 372.007 222.818Z" fill="#12423C"/>
<path d="M372.515 224.401C372.186 224.401 371.851 224.348 371.523 224.236L299.313 199.581C298.535 199.316 297.906 198.763 297.543 198.024C297.181 197.285 297.127 196.449 297.393 195.67L331.07 97.0383C331.337 96.2593 331.889 95.6313 332.629 95.2683C333.367 94.9063 334.202 94.8513 334.982 95.1183L407.19 119.773C407.969 120.039 408.597 120.592 408.961 121.331C409.323 122.07 409.377 122.906 409.11 123.685L375.434 222.316C374.996 223.594 373.796 224.401 372.515 224.401ZM333.992 97.9553C333.958 97.9553 333.919 97.9783 333.909 98.0083L300.232 196.64C300.219 196.676 300.246 196.729 300.282 196.742L372.492 221.397H372.493C372.527 221.408 372.582 221.383 372.594 221.347L406.271 122.715C406.284 122.679 406.256 122.625 406.22 122.613L334.012 97.9583C334.004 97.9563 333.998 97.9553 333.992 97.9553Z" fill="#264653"/>
<path d="M386.994 216.244L310.935 210.152C310.065 210.082 309.416 209.321 309.486 208.45L317.807 104.56C317.877 103.69 318.639 103.041 319.509 103.111L395.568 109.203C396.438 109.273 397.087 110.035 397.017 110.905L388.696 214.795C388.626 215.665 387.864 216.313 386.994 216.244Z" fill="white"/>
<path d="M387.125 217.748C387.041 217.748 386.957 217.745 386.873 217.738L310.814 211.646C309.994 211.58 309.249 211.199 308.715 210.573C308.181 209.947 307.923 209.149 307.989 208.329L316.309 104.44C316.446 102.746 317.935 101.48 319.626 101.615L395.685 107.707C397.377 107.843 398.644 109.33 398.509 111.023L390.188 214.914C390.122 215.734 389.742 216.48 389.115 217.014C388.555 217.491 387.856 217.748 387.125 217.748ZM319.382 104.605C319.34 104.605 319.305 104.637 319.301 104.68L310.981 208.569C310.978 208.608 311.017 208.653 311.055 208.656L387.114 214.748C387.161 214.739 387.198 214.712 387.201 214.675L395.522 110.784C395.525 110.74 395.493 110.701 395.448 110.697L319.388 104.605C319.386 104.605 319.384 104.605 319.382 104.605Z" fill="#264653"/>
<path d="M384.426 126.708C384.4 126.708 384.372 126.707 384.345 126.705L365.078 125.161C364.527 125.117 364.117 124.635 364.161 124.084C364.205 123.534 364.671 123.122 365.238 123.167L384.505 124.711C385.055 124.755 385.466 125.237 385.422 125.788C385.38 126.311 384.943 126.708 384.426 126.708Z" fill="#12423C"/>
<path d="M383.933 132.864C383.907 132.864 383.879 132.863 383.852 132.861L364.584 131.318C364.034 131.274 363.623 130.792 363.667 130.241C363.711 129.691 364.188 129.278 364.744 129.324L384.012 130.868C384.562 130.912 384.973 131.394 384.929 131.945C384.887 132.467 384.45 132.864 383.933 132.864Z" fill="#12423C"/>
<path d="M338.824 199.044C338.798 199.044 338.77 199.043 338.743 199.041L319.475 197.497C318.925 197.453 318.514 196.971 318.558 196.42C318.602 195.87 319.083 195.457 319.635 195.503L338.903 197.046C339.453 197.09 339.864 197.572 339.82 198.123C339.778 198.647 339.34 199.044 338.824 199.044Z" fill="#12423C"/>
<path d="M339.667 165.566C339.641 165.566 339.613 165.565 339.586 165.563L322.455 164.191C321.905 164.147 321.494 163.665 321.538 163.114C321.582 162.565 322.056 162.147 322.615 162.198L339.746 163.57C340.296 163.614 340.707 164.096 340.663 164.647C340.621 165.169 340.184 165.566 339.667 165.566Z" fill="#264653"/>
<path d="M350.169 189.387C350.143 189.387 350.115 189.386 350.088 189.384L320.627 187.025C320.077 186.981 319.666 186.499 319.71 185.949C319.755 185.399 320.228 184.981 320.787 185.032L350.248 187.391C350.798 187.435 351.209 187.917 351.165 188.467C351.123 188.99 350.686 189.387 350.169 189.387Z" fill="#264653"/>
<path d="M343.926 177.397C343.9 177.397 343.872 177.396 343.845 177.394L321.541 175.607C320.991 175.563 320.58 175.081 320.624 174.53C320.668 173.98 321.133 173.568 321.701 173.613L344.005 175.4C344.556 175.444 344.966 175.926 344.922 176.477C344.88 177 344.443 177.397 343.926 177.397Z" fill="#264653"/>
<path d="M380.969 158.309C380.943 158.309 380.915 158.308 380.888 158.306L323.207 153.686C322.657 153.642 322.246 153.16 322.29 152.609C322.334 152.059 322.801 151.639 323.367 151.692L381.048 156.312C381.598 156.356 382.009 156.838 381.965 157.389C381.923 157.912 381.486 158.309 380.969 158.309Z" fill="#264653"/>
<path d="M378.601 180.085C378.575 180.085 378.547 180.084 378.52 180.082L350.959 177.875C350.409 177.831 349.998 177.349 350.042 176.798C350.086 176.249 350.554 175.832 351.119 175.881L378.68 178.089C379.23 178.133 379.641 178.615 379.597 179.166C379.555 179.688 379.118 180.085 378.601 180.085Z" fill="#264653"/>
<path d="M381.411 168.908C381.383 168.908 381.354 168.907 381.326 168.905L345.98 165.922C345.429 165.876 345.021 165.392 345.068 164.841C345.115 164.29 345.602 163.89 346.148 163.928L381.494 166.911C382.045 166.957 382.453 167.441 382.406 167.992C382.362 168.514 381.925 168.908 381.411 168.908Z" fill="#264653"/>
</svg>
