<svg xmlns="http://www.w3.org/2000/svg" width="20" height="22" viewBox="0 0 32 37" fill="none">
<path d="M9.83031 13.619H1.82031V10.999H9.83031C10.4003 10.999 10.8603 10.539 10.8603 9.96899V1.95898H13.4803V9.96899C13.4803 11.979 11.8403 13.619 9.82031 13.619H9.83031Z" fill="#E76F51"/>
<path d="M25.3198 3.05946C27.1798 3.05946 28.6898 4.56945 28.6898 6.42945V30.4095C28.6898 32.2695 27.1798 33.7795 25.3198 33.7795H6.49977C4.63977 33.7795 3.12978 32.2695 3.12978 30.4095V12.2395C3.12978 11.9195 3.25977 11.6095 3.47977 11.3795L11.4598 3.39946C11.6898 3.16946 11.9898 3.04945 12.3198 3.04945H25.3198M25.3198 0.439453H12.3198C11.2998 0.439453 10.3298 0.839456 9.60977 1.55946L1.62978 9.53946C0.909776 10.2595 0.509766 11.2295 0.509766 12.2495V30.4195C0.509766 33.7295 3.18977 36.4195 6.50977 36.4195H25.3298C28.6398 36.4195 31.3298 33.7395 31.3298 30.4195V6.43945C31.3298 3.12945 28.6498 0.439453 25.3298 0.439453H25.3198Z" fill="#E76F51"/>
<path d="M23.6192 28.4902H8.19922V30.7402H23.6192V28.4902Z" fill="#E76F51"/>
<path d="M23.6292 22.209H18.6992V24.459H23.6292V22.209Z" fill="#E76F51"/>
<path d="M16.1192 22.209H8.19922V24.459H16.1192V22.209Z" fill="#E76F51"/>
<path d="M23.6192 15.9297H8.19922V18.1797H23.6192V15.9297Z" fill="#E76F51"/>
<path d="M23.6192 9.65039H17.1992V11.9004H23.6192V9.65039Z" fill="#E76F51"/>
</svg>