<svg xmlns="http://www.w3.org/2000/svg" width="20" height="22" viewBox="0 0 34 36" fill="none">
<path d="M12.9897 32.6093C6.85968 32.0193 3.54969 30.1893 3.54969 29.1693V21.2393C6.37969 22.8893 11.1197 23.7293 15.8197 23.8593L16.6597 21.2593C8.17969 21.1793 3.54969 18.8493 3.54969 17.6293V6.08929C3.54969 5.36929 2.95969 4.7793 2.23969 4.7793C1.51969 4.7793 0.929688 5.36929 0.929688 6.08929V29.1693C0.929688 32.4293 6.04969 34.4493 12.1697 35.1493L12.9897 32.6093Z" fill="#E76F51"/>
<path d="M31.9189 4.76978C31.1989 4.76978 30.6089 5.35977 30.6089 6.07977V17.6198C30.6089 18.5898 27.6289 20.2898 22.0789 20.9598L20.3289 23.7498C24.3389 23.4598 28.1789 22.6398 30.6089 21.2298V29.1598C30.6089 30.3898 25.8389 32.7898 17.0789 32.7898C16.2489 32.7898 15.4589 32.7598 14.6989 32.7198L13.1289 35.2298C14.4289 35.3498 15.7589 35.4098 17.0889 35.4098C25.1189 35.4098 33.2389 33.2598 33.2389 29.1498V6.06978C33.2389 5.34978 32.6489 4.75977 31.9289 4.75977L31.9189 4.76978Z" fill="#E76F51"/>
<path d="M10.7699 9.21922C6.18992 8.45922 3.54992 6.99922 3.54992 6.07922C3.54992 5.23922 5.76992 3.93922 9.66992 3.13922C9.74992 2.99922 9.81992 2.85922 9.90992 2.72922C9.90992 2.72922 10.4999 1.63922 11.2799 0.199219C5.55992 0.989219 0.919922 2.96923 0.919922 6.06923C0.919922 9.58923 6.88993 11.6692 13.6499 12.1892L10.7699 9.20923V9.21922Z" fill="#E76F51"/>
<path d="M24.5502 0.478752L22.6602 2.81876C27.6902 3.53876 30.6102 5.10875 30.6102 6.07875C30.6102 7.10875 27.3002 8.81876 21.6602 9.45876L22.9302 11.9388C28.6302 11.1488 33.2402 9.16876 33.2402 6.06876C33.2402 3.27876 29.4901 1.38875 24.5602 0.46875L24.5502 0.478752Z" fill="#E76F51"/>
</svg>