<svg  xmlns="http://www.w3.org/2000/svg" width="20" height="22"
            viewBox="0 0 35 35" fill="none" class="zoom-static">
            <path
              d="M30.4202 30.0091H5.05023C2.67023 30.0091 0.740234 28.0791 0.740234 25.6991V14.0991C0.740234 11.7191 2.67023 9.78906 5.05023 9.78906H10.4602V12.4091H5.05023C4.12023 12.4091 3.36024 13.1691 3.36024 14.0991V25.6991C3.36024 26.6291 4.12023 27.3891 5.05023 27.3891H30.4202C31.3502 27.3891 32.1102 26.6291 32.1102 25.6991V14.0991C32.1102 13.1691 31.3502 12.4091 30.4202 12.4091H25.0102V9.78906H30.4202C32.8002 9.78906 34.7302 11.7191 34.7302 14.0991V25.6991C34.7302 28.0791 32.8002 30.0091 30.4202 30.0091Z"
              fill="#E76F51" />
            <path
              d="M15.1591 7.80008H11.0391L11.8091 5.46008L13.8191 2.58008H16.5691V6.40007C16.5691 7.18007 15.9391 7.81007 15.1591 7.81007V7.80008Z"
              fill="#E76F51" />
            <path
              d="M26.4498 17.8798H23.8298V5.30977C23.8298 3.96977 22.7398 2.86977 21.3898 2.86977H16.8298C16.6198 2.86977 16.4098 2.94977 16.2598 3.10977L11.8598 7.50977C11.7098 7.65977 11.6298 7.85977 11.6298 8.07977V17.7098H9.00977V8.07977C9.00977 7.16977 9.36977 6.29977 10.0098 5.65977L14.4098 1.25977C15.0598 0.609766 15.9198 0.259766 16.8298 0.259766H21.3898C24.1798 0.259766 26.4498 2.52978 26.4498 5.31978V17.8898V17.8798Z"
              fill="#E76F51" />
            <path d="M28.6998 16.2695H6.75977V18.8895H28.6998V16.2695Z" fill="#E76F51" />
            <path d="M9.37 26.4297H6.75V32.6197H9.37V26.4297Z" fill="#E76F51" />
            <path d="M15.8192 26.4297H13.1992V34.5397H15.8192V26.4297Z" fill="#E76F51" />
            <path d="M22.2606 26.4297H19.6406V32.6197H22.2606V26.4297Z" fill="#E76F51" />
            <path d="M28.7098 26.4297H26.0898V34.5397H28.7098V26.4297Z" fill="#E76F51" />
            <path d="M32.3798 21.9004H3.08984V24.5204H32.3798V21.9004Z" fill="#E76F51" />
          </svg>