<svg  xmlns="http://www.w3.org/2000/svg" width="20" height="22"
            viewBox="0 0 37 32" fill="none" class="zoom-static">
            <path
              d="M18.2299 22.6399C13.8499 22.6399 9.41992 21.4599 9.41992 18.8299V13.2299C9.41992 12.5099 10.0099 11.9199 10.7299 11.9199C11.4499 11.9199 12.0399 12.5099 12.0399 13.2299V18.7099C12.4599 19.1799 14.6299 20.0199 18.2199 20.0199C21.8099 20.0199 23.9799 19.1799 24.3999 18.7099V13.2299C24.3999 12.5099 24.9899 11.9199 25.7099 11.9199C26.4299 11.9199 27.0199 12.5099 27.0199 13.2299V18.8299C27.0199 21.4599 22.5999 22.6399 18.2099 22.6399H18.2299Z"
              fill="#E76F51" />
            <path
              d="M18.2299 17.0399C13.8499 17.0399 9.41992 15.8599 9.41992 13.2299C9.41992 12.5099 10.0099 11.9199 10.7299 11.9199C11.4099 11.9199 11.9699 12.4299 12.0299 13.0899C12.4099 13.5199 14.5599 14.4199 18.2199 14.4199C21.8799 14.4199 24.0299 13.5199 24.4099 13.0899C24.4799 12.4299 25.0399 11.9199 25.7099 11.9199C26.4299 11.9199 27.0199 12.5099 27.0199 13.2299C27.0199 15.8599 22.5999 17.0399 18.2099 17.0399H18.2299Z"
              fill="#E76F51" />
            <path
              d="M25.7197 14.5399C25.0397 14.5399 24.4797 14.0299 24.4197 13.3699C24.0397 12.9399 21.8897 12.0399 18.2297 12.0399C14.5697 12.0399 12.4197 12.9399 12.0397 13.3699C11.9697 14.0299 11.4097 14.5399 10.7397 14.5399C10.0197 14.5399 9.42969 13.9499 9.42969 13.2299C9.42969 10.5999 13.8497 9.41992 18.2397 9.41992C22.6297 9.41992 27.0497 10.5999 27.0497 13.2299C27.0497 13.9499 26.4597 14.5399 25.7397 14.5399H25.7197Z"
              fill="#E76F51" />
            <path
              d="M18.2299 31.9904C16.8699 31.9904 15.4799 31.8104 14.0999 31.4404C9.18985 30.1204 5.16984 26.5004 3.33984 21.7504L5.78986 20.8104C7.31986 24.7804 10.6799 27.8104 14.7899 28.9104C21.8999 30.8104 29.2198 26.5804 31.1198 19.4804L31.3398 18.6504L33.8698 19.3304L33.6498 20.1604C31.7398 27.2804 25.2799 31.9904 18.2299 31.9904Z"
              fill="#E76F51" />
            <path
              d="M5.35031 12.5809L2.82031 11.9009C3.92031 7.78086 6.56031 4.34086 10.2503 2.21086C13.9403 0.0808558 18.2403 -0.489144 22.3603 0.620856C27.2703 1.94086 31.2903 5.56086 33.1203 10.3109L30.6703 11.2509C29.1403 7.28086 25.7803 4.25086 21.6703 3.15086C18.2303 2.23086 14.6403 2.70086 11.5503 4.48086C8.46029 6.26086 6.2603 9.14086 5.3403 12.5809H5.35031Z"
              fill="#E76F51" />
            <path
              d="M3.81046 15.2603C3.36046 15.2603 2.92047 15.0303 2.67047 14.6003L0.230469 10.3803L2.50046 9.07031L4.28046 12.1503L7.36044 10.3703L8.67047 12.6403L4.45047 15.0803C4.24047 15.2003 4.02045 15.2603 3.80045 15.2603H3.81046Z"
              fill="#E76F51" />
            <path
              d="M33.961 22.9903L32.181 19.9103L29.101 21.6903L27.791 19.4203L32.011 16.9803C32.641 16.6203 33.441 16.8303 33.801 17.4603L36.241 21.6803L33.971 22.9903H33.961Z"
              fill="#E76F51" />
          </svg>