<svg xmlns="http://www.w3.org/2000/svg" width="20" height="22"
            viewBox="0 0 34 34" fill="none" class="zoom-static">
            <path
              d="M31.3409 15.6298V18.6298H28.3409V15.6298H31.3409ZM32.4609 13.0098H27.2109C26.3809 13.0098 25.7109 13.6798 25.7109 14.5098V19.7598C25.7109 20.5898 26.3809 21.2598 27.2109 21.2598H32.4609C33.2909 21.2598 33.9609 20.5898 33.9609 19.7598V14.5098C33.9609 13.6798 33.2909 13.0098 32.4609 13.0098Z"
              fill="#E76F51" />
            <path d="M26.3306 18.4503H8.45063L8.39062 15.8203H26.3706L26.3306 18.4503Z" fill="#E76F51" />
            <path
              d="M8.17072 15.5112C10.5307 14.9912 13.8307 13.6312 16.4307 10.1712C20.0007 5.41117 23.6307 3.81115 26.2807 3.37115C28.5807 2.99115 28.1507 5.64115 26.3607 6.02115C24.3107 6.45115 21.4607 7.84115 18.5307 11.7411C15.2707 16.0812 11.0607 17.6312 8.22073 18.1712C6.93073 18.4212 6.50073 15.8812 8.18072 15.5112H8.17072Z"
              fill="#E76F51" />
            <path
              d="M26.1795 30.8803C23.5495 30.4103 19.9695 28.8003 16.4495 24.1003C13.6995 20.4403 10.1595 19.1403 7.78952 18.6803C6.32952 18.4003 6.29952 15.7603 7.91952 16.0403C10.7595 16.5303 15.1695 18.0203 18.5495 22.5303C21.3495 26.2603 24.0795 27.6903 26.1095 28.1903C28.1395 28.6903 26.8495 31.0003 26.1695 30.8803H26.1795Z"
              fill="#E76F51" />
            <path
              d="M6.61047 15.6298V18.6298H3.61047V15.6298H6.61047ZM7.73047 13.0098H2.48047C1.65047 13.0098 0.980469 13.6798 0.980469 14.5098V19.7598C0.980469 20.5898 1.65047 21.2598 2.48047 21.2598H7.73047C8.56047 21.2598 9.23047 20.5898 9.23047 19.7598V14.5098C9.23047 13.6798 8.56047 13.0098 7.73047 13.0098Z"
              fill="#E76F51" />
            <path
              d="M31.3409 3.27039V6.27039H28.3409V3.27039H31.3409ZM32.4609 0.650391H27.2109C26.3809 0.650391 25.7109 1.32039 25.7109 2.15039V7.40039C25.7109 8.23039 26.3809 8.90039 27.2109 8.90039H32.4609C33.2909 8.90039 33.9609 8.23039 33.9609 7.40039V2.15039C33.9609 1.32039 33.2909 0.650391 32.4609 0.650391Z"
              fill="#E76F51" />
            <path
              d="M31.3409 28.0009V31.0009H28.3409V28.0009H31.3409ZM32.4609 25.3809H27.2109C26.3809 25.3809 25.7109 26.0509 25.7109 26.8809V32.1309C25.7109 32.9609 26.3809 33.6309 27.2109 33.6309H32.4609C33.2909 33.6309 33.9609 32.9609 33.9609 32.1309V26.8809C33.9609 26.0509 33.2909 25.3809 32.4609 25.3809Z"
              fill="#E76F51" />
          </svg>