<svg  xmlns="http://www.w3.org/2000/svg" width="20" height="22"
            viewBox="0 0 37 37" fill="none" class="zoom-static">
            <path
              d="M14.5704 34.2306H4.4704C3.8004 34.2306 3.26041 33.6906 3.26041 33.0206V14.0606H9.96039C11.9804 14.0606 13.6104 12.4206 13.6104 10.4106V3.51062H27.6104C28.2804 3.51062 28.8204 4.05063 28.8204 4.72063V11.0806C29.7504 11.4606 30.6304 11.9406 31.4404 12.5106V4.72063C31.4404 2.60063 29.7204 0.890625 27.6104 0.890625H12.4604C11.4404 0.890625 10.4704 1.29062 9.7504 2.01062L1.77039 9.99063C1.05039 10.7106 0.650391 11.6806 0.650391 12.7006V33.0206C0.650391 35.1406 2.37041 36.8506 4.48041 36.8506H19.1104C17.4304 36.2706 15.9004 35.3706 14.5904 34.2306H14.5704ZM10.9904 4.47063V10.4106C10.9904 10.9806 10.5304 11.4406 9.96039 11.4406H4.02039L10.9904 4.47063Z"
              fill="#E76F51" />
            <path
              d="M34.7502 36.8404L30.1902 32.2804C28.3702 33.7004 26.0901 34.5504 23.6101 34.5504C17.7101 34.5504 12.9102 29.7504 12.9102 23.8504C12.9102 17.9504 17.7101 13.1504 23.6101 13.1504C29.5101 13.1504 34.3202 17.9504 34.3202 23.8504C34.3202 26.3304 33.4701 28.6104 32.0501 30.4304L36.6201 35.0004L34.7602 36.8504L34.7502 36.8404ZM23.6002 15.7504C19.1402 15.7504 15.5201 19.3804 15.5201 23.8304C15.5201 28.2804 19.1502 31.9104 23.6002 31.9104C28.0502 31.9104 31.6801 28.2804 31.6801 23.8304C31.6801 19.3804 28.0502 15.7504 23.6002 15.7504Z"
              fill="#E76F51" />
            <path
              d="M22.0414 27.7109C21.5014 27.7109 20.9613 27.5109 20.5513 27.1009L17.6113 24.1609L19.4713 22.3009L22.0414 24.8708L27.2813 19.6309L29.1414 21.4909L23.5414 27.0909C23.1314 27.5009 22.5814 27.7109 22.0414 27.7109Z"
              fill="#E76F51" />
          </svg>