<svg  xmlns="http://www.w3.org/2000/svg" width="20" height="22"
            viewBox="0 0 37 36" fill="none" class="zoom-static">
            <path
              d="M21.369 33.2191C21.309 33.1191 21.279 33.0091 21.229 32.8991C20.589 32.9691 19.919 33.0292 19.209 33.0692C18.389 33.1192 17.519 33.1392 16.609 33.1392C7.85898 33.1392 3.07898 30.7392 3.07898 29.5092V6.42914C3.07898 5.70914 2.48898 5.11914 1.76898 5.11914C1.04898 5.11914 0.458984 5.70914 0.458984 6.42914V29.5092C0.458984 33.8092 8.82898 35.7691 16.609 35.7691C18.609 35.7691 20.639 35.6392 22.559 35.3792C22.919 35.3292 23.269 35.2791 23.619 35.2191C22.719 34.8291 21.929 34.1691 21.369 33.2191Z"
              fill="#E76F51" />
            <path
              d="M32.7489 17.6191V6.42914C32.7489 5.70914 32.1589 5.11914 31.4389 5.11914C30.7189 5.11914 30.1289 5.70914 30.1289 6.42914V16.3891C31.1089 16.5391 32.0289 16.9491 32.7489 17.6191Z"
              fill="#E76F51" />
            <path
              d="M17.9592 17.8304C17.5192 17.8404 17.0692 17.8504 16.5992 17.8504C7.84921 17.8504 3.06921 15.4504 3.06921 14.2104C3.06921 13.4904 2.47922 12.9004 1.75922 12.9004C1.03922 12.9004 0.449219 13.4904 0.449219 14.2104C0.449219 18.5104 8.81921 20.4704 16.5992 20.4704C16.8192 20.4704 17.0392 20.4704 17.2592 20.4604C17.2592 19.5604 17.5092 18.6304 17.9592 17.8204V17.8304Z"
              fill="#E76F51" />
            <path
              d="M15.3292 25.6094C7.38919 25.3894 3.06921 23.1695 3.06921 21.9995C3.06921 21.2795 2.47922 20.6895 1.75922 20.6895C1.03922 20.6895 0.449219 21.2795 0.449219 21.9995C0.449219 26.1695 8.33922 28.1395 15.9192 28.2495C15.5092 27.4395 15.2992 26.5294 15.3292 25.6194V25.6094Z"
              fill="#E76F51" />
            <path
              d="M16.5992 12.6891C8.56921 12.6891 0.449219 10.5391 0.449219 6.42914C0.449219 5.70914 1.03922 5.11914 1.75922 5.11914C2.47922 5.11914 3.06921 5.70914 3.06921 6.42914C3.06921 7.70914 8.20921 10.0692 16.5992 10.0692C24.9892 10.0692 30.1292 7.71914 30.1292 6.42914C30.1292 5.70914 30.7192 5.11914 31.4392 5.11914C32.1592 5.11914 32.7492 5.70914 32.7492 6.42914C32.7492 10.5391 24.6292 12.6891 16.5992 12.6891Z"
              fill="#E76F51" />
            <path
              d="M31.4392 7.74969C30.7192 7.74969 30.1292 7.1597 30.1292 6.4397C30.1292 5.1597 24.9992 2.80969 16.5992 2.80969C8.19921 2.80969 3.06921 5.1597 3.06921 6.4397C3.06921 7.1597 2.47922 7.74969 1.75922 7.74969C1.03922 7.74969 0.449219 7.1597 0.449219 6.4397C0.449219 2.3297 8.57921 0.179688 16.5992 0.179688C24.6192 0.179688 32.7492 2.3297 32.7492 6.4397C32.7492 7.1597 32.1592 7.74969 31.4392 7.74969Z"
              fill="#E76F51" />
            <path
              d="M25.1395 16.7099C29.7295 16.7099 33.4695 20.4499 33.4695 25.0399C33.4695 29.6299 29.7295 33.3698 25.1395 33.3698C20.5495 33.3698 16.8094 29.6299 16.8094 25.0399C16.8094 20.4499 20.5495 16.7099 25.1395 16.7099ZM25.1395 14.0898C19.0895 14.0898 14.1895 18.9899 14.1895 25.0399C14.1895 31.0899 19.0895 35.9898 25.1395 35.9898C31.1895 35.9898 36.0894 31.0899 36.0894 25.0399C36.0894 18.9899 31.1895 14.0898 25.1395 14.0898Z"
              fill="#E76F51" />
            <path d="M23.4501 21.5801H20.8301V29.0701H23.4501V21.5801Z" fill="#E76F51" />
            <path d="M29.4403 21.5801H26.8203V29.0701H29.4403V21.5801Z" fill="#E76F51" />
          </svg>