<svg xmlns="http://www.w3.org/2000/svg" width="20" height="22" viewBox="0 0 35 35" fill="none">
<path d="M26.9283 8.87929L25.8683 7.8193C25.6483 7.5993 25.2884 7.5993 25.0684 7.8193L22.0684 10.8193C22.8684 11.2693 23.4683 11.9493 23.8683 12.7293L26.9283 9.6693C27.1483 9.4493 27.1483 9.08928 26.9283 8.86928V8.87929Z" fill="#E76F51"/>
<path d="M15.3091 17.5898L0.159141 32.7398C-0.0608594 32.9598 -0.0608594 33.3199 0.159141 33.5399L1.21914 34.5999C1.43914 34.8199 1.79913 34.8199 2.01913 34.5999L17.0591 19.5598C16.2691 19.0898 15.6891 18.3899 15.3091 17.5999V17.5898Z" fill="#E76F51"/>
<path d="M21.2585 25.0891C20.9085 25.0891 20.5785 24.9491 20.3285 24.7091L10.0485 14.4291C9.53852 13.9191 9.53852 13.089 10.0485 12.579L16.8985 5.71906C17.3885 5.22906 18.2585 5.22906 18.7585 5.71906L29.0385 15.9991C29.5485 16.5091 29.5485 17.3391 29.0385 17.8491L22.1885 24.7091C21.9385 24.9591 21.6085 25.0891 21.2585 25.0891ZM12.8285 13.4991L21.2585 21.9291L26.2585 16.9291L17.8285 8.49906L12.8285 13.4991Z" fill="#E76F51"/>
<path d="M16.3004 0.582306L5.31576 11.5746C5.09714 11.7934 5.09727 12.1479 5.31604 12.3665L6.37707 13.4268C6.59584 13.6454 6.95041 13.6453 7.16902 13.4266L18.1536 2.43428C18.3723 2.2155 18.3721 1.86094 18.1534 1.64232L17.0923 0.58203C16.8736 0.363412 16.519 0.363535 16.3004 0.582306Z" fill="#E76F51"/>
<path d="M32.3433 16.6136L21.3587 27.6058C21.1401 27.8246 21.1402 28.1792 21.359 28.3978L22.42 29.4581C22.6388 29.6767 22.9934 29.6766 23.212 29.4578L34.1966 18.4655C34.4152 18.2468 34.4151 17.8922 34.1963 17.6736L33.1353 16.6133C32.9165 16.3947 32.5619 16.3948 32.3433 16.6136Z" fill="#E76F51"/>
</svg>