<svg  xmlns="http://www.w3.org/2000/svg" width="20" height="22"
            viewBox="0 0 30 37" fill="none" class="zoom-static">
            <path
              d="M23.2391 36.4594H6.42914C3.22914 36.4594 0.619141 33.8494 0.619141 30.6494V2.1694C0.619141 1.4494 1.20914 0.859375 1.92914 0.859375H27.7391C28.4591 0.859375 29.0491 1.4494 29.0491 2.1694V30.6494C29.0491 33.8494 26.4391 36.4594 23.2391 36.4594ZM3.24915 3.4794V30.6494C3.24915 32.4094 4.67915 33.8394 6.43915 33.8394H23.2491C25.0091 33.8394 26.4391 32.4094 26.4391 30.6494V3.4794H3.25916H3.24915Z"
              fill="#E76F51" />
            <path d="M28.3296 8.93945H1.34961V11.5594H28.3296V8.93945Z" fill="#E76F51" />
            <path d="M28.3296 17.9297H1.34961V20.5497H28.3296V17.9297Z" fill="#E76F51" />
            <path d="M19.7087 23.9297H9.96875V26.5497H19.7087V23.9297Z" fill="#E76F51" />
          </svg>